<?xml version="1.0" encoding="UTF-8" standalone="no"?><svg xmlns="http://www.w3.org/2000/svg" xmlns:xlink="http://www.w3.org/1999/xlink" contentScriptType="application/ecmascript" contentStyleType="text/css" height="744px" preserveAspectRatio="none" style="width:1469px;height:744px;" version="1.1" viewBox="0 0 1469 744" width="1469px" zoomAndPan="magnify"><defs><filter height="300%" id="fqz5qh2ep1cpf" width="300%" x="-1" y="-1"><feGaussianBlur result="blurOut" stdDeviation="2.0"/><feColorMatrix in="blurOut" result="blurOut2" type="matrix" values="0 0 0 0 0 0 0 0 0 0 0 0 0 0 0 0 0 0 .4 0"/><feOffset dx="4.0" dy="4.0" in="blurOut2" result="blurOut3"/><feBlend in="SourceGraphic" in2="blurOut3" mode="normal"/></filter></defs><g><text fill="#000000" font-family="sans-serif" font-size="18" lengthAdjust="spacingAndGlyphs" textLength="256" x="613.5" y="17.4023">TERN Organisations Ontology</text><!--MD5=[7b84fb4983de52757c04053485336612]
class prov:Agent--><a href="http://www.w3.org/ns/prov#Agent" target="_top" title="http://www.w3.org/ns/prov#Agent" xlink:actuate="onRequest" xlink:href="http://www.w3.org/ns/prov#Agent" xlink:show="new" xlink:title="http://www.w3.org/ns/prov#Agent" xlink:type="simple"><rect fill="#FEFECE" filter="url(#fqz5qh2ep1cpf)" height="86.8652" id="prov:Agent" style="stroke: #A80036; stroke-width: 1.5;" width="176" x="985" y="312.1992"/><ellipse cx="1037.25" cy="328.1992" fill="#ADD1B2" rx="11" ry="11" style="stroke: #A80036; stroke-width: 1.0;"/><path d="M1039.7231,334.3423 Q1039.1421,334.6411 1038.5029,334.7905 Q1037.8638,334.9399 1037.1582,334.9399 Q1034.6514,334.9399 1033.3315,333.2881 Q1032.0117,331.6362 1032.0117,328.5151 Q1032.0117,325.3857 1033.3315,323.7339 Q1034.6514,322.082 1037.1582,322.082 Q1037.8638,322.082 1038.5112,322.2314 Q1039.1587,322.3809 1039.7231,322.6797 L1039.7231,325.4023 Q1039.0923,324.8213 1038.4988,324.5515 Q1037.9053,324.2817 1037.2744,324.2817 Q1035.9297,324.2817 1035.2449,325.3484 Q1034.5601,326.415 1034.5601,328.5151 Q1034.5601,330.6069 1035.2449,331.6736 Q1035.9297,332.7402 1037.2744,332.7402 Q1037.9053,332.7402 1038.4988,332.4705 Q1039.0923,332.2007 1039.7231,331.6196 Z "/><text fill="#000000" font-family="sans-serif" font-size="12" lengthAdjust="spacingAndGlyphs" textLength="63" x="1057.75" y="332.7344">prov:Agent</text><line style="stroke: #A80036; stroke-width: 1.5;" x1="986" x2="1160" y1="344.1992" y2="344.1992"/></a><a href="http://schema.org/telephone" target="_top" title="http://schema.org/telephone" xlink:actuate="onRequest" xlink:href="http://schema.org/telephone" xlink:show="new" xlink:title="http://schema.org/telephone" xlink:type="simple"><text fill="#0000FF" font-family="sans-serif" font-size="11" lengthAdjust="spacingAndGlyphs" text-decoration="underline" textLength="97" x="991" y="358.834">schema:telephone</text></a><text fill="#000000" font-family="sans-serif" font-size="11" lengthAdjust="spacingAndGlyphs" textLength="3" x="1091" y="358.834">:</text><a href="http://www.w3.org/2000/01/rdf-schema#Literal" target="_top" title="http://www.w3.org/2000/01/rdf-schema#Literal" xlink:actuate="onRequest" xlink:href="http://www.w3.org/2000/01/rdf-schema#Literal" xlink:show="new" xlink:title="http://www.w3.org/2000/01/rdf-schema#Literal" xlink:type="simple"><text fill="#0000FF" font-family="sans-serif" font-size="11" lengthAdjust="spacingAndGlyphs" text-decoration="underline" textLength="58" x="1097" y="358.834">rdfs:Literal</text></a><a href="http://schema.org/address" target="_top" title="http://schema.org/address" xlink:actuate="onRequest" xlink:href="http://schema.org/address" xlink:show="new" xlink:title="http://schema.org/address" xlink:type="simple"><text fill="#0000FF" font-family="sans-serif" font-size="11" lengthAdjust="spacingAndGlyphs" text-decoration="underline" textLength="87" x="991" y="371.7891">schema:address</text></a><text fill="#000000" font-family="sans-serif" font-size="11" lengthAdjust="spacingAndGlyphs" textLength="3" x="1081" y="371.7891">:</text><a href="http://www.w3.org/2001/XMLSchema#anyURI" target="_top" title="http://www.w3.org/2001/XMLSchema#anyURI" xlink:actuate="onRequest" xlink:href="http://www.w3.org/2001/XMLSchema#anyURI" xlink:show="new" xlink:title="http://www.w3.org/2001/XMLSchema#anyURI" xlink:type="simple"><text fill="#0000FF" font-family="sans-serif" font-size="11" lengthAdjust="spacingAndGlyphs" text-decoration="underline" textLength="60" x="1087" y="371.7891">xsd:anyURI</text></a><a href="http://schema.org/email" target="_top" title="http://schema.org/email" xlink:actuate="onRequest" xlink:href="http://schema.org/email" xlink:show="new" xlink:title="http://schema.org/email" xlink:type="simple"><text fill="#0000FF" font-family="sans-serif" font-size="11" lengthAdjust="spacingAndGlyphs" text-decoration="underline" textLength="72" x="991" y="384.7441">schema:email</text></a><text fill="#000000" font-family="sans-serif" font-size="11" lengthAdjust="spacingAndGlyphs" textLength="3" x="1066" y="384.7441">:</text><a href="http://www.w3.org/2000/01/rdf-schema#Literal" target="_top" title="http://www.w3.org/2000/01/rdf-schema#Literal" xlink:actuate="onRequest" xlink:href="http://www.w3.org/2000/01/rdf-schema#Literal" xlink:show="new" xlink:title="http://www.w3.org/2000/01/rdf-schema#Literal" xlink:type="simple"><text fill="#0000FF" font-family="sans-serif" font-size="11" lengthAdjust="spacingAndGlyphs" text-decoration="underline" textLength="58" x="1072" y="384.7441">rdfs:Literal</text></a><line style="stroke: #A80036; stroke-width: 1.5;" x1="986" x2="1160" y1="391.0645" y2="391.0645"/><!--MD5=[9bb605c19e18386e032ddc7bcbe77a0b]
class schema:Person--><a href="http://schema.org/Person" target="_top" title="http://schema.org/Person" xlink:actuate="onRequest" xlink:href="http://schema.org/Person" xlink:show="new" xlink:title="http://schema.org/Person" xlink:type="simple"><rect fill="#FEFECE" filter="url(#fqz5qh2ep1cpf)" height="73.9102" id="schema:Person" style="stroke: #A80036; stroke-width: 1.5;" width="203" x="704.5" y="460.1992"/><ellipse cx="758.25" cy="476.1992" fill="#ADD1B2" rx="11" ry="11" style="stroke: #A80036; stroke-width: 1.0;"/><path d="M760.7231,482.3423 Q760.1421,482.6411 759.5029,482.7905 Q758.8638,482.9399 758.1582,482.9399 Q755.6514,482.9399 754.3315,481.2881 Q753.0117,479.6362 753.0117,476.5151 Q753.0117,473.3857 754.3315,471.7339 Q755.6514,470.082 758.1582,470.082 Q758.8638,470.082 759.5112,470.2314 Q760.1587,470.3809 760.7231,470.6797 L760.7231,473.4023 Q760.0923,472.8213 759.4988,472.5515 Q758.9053,472.2817 758.2744,472.2817 Q756.9297,472.2817 756.2449,473.3484 Q755.5601,474.415 755.5601,476.5151 Q755.5601,478.6069 756.2449,479.6736 Q756.9297,480.7402 758.2744,480.7402 Q758.9053,480.7402 759.4988,480.4705 Q760.0923,480.2007 760.7231,479.6196 Z "/><text fill="#000000" font-family="sans-serif" font-size="12" lengthAdjust="spacingAndGlyphs" textLength="87" x="778.75" y="480.7344">schema:Person</text><line style="stroke: #A80036; stroke-width: 1.5;" x1="705.5" x2="906.5" y1="492.1992" y2="492.1992"/></a><a href="http://schema.org/honorificPrefix" target="_top" title="http://schema.org/honorificPrefix" xlink:actuate="onRequest" xlink:href="http://schema.org/honorificPrefix" xlink:show="new" xlink:title="http://schema.org/honorificPrefix" xlink:type="simple"><text fill="#0000FF" font-family="sans-serif" font-size="11" lengthAdjust="spacingAndGlyphs" text-decoration="underline" textLength="124" x="710.5" y="506.834">schema:honorificPrefix</text></a><text fill="#000000" font-family="sans-serif" font-size="11" lengthAdjust="spacingAndGlyphs" textLength="3" x="837.5" y="506.834">:</text><a href="http://www.w3.org/2000/01/rdf-schema#Literal" target="_top" title="http://www.w3.org/2000/01/rdf-schema#Literal" xlink:actuate="onRequest" xlink:href="http://www.w3.org/2000/01/rdf-schema#Literal" xlink:show="new" xlink:title="http://www.w3.org/2000/01/rdf-schema#Literal" xlink:type="simple"><text fill="#0000FF" font-family="sans-serif" font-size="11" lengthAdjust="spacingAndGlyphs" text-decoration="underline" textLength="58" x="843.5" y="506.834">rdfs:Literal</text></a><a href="http://schema.org/jobTitle" target="_top" title="http://schema.org/jobTitle" xlink:actuate="onRequest" xlink:href="http://schema.org/jobTitle" xlink:show="new" xlink:title="http://schema.org/jobTitle" xlink:type="simple"><text fill="#0000FF" font-family="sans-serif" font-size="11" lengthAdjust="spacingAndGlyphs" text-decoration="underline" textLength="84" x="710.5" y="519.7891">schema:jobTitle</text></a><text fill="#000000" font-family="sans-serif" font-size="11" lengthAdjust="spacingAndGlyphs" textLength="3" x="797.5" y="519.7891">:</text><a href="http://www.w3.org/2000/01/rdf-schema#Literal" target="_top" title="http://www.w3.org/2000/01/rdf-schema#Literal" xlink:actuate="onRequest" xlink:href="http://www.w3.org/2000/01/rdf-schema#Literal" xlink:show="new" xlink:title="http://www.w3.org/2000/01/rdf-schema#Literal" xlink:type="simple"><text fill="#0000FF" font-family="sans-serif" font-size="11" lengthAdjust="spacingAndGlyphs" text-decoration="underline" textLength="58" x="803.5" y="519.7891">rdfs:Literal</text></a><line style="stroke: #A80036; stroke-width: 1.5;" x1="705.5" x2="906.5" y1="526.1094" y2="526.1094"/><!--MD5=[e6b51ba952ae40359343c1f07188c8a2]
class schema:Organization--><a href="http://schema.org/Organization" target="_top" title="http://schema.org/Organization" xlink:actuate="onRequest" xlink:href="http://schema.org/Organization" xlink:show="new" xlink:title="http://schema.org/Organization" xlink:type="simple"><rect fill="#FEFECE" filter="url(#fqz5qh2ep1cpf)" height="99.8203" id="schema:Organization" style="stroke: #A80036; stroke-width: 1.5;" width="195" x="880.5" y="611.1992"/><ellipse cx="914.4" cy="627.1992" fill="#ADD1B2" rx="11" ry="11" style="stroke: #A80036; stroke-width: 1.0;"/><path d="M916.8731,633.3423 Q916.2921,633.6411 915.6529,633.7905 Q915.0138,633.9399 914.3082,633.9399 Q911.8014,633.9399 910.4815,632.2881 Q909.1617,630.6362 909.1617,627.5151 Q909.1617,624.3857 910.4815,622.7339 Q911.8014,621.082 914.3082,621.082 Q915.0138,621.082 915.6612,621.2314 Q916.3087,621.3809 916.8731,621.6797 L916.8731,624.4023 Q916.2423,623.8213 915.6488,623.5515 Q915.0553,623.2817 914.4244,623.2817 Q913.0797,623.2817 912.3949,624.3484 Q911.7101,625.415 911.7101,627.5151 Q911.7101,629.6069 912.3949,630.6736 Q913.0797,631.7402 914.4244,631.7402 Q915.0553,631.7402 915.6488,631.4705 Q916.2423,631.2007 916.8731,630.6196 Z "/><text fill="#000000" font-family="sans-serif" font-size="12" lengthAdjust="spacingAndGlyphs" textLength="121" x="932.6" y="631.7344">schema:Organization</text><line style="stroke: #A80036; stroke-width: 1.5;" x1="881.5" x2="1074.5" y1="643.1992" y2="643.1992"/></a><a href="https://w3id.org/tern/ontologies/org/agorID" target="_top" title="https://w3id.org/tern/ontologies/org/agorID" xlink:actuate="onRequest" xlink:href="https://w3id.org/tern/ontologies/org/agorID" xlink:show="new" xlink:title="https://w3id.org/tern/ontologies/org/agorID" xlink:type="simple"><text fill="#0000FF" font-family="sans-serif" font-size="11" lengthAdjust="spacingAndGlyphs" text-decoration="underline" textLength="86" x="886.5" y="657.834">tern-org:agorID</text></a><text fill="#000000" font-family="sans-serif" font-size="11" lengthAdjust="spacingAndGlyphs" textLength="3" x="975.5" y="657.834">:</text><a href="http://www.w3.org/2000/01/rdf-schema#Literal" target="_top" title="http://www.w3.org/2000/01/rdf-schema#Literal" xlink:actuate="onRequest" xlink:href="http://www.w3.org/2000/01/rdf-schema#Literal" xlink:show="new" xlink:title="http://www.w3.org/2000/01/rdf-schema#Literal" xlink:type="simple"><text fill="#0000FF" font-family="sans-serif" font-size="11" lengthAdjust="spacingAndGlyphs" text-decoration="underline" textLength="58" x="981.5" y="657.834">rdfs:Literal</text></a><a href="http://schema.org/taxID" target="_top" title="http://schema.org/taxID" xlink:actuate="onRequest" xlink:href="http://schema.org/taxID" xlink:show="new" xlink:title="http://schema.org/taxID" xlink:type="simple"><text fill="#0000FF" font-family="sans-serif" font-size="11" lengthAdjust="spacingAndGlyphs" text-decoration="underline" textLength="72" x="886.5" y="670.7891">schema:taxID</text></a><text fill="#000000" font-family="sans-serif" font-size="11" lengthAdjust="spacingAndGlyphs" textLength="3" x="961.5" y="670.7891">:</text><a href="http://www.w3.org/2000/01/rdf-schema#Literal" target="_top" title="http://www.w3.org/2000/01/rdf-schema#Literal" xlink:actuate="onRequest" xlink:href="http://www.w3.org/2000/01/rdf-schema#Literal" xlink:show="new" xlink:title="http://www.w3.org/2000/01/rdf-schema#Literal" xlink:type="simple"><text fill="#0000FF" font-family="sans-serif" font-size="11" lengthAdjust="spacingAndGlyphs" text-decoration="underline" textLength="58" x="967.5" y="670.7891">rdfs:Literal</text></a><a href="http://schema.org/foundingDate" target="_top" title="http://schema.org/foundingDate" xlink:actuate="onRequest" xlink:href="http://schema.org/foundingDate" xlink:show="new" xlink:title="http://schema.org/foundingDate" xlink:type="simple"><text fill="#0000FF" font-family="sans-serif" font-size="11" lengthAdjust="spacingAndGlyphs" text-decoration="underline" textLength="117" x="886.5" y="683.7441">schema:foundingDate</text></a><text fill="#000000" font-family="sans-serif" font-size="11" lengthAdjust="spacingAndGlyphs" textLength="3" x="1006.5" y="683.7441">:</text><a href="http://www.w3.org/2001/XMLSchema#date" target="_top" title="http://www.w3.org/2001/XMLSchema#date" xlink:actuate="onRequest" xlink:href="http://www.w3.org/2001/XMLSchema#date" xlink:show="new" xlink:title="http://www.w3.org/2001/XMLSchema#date" xlink:type="simple"><text fill="#0000FF" font-family="sans-serif" font-size="11" lengthAdjust="spacingAndGlyphs" text-decoration="underline" textLength="46" x="1012.5" y="683.7441">xsd:date</text></a><a href="http://schema.org/dissolutionDate" target="_top" title="http://schema.org/dissolutionDate" xlink:actuate="onRequest" xlink:href="http://schema.org/dissolutionDate" xlink:show="new" xlink:title="http://schema.org/dissolutionDate" xlink:type="simple"><text fill="#0000FF" font-family="sans-serif" font-size="11" lengthAdjust="spacingAndGlyphs" text-decoration="underline" textLength="128" x="886.5" y="696.6992">schema:dissolutionDate</text></a><text fill="#000000" font-family="sans-serif" font-size="11" lengthAdjust="spacingAndGlyphs" textLength="3" x="1017.5" y="696.6992">:</text><a href="http://www.w3.org/2001/XMLSchema#date" target="_top" title="http://www.w3.org/2001/XMLSchema#date" xlink:actuate="onRequest" xlink:href="http://www.w3.org/2001/XMLSchema#date" xlink:show="new" xlink:title="http://www.w3.org/2001/XMLSchema#date" xlink:type="simple"><text fill="#0000FF" font-family="sans-serif" font-size="11" lengthAdjust="spacingAndGlyphs" text-decoration="underline" textLength="46" x="1023.5" y="696.6992">xsd:date</text></a><line style="stroke: #A80036; stroke-width: 1.5;" x1="881.5" x2="1074.5" y1="703.0195" y2="703.0195"/><!--MD5=[0d584a71ebce8b757d02fdb0fcc922f5]
class prov:Activity--><rect fill="#FEFECE" filter="url(#fqz5qh2ep1cpf)" height="48" id="prov:Activity" style="stroke: #A80036; stroke-width: 1.5;" width="102" x="6" y="473.1992"/><ellipse cx="21" cy="489.1992" fill="#ADD1B2" rx="11" ry="11" style="stroke: #A80036; stroke-width: 1.0;"/><path d="M23.4731,495.3423 Q22.8921,495.6411 22.2529,495.7905 Q21.6138,495.9399 20.9082,495.9399 Q18.4014,495.9399 17.0815,494.2881 Q15.7617,492.6362 15.7617,489.5151 Q15.7617,486.3857 17.0815,484.7339 Q18.4014,483.082 20.9082,483.082 Q21.6138,483.082 22.2612,483.2314 Q22.9087,483.3809 23.4731,483.6797 L23.4731,486.4023 Q22.8423,485.8213 22.2488,485.5515 Q21.6553,485.2817 21.0244,485.2817 Q19.6797,485.2817 18.9949,486.3484 Q18.3101,487.415 18.3101,489.5151 Q18.3101,491.6069 18.9949,492.6736 Q19.6797,493.7402 21.0244,493.7402 Q21.6553,493.7402 22.2488,493.4705 Q22.8423,493.2007 23.4731,492.6196 Z "/><text fill="#000000" font-family="sans-serif" font-size="12" lengthAdjust="spacingAndGlyphs" textLength="70" x="35" y="493.7344">prov:Activity</text><line style="stroke: #A80036; stroke-width: 1.5;" x1="7" x2="107" y1="505.1992" y2="505.1992"/><line style="stroke: #A80036; stroke-width: 1.5;" x1="7" x2="107" y1="513.1992" y2="513.1992"/><!--MD5=[31024ad416b3695d828896b04dbb5ca7]
class org:ChangeEvent--><a href="http://www.w3.org/ns/org#ChangeEvent" target="_top" title="http://www.w3.org/ns/org#ChangeEvent" xlink:actuate="onRequest" xlink:href="http://www.w3.org/ns/org#ChangeEvent" xlink:show="new" xlink:title="http://www.w3.org/ns/org#ChangeEvent" xlink:type="simple"><rect fill="#FEFECE" filter="url(#fqz5qh2ep1cpf)" height="48" id="org:ChangeEvent" style="stroke: #A80036; stroke-width: 1.5;" width="129" x="246.5" y="637.1992"/><ellipse cx="261.5" cy="653.1992" fill="#ADD1B2" rx="11" ry="11" style="stroke: #A80036; stroke-width: 1.0;"/><path d="M263.9731,659.3423 Q263.3921,659.6411 262.7529,659.7905 Q262.1138,659.9399 261.4082,659.9399 Q258.9014,659.9399 257.5815,658.2881 Q256.2617,656.6362 256.2617,653.5151 Q256.2617,650.3857 257.5815,648.7339 Q258.9014,647.082 261.4082,647.082 Q262.1138,647.082 262.7612,647.2314 Q263.4087,647.3809 263.9731,647.6797 L263.9731,650.4023 Q263.3423,649.8213 262.7488,649.5515 Q262.1553,649.2817 261.5244,649.2817 Q260.1797,649.2817 259.4949,650.3484 Q258.8101,651.415 258.8101,653.5151 Q258.8101,655.6069 259.4949,656.6736 Q260.1797,657.7402 261.5244,657.7402 Q262.1553,657.7402 262.7488,657.4705 Q263.3423,657.2007 263.9731,656.6196 Z "/><text fill="#000000" font-family="sans-serif" font-size="12" lengthAdjust="spacingAndGlyphs" textLength="97" x="275.5" y="657.7344">org:ChangeEvent</text><line style="stroke: #A80036; stroke-width: 1.5;" x1="247.5" x2="374.5" y1="669.1992" y2="669.1992"/><line style="stroke: #A80036; stroke-width: 1.5;" x1="247.5" x2="374.5" y1="677.1992" y2="677.1992"/></a><!--MD5=[2f832380bb2e3040b847e6a328fd2488]
class schema:Thing--><a href="http://schema.org/Thing" target="_top" title="http://schema.org/Thing" xlink:actuate="onRequest" xlink:href="http://schema.org/Thing" xlink:show="new" xlink:title="http://schema.org/Thing" xlink:type="simple"><rect fill="#FEFECE" filter="url(#fqz5qh2ep1cpf)" height="112.7754" id="schema:Thing" style="stroke: #A80036; stroke-width: 1.5;" width="200" x="848" y="138.1992"/><ellipse cx="903.75" cy="154.1992" fill="#ADD1B2" rx="11" ry="11" style="stroke: #A80036; stroke-width: 1.0;"/><path d="M906.2231,160.3423 Q905.6421,160.6411 905.0029,160.7905 Q904.3638,160.9399 903.6582,160.9399 Q901.1514,160.9399 899.8315,159.2881 Q898.5117,157.6362 898.5117,154.5151 Q898.5117,151.3857 899.8315,149.7339 Q901.1514,148.082 903.6582,148.082 Q904.3638,148.082 905.0112,148.2314 Q905.6587,148.3809 906.2231,148.6797 L906.2231,151.4023 Q905.5923,150.8213 904.9988,150.5515 Q904.4053,150.2817 903.7744,150.2817 Q902.4297,150.2817 901.7449,151.3484 Q901.0601,152.415 901.0601,154.5151 Q901.0601,156.6069 901.7449,157.6736 Q902.4297,158.7402 903.7744,158.7402 Q904.4053,158.7402 904.9988,158.4705 Q905.5923,158.2007 906.2231,157.6196 Z "/><text fill="#000000" font-family="sans-serif" font-size="12" lengthAdjust="spacingAndGlyphs" textLength="80" x="924.25" y="158.7344">schema:Thing</text><line style="stroke: #A80036; stroke-width: 1.5;" x1="849" x2="1047" y1="170.1992" y2="170.1992"/></a><a href="http://schema.org/alternateName" target="_top" title="http://schema.org/alternateName" xlink:actuate="onRequest" xlink:href="http://schema.org/alternateName" xlink:show="new" xlink:title="http://schema.org/alternateName" xlink:type="simple"><text fill="#0000FF" font-family="sans-serif" font-size="11" lengthAdjust="spacingAndGlyphs" text-decoration="underline" textLength="121" x="854" y="184.834">schema:alternateName</text></a><text fill="#000000" font-family="sans-serif" font-size="11" lengthAdjust="spacingAndGlyphs" textLength="3" x="978" y="184.834">:</text><a href="http://www.w3.org/2000/01/rdf-schema#Literal" target="_top" title="http://www.w3.org/2000/01/rdf-schema#Literal" xlink:actuate="onRequest" xlink:href="http://www.w3.org/2000/01/rdf-schema#Literal" xlink:show="new" xlink:title="http://www.w3.org/2000/01/rdf-schema#Literal" xlink:type="simple"><text fill="#0000FF" font-family="sans-serif" font-size="11" lengthAdjust="spacingAndGlyphs" text-decoration="underline" textLength="58" x="984" y="184.834">rdfs:Literal</text></a><a href="http://schema.org/name" target="_top" title="http://schema.org/name" xlink:actuate="onRequest" xlink:href="http://schema.org/name" xlink:show="new" xlink:title="http://schema.org/name" xlink:type="simple"><text fill="#0000FF" font-family="sans-serif" font-size="11" lengthAdjust="spacingAndGlyphs" text-decoration="underline" textLength="73" x="854" y="197.7891">schema:name</text></a><text fill="#000000" font-family="sans-serif" font-size="11" lengthAdjust="spacingAndGlyphs" textLength="3" x="930" y="197.7891">:</text><a href="http://www.w3.org/2000/01/rdf-schema#Literal" target="_top" title="http://www.w3.org/2000/01/rdf-schema#Literal" xlink:actuate="onRequest" xlink:href="http://www.w3.org/2000/01/rdf-schema#Literal" xlink:show="new" xlink:title="http://www.w3.org/2000/01/rdf-schema#Literal" xlink:type="simple"><text fill="#0000FF" font-family="sans-serif" font-size="11" lengthAdjust="spacingAndGlyphs" text-decoration="underline" textLength="58" x="936" y="197.7891">rdfs:Literal</text></a><a href="http://schema.org/sameAs" target="_top" title="http://schema.org/sameAs" xlink:actuate="onRequest" xlink:href="http://schema.org/sameAs" xlink:show="new" xlink:title="http://schema.org/sameAs" xlink:type="simple"><text fill="#0000FF" font-family="sans-serif" font-size="11" lengthAdjust="spacingAndGlyphs" text-decoration="underline" textLength="86" x="854" y="210.7441">schema:sameAs</text></a><text fill="#000000" font-family="sans-serif" font-size="11" lengthAdjust="spacingAndGlyphs" textLength="3" x="943" y="210.7441">:</text><a href="http://www.w3.org/2001/XMLSchema#anyURI" target="_top" title="http://www.w3.org/2001/XMLSchema#anyURI" xlink:actuate="onRequest" xlink:href="http://www.w3.org/2001/XMLSchema#anyURI" xlink:show="new" xlink:title="http://www.w3.org/2001/XMLSchema#anyURI" xlink:type="simple"><text fill="#0000FF" font-family="sans-serif" font-size="11" lengthAdjust="spacingAndGlyphs" text-decoration="underline" textLength="60" x="949" y="210.7441">xsd:anyURI</text></a><a href="http://schema.org/url" target="_top" title="http://schema.org/url" xlink:actuate="onRequest" xlink:href="http://schema.org/url" xlink:show="new" xlink:title="http://schema.org/url" xlink:type="simple"><text fill="#0000FF" font-family="sans-serif" font-size="11" lengthAdjust="spacingAndGlyphs" text-decoration="underline" textLength="59" x="854" y="223.6992">schema:url</text></a><text fill="#000000" font-family="sans-serif" font-size="11" lengthAdjust="spacingAndGlyphs" textLength="3" x="916" y="223.6992">:</text><a href="http://www.w3.org/2001/XMLSchema#anyURI" target="_top" title="http://www.w3.org/2001/XMLSchema#anyURI" xlink:actuate="onRequest" xlink:href="http://www.w3.org/2001/XMLSchema#anyURI" xlink:show="new" xlink:title="http://www.w3.org/2001/XMLSchema#anyURI" xlink:type="simple"><text fill="#0000FF" font-family="sans-serif" font-size="11" lengthAdjust="spacingAndGlyphs" text-decoration="underline" textLength="60" x="922" y="223.6992">xsd:anyURI</text></a><a href="http://schema.org/description" target="_top" title="http://schema.org/description" xlink:actuate="onRequest" xlink:href="http://schema.org/description" xlink:show="new" xlink:title="http://schema.org/description" xlink:type="simple"><text fill="#0000FF" font-family="sans-serif" font-size="11" lengthAdjust="spacingAndGlyphs" text-decoration="underline" textLength="105" x="854" y="236.6543">schema:description</text></a><text fill="#000000" font-family="sans-serif" font-size="11" lengthAdjust="spacingAndGlyphs" textLength="3" x="962" y="236.6543">:</text><a href="http://www.w3.org/2000/01/rdf-schema#Literal" target="_top" title="http://www.w3.org/2000/01/rdf-schema#Literal" xlink:actuate="onRequest" xlink:href="http://www.w3.org/2000/01/rdf-schema#Literal" xlink:show="new" xlink:title="http://www.w3.org/2000/01/rdf-schema#Literal" xlink:type="simple"><text fill="#0000FF" font-family="sans-serif" font-size="11" lengthAdjust="spacingAndGlyphs" text-decoration="underline" textLength="58" x="968" y="236.6543">rdfs:Literal</text></a><line style="stroke: #A80036; stroke-width: 1.5;" x1="849" x2="1047" y1="242.9746" y2="242.9746"/><!--MD5=[ded7aadd1ddfde0c83332d5e2652beaf]
class org:Organization--><rect fill="#FEFECE" filter="url(#fqz5qh2ep1cpf)" height="48" id="org:Organization" style="stroke: #A80036; stroke-width: 1.5;" width="128" x="451" y="473.1992"/><ellipse cx="466" cy="489.1992" fill="#ADD1B2" rx="11" ry="11" style="stroke: #A80036; stroke-width: 1.0;"/><path d="M468.4731,495.3423 Q467.8921,495.6411 467.2529,495.7905 Q466.6138,495.9399 465.9082,495.9399 Q463.4014,495.9399 462.0815,494.2881 Q460.7617,492.6362 460.7617,489.5151 Q460.7617,486.3857 462.0815,484.7339 Q463.4014,483.082 465.9082,483.082 Q466.6138,483.082 467.2612,483.2314 Q467.9087,483.3809 468.4731,483.6797 L468.4731,486.4023 Q467.8423,485.8213 467.2488,485.5515 Q466.6553,485.2817 466.0244,485.2817 Q464.6797,485.2817 463.9949,486.3484 Q463.3101,487.415 463.3101,489.5151 Q463.3101,491.6069 463.9949,492.6736 Q464.6797,493.7402 466.0244,493.7402 Q466.6553,493.7402 467.2488,493.4705 Q467.8423,493.2007 468.4731,492.6196 Z "/><text fill="#000000" font-family="sans-serif" font-size="12" lengthAdjust="spacingAndGlyphs" textLength="96" x="480" y="493.7344">org:Organization</text><line style="stroke: #A80036; stroke-width: 1.5;" x1="452" x2="578" y1="505.1992" y2="505.1992"/><line style="stroke: #A80036; stroke-width: 1.5;" x1="452" x2="578" y1="513.1992" y2="513.1992"/><!--MD5=[f071ecb23dbf121833784480fda18997]
class owl:Thing--><rect fill="#FEFECE" filter="url(#fqz5qh2ep1cpf)" height="48" id="owl:Thing" style="stroke: #A80036; stroke-width: 1.5;" width="87" x="904.5" y="29.1992"/><ellipse cx="919.5" cy="45.1992" fill="#ADD1B2" rx="11" ry="11" style="stroke: #A80036; stroke-width: 1.0;"/><path d="M921.9731,51.3423 Q921.3921,51.6411 920.7529,51.7905 Q920.1138,51.9399 919.4082,51.9399 Q916.9014,51.9399 915.5815,50.2881 Q914.2617,48.6362 914.2617,45.5151 Q914.2617,42.3857 915.5815,40.7339 Q916.9014,39.082 919.4082,39.082 Q920.1138,39.082 920.7612,39.2314 Q921.4087,39.3809 921.9731,39.6797 L921.9731,42.4023 Q921.3423,41.8213 920.7488,41.5515 Q920.1553,41.2817 919.5244,41.2817 Q918.1797,41.2817 917.4949,42.3484 Q916.8101,43.415 916.8101,45.5151 Q916.8101,47.6069 917.4949,48.6736 Q918.1797,49.7402 919.5244,49.7402 Q920.1553,49.7402 920.7488,49.4705 Q921.3423,49.2007 921.9731,48.6196 Z "/><text fill="#000000" font-family="sans-serif" font-size="12" lengthAdjust="spacingAndGlyphs" textLength="55" x="933.5" y="49.7344">owl:Thing</text><line style="stroke: #A80036; stroke-width: 1.5;" x1="905.5" x2="990.5" y1="61.1992" y2="61.1992"/><line style="stroke: #A80036; stroke-width: 1.5;" x1="905.5" x2="990.5" y1="69.1992" y2="69.1992"/><!--MD5=[2ce4146680efe56e29331621fe5f87a0]
class foaf:Person--><rect fill="#FEFECE" filter="url(#fqz5qh2ep1cpf)" height="48" id="foaf:Person" style="stroke: #A80036; stroke-width: 1.5;" width="97" x="757.5" y="331.6992"/><ellipse cx="772.5" cy="347.6992" fill="#ADD1B2" rx="11" ry="11" style="stroke: #A80036; stroke-width: 1.0;"/><path d="M774.9731,353.8423 Q774.3921,354.1411 773.7529,354.2905 Q773.1138,354.4399 772.4082,354.4399 Q769.9014,354.4399 768.5815,352.7881 Q767.2617,351.1362 767.2617,348.0151 Q767.2617,344.8857 768.5815,343.2339 Q769.9014,341.582 772.4082,341.582 Q773.1138,341.582 773.7612,341.7314 Q774.4087,341.8809 774.9731,342.1797 L774.9731,344.9023 Q774.3423,344.3213 773.7488,344.0515 Q773.1553,343.7817 772.5244,343.7817 Q771.1797,343.7817 770.4949,344.8484 Q769.8101,345.915 769.8101,348.0151 Q769.8101,350.1069 770.4949,351.1736 Q771.1797,352.2402 772.5244,352.2402 Q773.1553,352.2402 773.7488,351.9705 Q774.3423,351.7007 774.9731,351.1196 Z "/><text fill="#000000" font-family="sans-serif" font-size="12" lengthAdjust="spacingAndGlyphs" textLength="65" x="786.5" y="352.2344">foaf:Person</text><line style="stroke: #A80036; stroke-width: 1.5;" x1="758.5" x2="853.5" y1="363.6992" y2="363.6992"/><line style="stroke: #A80036; stroke-width: 1.5;" x1="758.5" x2="853.5" y1="371.6992" y2="371.6992"/><!--MD5=[84612bed34b900519fce1dd1c39e16c2]
class foaf:Agent--><rect fill="#FEFECE" filter="url(#fqz5qh2ep1cpf)" height="48" id="foaf:Agent" style="stroke: #A80036; stroke-width: 1.5;" width="91" x="1083.5" y="170.6992"/><ellipse cx="1098.5" cy="186.6992" fill="#ADD1B2" rx="11" ry="11" style="stroke: #A80036; stroke-width: 1.0;"/><path d="M1100.9731,192.8423 Q1100.3921,193.1411 1099.7529,193.2905 Q1099.1138,193.4399 1098.4082,193.4399 Q1095.9014,193.4399 1094.5815,191.7881 Q1093.2617,190.1362 1093.2617,187.0151 Q1093.2617,183.8857 1094.5815,182.2339 Q1095.9014,180.582 1098.4082,180.582 Q1099.1138,180.582 1099.7612,180.7314 Q1100.4087,180.8809 1100.9731,181.1797 L1100.9731,183.9023 Q1100.3423,183.3213 1099.7488,183.0515 Q1099.1553,182.7817 1098.5244,182.7817 Q1097.1797,182.7817 1096.4949,183.8484 Q1095.8101,184.915 1095.8101,187.0151 Q1095.8101,189.1069 1096.4949,190.1736 Q1097.1797,191.2402 1098.5244,191.2402 Q1099.1553,191.2402 1099.7488,190.9705 Q1100.3423,190.7007 1100.9731,190.1196 Z "/><text fill="#000000" font-family="sans-serif" font-size="12" lengthAdjust="spacingAndGlyphs" textLength="59" x="1112.5" y="191.2344">foaf:Agent</text><line style="stroke: #A80036; stroke-width: 1.5;" x1="1084.5" x2="1173.5" y1="202.6992" y2="202.6992"/><line style="stroke: #A80036; stroke-width: 1.5;" x1="1084.5" x2="1173.5" y1="210.6992" y2="210.6992"/><!--MD5=[8104415eb9b15b9b076e8c828c60077c]
reverse link prov:Agent to schema:Person--><path d="M972.6304,408.8913 C940.3997,425.9724 905.4187,444.511 875.8677,460.1719 " fill="none" id="prov:Agent&lt;-schema:Person" style="stroke: #A80036; stroke-width: 1.0;"/><polygon fill="none" points="969.7629,402.4888,990.7126,399.3085,976.3187,414.859,969.7629,402.4888" style="stroke: #A80036; stroke-width: 1.0;"/><!--MD5=[bfd902e7eb95dd2400e07c001b8f09bc]
reverse link prov:Agent to schema:Organization--><path d="M1180.0091,383.5782 C1218.7289,399.3967 1258.4405,423.6186 1281,460.1992 C1298.2638,488.1928 1297.8456,505.952 1281,534.1992 C1238.6385,605.232 1147.0574,636.5416 1075.6035,650.3384 " fill="none" id="prov:Agent&lt;-schema:Organization" style="stroke: #A80036; stroke-width: 1.0;"/><polygon fill="none" points="1177.4041,390.0771,1161.1603,376.4704,1182.3439,376.9775,1177.4041,390.0771" style="stroke: #A80036; stroke-width: 1.0;"/><!--MD5=[dc9d31da5cb6b95c94004b4784b726e4]
link schema:Organization to prov:Agent--><path d="M1047.5651,610.9231 C1070.6849,590.0803 1093.6627,563.8196 1106,534.1992 C1123.4528,492.2969 1110.8205,441.041 1096.4318,404.221 " fill="none" id="schema:Organization-&gt;prov:Agent" style="stroke: #A80036; stroke-width: 1.0;"/><polygon fill="#A80036" points="1094.4857,399.351,1094.111,409.1927,1096.3411,403.994,1101.5398,406.2241,1094.4857,399.351" style="stroke: #A80036; stroke-width: 1.0;"/><a href="http://schema.org/member" target="_top" title="http://schema.org/member" xlink:actuate="onRequest" xlink:href="http://schema.org/member" xlink:show="new" xlink:title="http://schema.org/member" xlink:type="simple"><text fill="#0000FF" font-family="sans-serif" font-size="13" lengthAdjust="spacingAndGlyphs" text-decoration="underline" textLength="103" x="1115" y="502.2676">schema:member</text></a><!--MD5=[5a5eeb81bc14ca6446a0b344620b2ea6]
link prov:Agent to schema:Organization--><path d="M1020.0121,399.3438 C1003.2713,416.382 986.8414,437.3301 978,460.1992 C959.9228,506.9579 962.1344,564.535 967.5566,606.0636 " fill="none" id="prov:Agent-&gt;schema:Organization" style="stroke: #A80036; stroke-width: 1.0;"/><polygon fill="#A80036" points="968.2326,611.0467,970.9864,601.5907,967.5605,606.0921,963.059,602.6661,968.2326,611.0467" style="stroke: #A80036; stroke-width: 1.0;"/><a href="http://schema.org/memberOf" target="_top" title="http://schema.org/memberOf" xlink:actuate="onRequest" xlink:href="http://schema.org/memberOf" xlink:show="new" xlink:title="http://schema.org/memberOf" xlink:type="simple"><text fill="#0000FF" font-family="sans-serif" font-size="13" lengthAdjust="spacingAndGlyphs" text-decoration="underline" textLength="118" x="979" y="502.2676">schema:memberOf</text></a><!--MD5=[d9134688411b48663530f2c7087d6422]
reverse link prov:Activity to org:ChangeEvent--><path d="M69.5764,540.4388 C75.5962,554.9655 84.1494,570.2437 96,581.1992 C137.6732,619.725 199.5699,640.1487 246.2633,650.6858 " fill="none" id="prov:Activity&lt;-org:ChangeEvent" style="stroke: #A80036; stroke-width: 1.0;"/><polygon fill="none" points="62.9729,542.7611,62.8662,521.5717,76.1635,538.0698,62.9729,542.7611" style="stroke: #A80036; stroke-width: 1.0;"/><!--MD5=[a7be702794f8bb818887cfb4b504a32c]
reverse link schema:Thing to prov:Agent--><path d="M1004.6627,267.6808 C1016.4422,282.8528 1028.5008,298.3842 1039.1449,312.0938 " fill="none" id="schema:Thing&lt;-prov:Agent" style="stroke: #A80036; stroke-width: 1.0;"/><polygon fill="none" points="998.8064,271.5522,992.0703,251.4618,1009.8648,262.9666,998.8064,271.5522" style="stroke: #A80036; stroke-width: 1.0;"/><!--MD5=[f2141d0af6a1028b9a27692f052e2fe7]
link schema:Organization to schema:Organization--><path d="M1075.6484,653.2392 C1095.9215,654.0771 1110.5,656.7304 1110.5,661.1992 C1110.5,665.2839 1098.3196,667.8518 1080.7433,668.9029 " fill="none" id="schema:Organization-&gt;schema:Organization" style="stroke: #A80036; stroke-width: 1.0;"/><polygon fill="#A80036" points="1075.6484,669.1592,1084.8381,672.7019,1080.6421,668.9079,1084.436,664.712,1075.6484,669.1592" style="stroke: #A80036; stroke-width: 1.0;"/><a href="http://schema.org/parentOrganization" target="_top" title="http://schema.org/parentOrganization" xlink:actuate="onRequest" xlink:href="http://schema.org/parentOrganization" xlink:show="new" xlink:title="http://schema.org/parentOrganization" xlink:type="simple"><text fill="#0000FF" font-family="sans-serif" font-size="13" lengthAdjust="spacingAndGlyphs" text-decoration="underline" textLength="173" x="1116.5" y="666.2676">schema:parentOrganization</text></a><!--MD5=[f2141d0af6a1028b9a27692f052e2fe7]
link schema:Organization to schema:Organization--><path d="M1075.5668,647.0681 C1171.1179,641.3209 1295.5,646.0312 1295.5,661.1992 C1295.5,676.1005 1175.4523,680.9087 1080.6315,675.6237 " fill="none" id="schema:Organization-&gt;schema:Organization-1" style="stroke: #A80036; stroke-width: 1.0;"/><polygon fill="#A80036" points="1075.5668,675.3303,1084.3204,679.8441,1080.5584,675.6195,1084.7831,671.8575,1075.5668,675.3303" style="stroke: #A80036; stroke-width: 1.0;"/><a href="http://schema.org/subOrganization" target="_top" title="http://schema.org/subOrganization" xlink:actuate="onRequest" xlink:href="http://schema.org/subOrganization" xlink:show="new" xlink:title="http://schema.org/subOrganization" xlink:type="simple"><text fill="#0000FF" font-family="sans-serif" font-size="13" lengthAdjust="spacingAndGlyphs" text-decoration="underline" textLength="156" x="1301.5" y="666.2676">schema:subOrganization</text></a><!--MD5=[0254313810925c8f4f8448c0a20c83f6]
link org:ChangeEvent to org:Organization--><path d="M246.3398,652.9072 C173.1771,640.9289 69.3841,614.4851 112,564.1992 C133.2999,539.0657 335.967,515.1221 445.5143,503.8806 " fill="none" id="org:ChangeEvent-&gt;org:Organization" style="stroke: #A80036; stroke-width: 1.0;"/><polygon fill="#A80036" points="450.6594,503.3549,441.2994,500.2905,445.6853,503.8632,442.1126,508.2491,450.6594,503.3549" style="stroke: #A80036; stroke-width: 1.0;"/><a href="http://www.w3.org/ns/org#originalOrganization" target="_top" title="http://www.w3.org/ns/org#originalOrganization" xlink:actuate="onRequest" xlink:href="http://www.w3.org/ns/org#originalOrganization" xlink:show="new" xlink:title="http://www.w3.org/ns/org#originalOrganization" xlink:type="simple"><text fill="#0000FF" font-family="sans-serif" font-size="13" lengthAdjust="spacingAndGlyphs" text-decoration="underline" textLength="154" x="113" y="577.7676">org:originalOrganization</text></a><!--MD5=[63722a7cecdcc7361551ff571ae2e5aa]
link org:Organization to org:ChangeEvent--><path d="M508.5815,521.5056 C502.6873,539.8353 492.3464,564.5761 476,581.1992 C449.7254,607.9185 412.7285,626.9801 380.4247,639.7772 " fill="none" id="org:Organization-&gt;org:ChangeEvent" style="stroke: #A80036; stroke-width: 1.0;"/><polygon fill="#A80036" points="375.6945,641.62,385.5326,642.0799,380.3534,639.8049,382.6284,634.6256,375.6945,641.62" style="stroke: #A80036; stroke-width: 1.0;"/><a href="http://www.w3.org/ns/org#resultedFrom" target="_top" title="http://www.w3.org/ns/org#resultedFrom" xlink:actuate="onRequest" xlink:href="http://www.w3.org/ns/org#resultedFrom" xlink:show="new" xlink:title="http://www.w3.org/ns/org#resultedFrom" xlink:type="simple"><text fill="#0000FF" font-family="sans-serif" font-size="13" lengthAdjust="spacingAndGlyphs" text-decoration="underline" textLength="108" x="490" y="577.7676">org:resultedFrom</text></a><!--MD5=[63722a7cecdcc7361551ff571ae2e5aa]
link org:Organization to org:ChangeEvent--><path d="M571.0601,521.2756 C599.353,536.906 624.3553,558.5306 607,581.1992 C579.6493,616.9233 459.3608,640.3501 380.7944,652.1436 " fill="none" id="org:Organization-&gt;org:ChangeEvent-1" style="stroke: #A80036; stroke-width: 1.0;"/><polygon fill="#A80036" points="375.6812,652.9037,385.1716,655.5367,380.6268,652.1684,383.9951,647.6237,375.6812,652.9037" style="stroke: #A80036; stroke-width: 1.0;"/><a href="http://www.w3.org/ns/org#changedBy" target="_top" title="http://www.w3.org/ns/org#changedBy" xlink:actuate="onRequest" xlink:href="http://www.w3.org/ns/org#changedBy" xlink:show="new" xlink:title="http://www.w3.org/ns/org#changedBy" xlink:type="simple"><text fill="#0000FF" font-family="sans-serif" font-size="13" lengthAdjust="spacingAndGlyphs" text-decoration="underline" textLength="92" x="614" y="577.7676">org:changedBy</text></a><!--MD5=[0254313810925c8f4f8448c0a20c83f6]
link org:ChangeEvent to org:Organization--><path d="M301.1044,636.8522 C294.2257,615.6231 288.7461,585.0473 304,564.1992 C321.1009,540.8267 391.1884,521.7536 445.9521,510.0176 " fill="none" id="org:ChangeEvent-&gt;org:Organization-1" style="stroke: #A80036; stroke-width: 1.0;"/><polygon fill="#A80036" points="450.8668,508.9751,441.2327,506.9298,445.9756,510.0127,442.8928,514.7557,450.8668,508.9751" style="stroke: #A80036; stroke-width: 1.0;"/><a href="http://www.w3.org/ns/org#resultingOrganization" target="_top" title="http://www.w3.org/ns/org#resultingOrganization" xlink:actuate="onRequest" xlink:href="http://www.w3.org/ns/org#resultingOrganization" xlink:show="new" xlink:title="http://www.w3.org/ns/org#resultingOrganization" xlink:type="simple"><text fill="#0000FF" font-family="sans-serif" font-size="13" lengthAdjust="spacingAndGlyphs" text-decoration="underline" textLength="162" x="305" y="577.7676">org:resultingOrganization</text></a><!--MD5=[b1fc62049c6f39e5f2648e379080542d]
link schema:Person to schema:Organization--><path d="M813.6927,534.4374 C818.3868,550.1928 825.7292,567.9296 837,581.1992 C847.8979,594.0298 861.4004,605.2319 875.6955,614.8662 " fill="none" id="schema:Person-&gt;schema:Organization" style="stroke: #A80036; stroke-width: 1.0;"/><polygon fill="#A80036" points="880.1553,617.8059,874.8422,609.5131,875.9806,615.0542,870.4395,616.1926,880.1553,617.8059" style="stroke: #A80036; stroke-width: 1.0;"/><a href="http://schema.org/affiliation" target="_top" title="http://schema.org/affiliation" xlink:actuate="onRequest" xlink:href="http://schema.org/affiliation" xlink:show="new" xlink:title="http://schema.org/affiliation" xlink:type="simple"><text fill="#0000FF" font-family="sans-serif" font-size="13" lengthAdjust="spacingAndGlyphs" text-decoration="underline" textLength="113" x="838" y="577.7676">schema:affiliation</text></a><!--MD5=[6b31745681ac5e1520023c018d5950d6]
link owl:Thing to schema:Thing--><path d="M948,77.2027 C948,93.9187 948,116.9362 948,138.171 " fill="none" id="owl:Thing-schema:Thing" style="stroke: #A80036; stroke-width: 1.0; stroke-dasharray: 7.0,7.0;"/><!--MD5=[b96945f13448f3425ae3990a362539e0]
link foaf:Person to schema:Person--><path d="M806,379.7027 C806,401.7016 806,434.6145 806,460.0145 " fill="none" id="foaf:Person-schema:Person" style="stroke: #A80036; stroke-width: 1.0; stroke-dasharray: 7.0,7.0;"/><!--MD5=[25d5f4663e2ce93690f2ae73d18a916f]
link org:Organization to schema:Organization--><path d="M579.1185,518.1345 C618.4377,531.1075 669.7483,548.2787 715,564.1992 C769.86,583.5001 830.8105,605.918 880.2116,624.3373 " fill="none" id="org:Organization-schema:Organization" style="stroke: #A80036; stroke-width: 1.0; stroke-dasharray: 7.0,7.0;"/><!--MD5=[ffe472b5f023ccaee0c24058bc990e09]
link foaf:Agent to prov:Agent--><path d="M1120.6162,218.8025 C1112.0729,243.3647 1098.6331,282.004 1088.2075,311.9777 " fill="none" id="foaf:Agent-prov:Agent" style="stroke: #A80036; stroke-width: 1.0; stroke-dasharray: 7.0,7.0;"/><text fill="#888888" font-family="sans-serif" font-size="10" lengthAdjust="spacingAndGlyphs" textLength="176" x="653.5" y="730.8672">By Edmond Chuc (e.chuc@uq.edu.au)</text><!--MD5=[2bbfce0de4e0f27febeb7a0ba647bcc5]
@startuml
title TERN Organisations Ontology
"prov:Agent" <|- - "schema:Person"
"prov:Agent" <|- - "schema:Organization"
"prov:Activity" <|- - "org:ChangeEvent"
"schema:Thing" <|- - "prov:Agent"
Class "schema:Thing" [[http://schema.org/Thing]] {
[[http://schema.org/alternateName schema:alternateName]] : [[http://www.w3.org/2000/01/rdf-schema#Literal rdfs:Literal]]
[[http://schema.org/name schema:name]] : [[http://www.w3.org/2000/01/rdf-schema#Literal rdfs:Literal]]
[[http://schema.org/sameAs schema:sameAs]] : [[http://www.w3.org/2001/XMLSchema#anyURI xsd:anyURI]]
[[http://schema.org/url schema:url]] : [[http://www.w3.org/2001/XMLSchema#anyURI xsd:anyURI]]
[[http://schema.org/description schema:description]] : [[http://www.w3.org/2000/01/rdf-schema#Literal rdfs:Literal]]
}
Class "schema:Person" [[http://schema.org/Person]] {
[[http://schema.org/honorificPrefix schema:honorificPrefix]] : [[http://www.w3.org/2000/01/rdf-schema#Literal rdfs:Literal]]
[[http://schema.org/jobTitle schema:jobTitle]] : [[http://www.w3.org/2000/01/rdf-schema#Literal rdfs:Literal]]
}
Class "schema:Organization" [[http://schema.org/Organization]] {
[[https://w3id.org/tern/ontologies/org/agorID tern-org:agorID]] : [[http://www.w3.org/2000/01/rdf-schema#Literal rdfs:Literal]]
[[http://schema.org/taxID schema:taxID]] : [[http://www.w3.org/2000/01/rdf-schema#Literal rdfs:Literal]]
[[http://schema.org/foundingDate schema:foundingDate]] : [[http://www.w3.org/2001/XMLSchema#date xsd:date]]
[[http://schema.org/dissolutionDate schema:dissolutionDate]] : [[http://www.w3.org/2001/XMLSchema#date xsd:date]]
}
Class "org:ChangeEvent" [[http://www.w3.org/ns/org#ChangeEvent]] {
}
Class "prov:Agent" [[http://www.w3.org/ns/prov#Agent]] {
[[http://schema.org/telephone schema:telephone]] : [[http://www.w3.org/2000/01/rdf-schema#Literal rdfs:Literal]]
[[http://schema.org/address schema:address]] : [[http://www.w3.org/2001/XMLSchema#anyURI xsd:anyURI]]
[[http://schema.org/email schema:email]] : [[http://www.w3.org/2000/01/rdf-schema#Literal rdfs:Literal]]
}
"schema:Organization" - -> "schema:Organization" : "[[http://schema.org/parentOrganization schema:parentOrganization]]"
"org:ChangeEvent" - -> "org:Organization" : "[[http://www.w3.org/ns/org#originalOrganization org:originalOrganization]]"
"schema:Organization" - -> "prov:Agent" : "[[http://schema.org/member schema:member]]"
"schema:Organization" - -> "schema:Organization" : "[[http://schema.org/subOrganization schema:subOrganization]]"
"org:Organization" - -> "org:ChangeEvent" : "[[http://www.w3.org/ns/org#resultedFrom org:resultedFrom]]"
"org:Organization" - -> "org:ChangeEvent" : "[[http://www.w3.org/ns/org#changedBy org:changedBy]]"
"schema:Person" - -> "schema:Organization" : "[[http://schema.org/affiliation schema:affiliation]]"
"prov:Agent" - -> "schema:Organization" : "[[http://schema.org/memberOf schema:memberOf]]"
"org:ChangeEvent" - -> "org:Organization" : "[[http://www.w3.org/ns/org#resultingOrganization org:resultingOrganization]]"
"owl:Thing" .. "schema:Thing"
"foaf:Person" .. "schema:Person"
"org:Organization" .. "schema:Organization"
"foaf:Agent" .. "prov:Agent"
center footer By Edmond Chuc (e.chuc@uq.edu.au) 
@enduml

PlantUML version 1.2019.11(Sun Sep 22 20:02:15 AEST 2019)
(GPL source distribution)
Java Runtime: OpenJDK Runtime Environment
JVM: OpenJDK 64-Bit Server VM
Java Version: 1.8.0_212-b03
Operating System: Mac OS X
Default Encoding: UTF-8
Language: en
Country: AU
--></g></svg>