<?xml version="1.0" encoding="UTF-8" standalone="no"?><svg xmlns="http://www.w3.org/2000/svg" xmlns:xlink="http://www.w3.org/1999/xlink" contentScriptType="application/ecmascript" contentStyleType="text/css" height="1099px" preserveAspectRatio="none" style="width:1697px;height:1099px;" version="1.1" viewBox="0 0 1697 1099" width="1697px" zoomAndPan="magnify"><defs><filter height="300%" id="f1dh4e689rukgg" width="300%" x="-1" y="-1"><feGaussianBlur result="blurOut" stdDeviation="2.0"/><feColorMatrix in="blurOut" result="blurOut2" type="matrix" values="0 0 0 0 0 0 0 0 0 0 0 0 0 0 0 0 0 0 .4 0"/><feOffset dx="4.0" dy="4.0" in="blurOut2" result="blurOut3"/><feBlend in="SourceGraphic" in2="blurOut3" mode="normal"/></filter></defs><g><text fill="#888888" font-family="sans-serif" font-size="10" lengthAdjust="spacingAndGlyphs" textLength="214" x="1471" y="9.2822">Creator: Edmond Chuc (e.chuc@uq.edu.au)</text><text fill="#000000" font-family="sans-serif" font-size="18" lengthAdjust="spacingAndGlyphs" textLength="262" x="711.5" y="28.3486">TERN Organisations Ontology</text><!--MD5=[7b84fb4983de52757c04053485336612]
class prov:Agent--><a href="http://www.w3.org/ns/prov#Agent" target="_top" title="http://www.w3.org/ns/prov#Agent" xlink:actuate="onRequest" xlink:href="http://www.w3.org/ns/prov#Agent" xlink:show="new" xlink:title="http://www.w3.org/ns/prov#Agent" xlink:type="simple"><rect fill="#FEFECE" filter="url(#f1dh4e689rukgg)" height="73.6094" id="prov:Agent" style="stroke: #A80036; stroke-width: 1.5;" width="186" x="836.513" y="338.5938"/><ellipse cx="891.263" cy="354.5938" fill="#ADD1B2" rx="11" ry="11" style="stroke: #A80036; stroke-width: 1.0;"/><path d="M893.6068,350.2656 L893.7786,350.3438 C893.9974,350.0313 894.2005,349.9375 894.4974,349.9375 C894.7943,349.9375 895.0755,350.0781 895.2318,350.3438 C895.3255,350.5 895.3411,350.625 895.3411,351.0625 L895.3411,352.4844 C895.3411,352.9063 895.3099,353.0938 895.2005,353.25 C895.0286,353.4688 894.763,353.6094 894.4974,353.6094 C894.2786,353.6094 894.0443,353.5 893.9036,353.3594 C893.763,353.2344 893.7318,353.1094 893.6693,352.7031 C893.5755,352.2969 893.4036,352.0781 892.9193,351.7969 C892.4505,351.5469 891.8411,351.3906 891.263,351.3906 C889.5286,351.3906 888.2786,352.7031 888.2786,354.4844 L888.2786,355.5781 C888.2786,357.2813 889.5755,358.375 891.6224,358.375 C892.388,358.375 893.0755,358.25 893.4974,357.9844 C893.6849,357.8906 893.6849,357.8906 894.138,357.4063 C894.3255,357.2188 894.5286,357.1406 894.7474,357.1406 C895.2161,357.1406 895.6068,357.5313 895.6068,357.9844 C895.6068,358.375 895.2786,358.8281 894.7005,359.2344 C893.9505,359.7813 892.7943,360.0781 891.5755,360.0781 C888.6849,360.0781 886.5755,358.1875 886.5755,355.6094 L886.5755,354.4844 C886.5755,351.7656 888.5755,349.6875 891.2005,349.6875 C892.0755,349.6875 892.6693,349.8281 893.6068,350.2656 Z "/><text fill="#000000" font-family="sans-serif" font-size="12" lengthAdjust="spacingAndGlyphs" textLength="68" x="911.763" y="358.748">prov:Agent</text><line style="stroke: #A80036; stroke-width: 1.5;" x1="837.513" x2="1021.513" y1="370.5938" y2="370.5938"/></a><a href="http://schema.org/telephone" target="_top" title="http://schema.org/telephone" xlink:actuate="onRequest" xlink:href="http://schema.org/telephone" xlink:show="new" xlink:title="http://schema.org/telephone" xlink:type="simple"><text fill="#0000FF" font-family="sans-serif" font-size="11" lengthAdjust="spacingAndGlyphs" text-decoration="underline" textLength="105" x="842.513" y="384.8042">schema:telephone</text></a><text fill="#000000" font-family="sans-serif" font-size="11" lengthAdjust="spacingAndGlyphs" textLength="4" x="951.513" y="384.8042">:</text><a href="http://www.w3.org/2001/XMLSchema#string" target="_top" title="http://www.w3.org/2001/XMLSchema#string" xlink:actuate="onRequest" xlink:href="http://www.w3.org/2001/XMLSchema#string" xlink:show="new" xlink:title="http://www.w3.org/2001/XMLSchema#string" xlink:type="simple"><text fill="#0000FF" font-family="sans-serif" font-size="11" lengthAdjust="spacingAndGlyphs" text-decoration="underline" textLength="57" x="959.513" y="384.8042">xsd:string</text></a><a href="http://schema.org/email" target="_top" title="http://schema.org/email" xlink:actuate="onRequest" xlink:href="http://schema.org/email" xlink:show="new" xlink:title="http://schema.org/email" xlink:type="simple"><text fill="#0000FF" font-family="sans-serif" font-size="11" lengthAdjust="spacingAndGlyphs" text-decoration="underline" textLength="80" x="842.513" y="397.6089">schema:email</text></a><text fill="#000000" font-family="sans-serif" font-size="11" lengthAdjust="spacingAndGlyphs" textLength="4" x="926.513" y="397.6089">:</text><a href="http://www.w3.org/2001/XMLSchema#string" target="_top" title="http://www.w3.org/2001/XMLSchema#string" xlink:actuate="onRequest" xlink:href="http://www.w3.org/2001/XMLSchema#string" xlink:show="new" xlink:title="http://www.w3.org/2001/XMLSchema#string" xlink:type="simple"><text fill="#0000FF" font-family="sans-serif" font-size="11" lengthAdjust="spacingAndGlyphs" text-decoration="underline" textLength="57" x="934.513" y="397.6089">xsd:string</text></a><line style="stroke: #A80036; stroke-width: 1.5;" x1="837.513" x2="1021.513" y1="404.2031" y2="404.2031"/><!--MD5=[e6b51ba952ae40359343c1f07188c8a2]
class schema:Organization--><a href="http://schema.org/Organization" target="_top" title="http://schema.org/Organization" xlink:actuate="onRequest" xlink:href="http://schema.org/Organization" xlink:show="new" xlink:title="http://schema.org/Organization" xlink:type="simple"><rect fill="#FEFECE" filter="url(#f1dh4e689rukgg)" height="99.2188" id="schema:Organization" style="stroke: #A80036; stroke-width: 1.5;" width="210" x="843.513" y="640.5938"/><ellipse cx="879.663" cy="656.5938" fill="#ADD1B2" rx="11" ry="11" style="stroke: #A80036; stroke-width: 1.0;"/><path d="M882.0068,652.2656 L882.1786,652.3438 C882.3974,652.0313 882.6005,651.9375 882.8974,651.9375 C883.1943,651.9375 883.4755,652.0781 883.6318,652.3438 C883.7255,652.5 883.7411,652.625 883.7411,653.0625 L883.7411,654.4844 C883.7411,654.9063 883.7099,655.0938 883.6005,655.25 C883.4286,655.4688 883.163,655.6094 882.8974,655.6094 C882.6786,655.6094 882.4443,655.5 882.3036,655.3594 C882.163,655.2344 882.1318,655.1094 882.0693,654.7031 C881.9755,654.2969 881.8036,654.0781 881.3193,653.7969 C880.8505,653.5469 880.2411,653.3906 879.663,653.3906 C877.9286,653.3906 876.6786,654.7031 876.6786,656.4844 L876.6786,657.5781 C876.6786,659.2813 877.9755,660.375 880.0224,660.375 C880.788,660.375 881.4755,660.25 881.8974,659.9844 C882.0849,659.8906 882.0849,659.8906 882.538,659.4063 C882.7255,659.2188 882.9286,659.1406 883.1474,659.1406 C883.6161,659.1406 884.0068,659.5313 884.0068,659.9844 C884.0068,660.375 883.6786,660.8281 883.1005,661.2344 C882.3505,661.7813 881.1943,662.0781 879.9755,662.0781 C877.0849,662.0781 874.9755,660.1875 874.9755,657.6094 L874.9755,656.4844 C874.9755,653.7656 876.9755,651.6875 879.6005,651.6875 C880.4755,651.6875 881.0693,651.8281 882.0068,652.2656 Z "/><text fill="#000000" font-family="sans-serif" font-size="12" lengthAdjust="spacingAndGlyphs" textLength="131" x="898.363" y="660.748">schema:Organization</text><line style="stroke: #A80036; stroke-width: 1.5;" x1="844.513" x2="1052.513" y1="672.5938" y2="672.5938"/></a><a href="http://schema.org/taxID" target="_top" title="http://schema.org/taxID" xlink:actuate="onRequest" xlink:href="http://schema.org/taxID" xlink:show="new" xlink:title="http://schema.org/taxID" xlink:type="simple"><text fill="#0000FF" font-family="sans-serif" font-size="11" lengthAdjust="spacingAndGlyphs" text-decoration="underline" textLength="77" x="849.513" y="686.8042">schema:taxID</text></a><text fill="#000000" font-family="sans-serif" font-size="11" lengthAdjust="spacingAndGlyphs" textLength="4" x="930.513" y="686.8042">:</text><a href="http://www.w3.org/2001/XMLSchema#string" target="_top" title="http://www.w3.org/2001/XMLSchema#string" xlink:actuate="onRequest" xlink:href="http://www.w3.org/2001/XMLSchema#string" xlink:show="new" xlink:title="http://www.w3.org/2001/XMLSchema#string" xlink:type="simple"><text fill="#0000FF" font-family="sans-serif" font-size="11" lengthAdjust="spacingAndGlyphs" text-decoration="underline" textLength="57" x="938.513" y="686.8042">xsd:string</text></a><a href="http://schema.org/dissolutionDate" target="_top" title="http://schema.org/dissolutionDate" xlink:actuate="onRequest" xlink:href="http://schema.org/dissolutionDate" xlink:show="new" xlink:title="http://schema.org/dissolutionDate" xlink:type="simple"><text fill="#0000FF" font-family="sans-serif" font-size="11" lengthAdjust="spacingAndGlyphs" text-decoration="underline" textLength="137" x="849.513" y="699.6089">schema:dissolutionDate</text></a><text fill="#000000" font-family="sans-serif" font-size="11" lengthAdjust="spacingAndGlyphs" textLength="4" x="990.513" y="699.6089">:</text><a href="http://www.w3.org/2001/XMLSchema#date" target="_top" title="http://www.w3.org/2001/XMLSchema#date" xlink:actuate="onRequest" xlink:href="http://www.w3.org/2001/XMLSchema#date" xlink:show="new" xlink:title="http://www.w3.org/2001/XMLSchema#date" xlink:type="simple"><text fill="#0000FF" font-family="sans-serif" font-size="11" lengthAdjust="spacingAndGlyphs" text-decoration="underline" textLength="49" x="998.513" y="699.6089">xsd:date</text></a><a href="http://schema.org/foundingDate" target="_top" title="http://schema.org/foundingDate" xlink:actuate="onRequest" xlink:href="http://schema.org/foundingDate" xlink:show="new" xlink:title="http://schema.org/foundingDate" xlink:type="simple"><text fill="#0000FF" font-family="sans-serif" font-size="11" lengthAdjust="spacingAndGlyphs" text-decoration="underline" textLength="124" x="849.513" y="712.4136">schema:foundingDate</text></a><text fill="#000000" font-family="sans-serif" font-size="11" lengthAdjust="spacingAndGlyphs" textLength="4" x="977.513" y="712.4136">:</text><a href="http://www.w3.org/2001/XMLSchema#date" target="_top" title="http://www.w3.org/2001/XMLSchema#date" xlink:actuate="onRequest" xlink:href="http://www.w3.org/2001/XMLSchema#date" xlink:show="new" xlink:title="http://www.w3.org/2001/XMLSchema#date" xlink:type="simple"><text fill="#0000FF" font-family="sans-serif" font-size="11" lengthAdjust="spacingAndGlyphs" text-decoration="underline" textLength="49" x="985.513" y="712.4136">xsd:date</text></a><a href="https://w3id.org/tern/ontologies/org/agorID" target="_top" title="https://w3id.org/tern/ontologies/org/agorID" xlink:actuate="onRequest" xlink:href="https://w3id.org/tern/ontologies/org/agorID" xlink:show="new" xlink:title="https://w3id.org/tern/ontologies/org/agorID" xlink:type="simple"><text fill="#0000FF" font-family="sans-serif" font-size="11" lengthAdjust="spacingAndGlyphs" text-decoration="underline" textLength="87" x="849.513" y="725.2183">tern-org:agorID</text></a><text fill="#000000" font-family="sans-serif" font-size="11" lengthAdjust="spacingAndGlyphs" textLength="4" x="940.513" y="725.2183">:</text><a href="http://www.w3.org/2001/XMLSchema#string" target="_top" title="http://www.w3.org/2001/XMLSchema#string" xlink:actuate="onRequest" xlink:href="http://www.w3.org/2001/XMLSchema#string" xlink:show="new" xlink:title="http://www.w3.org/2001/XMLSchema#string" xlink:type="simple"><text fill="#0000FF" font-family="sans-serif" font-size="11" lengthAdjust="spacingAndGlyphs" text-decoration="underline" textLength="57" x="948.513" y="725.2183">xsd:string</text></a><line style="stroke: #A80036; stroke-width: 1.5;" x1="844.513" x2="1052.513" y1="731.8125" y2="731.8125"/><!--MD5=[9bb605c19e18386e032ddc7bcbe77a0b]
class schema:Person--><a href="http://schema.org/Person" target="_top" title="http://schema.org/Person" xlink:actuate="onRequest" xlink:href="http://schema.org/Person" xlink:show="new" xlink:title="http://schema.org/Person" xlink:type="simple"><rect fill="#FEFECE" filter="url(#f1dh4e689rukgg)" height="73.6094" id="schema:Person" style="stroke: #A80036; stroke-width: 1.5;" width="211" x="457.013" y="489.5938"/><ellipse cx="509.763" cy="505.5938" fill="#ADD1B2" rx="11" ry="11" style="stroke: #A80036; stroke-width: 1.0;"/><path d="M512.1067,501.2656 L512.2786,501.3438 C512.4974,501.0313 512.7005,500.9375 512.9974,500.9375 C513.2942,500.9375 513.5755,501.0781 513.7317,501.3438 C513.8255,501.5 513.8411,501.625 513.8411,502.0625 L513.8411,503.4844 C513.8411,503.9063 513.8099,504.0938 513.7005,504.25 C513.5286,504.4688 513.263,504.6094 512.9974,504.6094 C512.7786,504.6094 512.5442,504.5 512.4036,504.3594 C512.263,504.2344 512.2317,504.1094 512.1692,503.7031 C512.0755,503.2969 511.9036,503.0781 511.4193,502.7969 C510.9505,502.5469 510.3411,502.3906 509.763,502.3906 C508.0286,502.3906 506.7786,503.7031 506.7786,505.4844 L506.7786,506.5781 C506.7786,508.2813 508.0755,509.375 510.1224,509.375 C510.888,509.375 511.5755,509.25 511.9974,508.9844 C512.1849,508.8906 512.1849,508.8906 512.638,508.4063 C512.8255,508.2188 513.0286,508.1406 513.2474,508.1406 C513.7161,508.1406 514.1067,508.5313 514.1067,508.9844 C514.1067,509.375 513.7786,509.8281 513.2005,510.2344 C512.4505,510.7813 511.2943,511.0781 510.0755,511.0781 C507.1849,511.0781 505.0755,509.1875 505.0755,506.6094 L505.0755,505.4844 C505.0755,502.7656 507.0755,500.6875 509.7005,500.6875 C510.5755,500.6875 511.1693,500.8281 512.1067,501.2656 Z "/><text fill="#000000" font-family="sans-serif" font-size="12" lengthAdjust="spacingAndGlyphs" textLength="97" x="530.263" y="509.748">schema:Person</text><line style="stroke: #A80036; stroke-width: 1.5;" x1="458.013" x2="667.013" y1="521.5938" y2="521.5938"/></a><a href="http://schema.org/honorificPrefix" target="_top" title="http://schema.org/honorificPrefix" xlink:actuate="onRequest" xlink:href="http://schema.org/honorificPrefix" xlink:show="new" xlink:title="http://schema.org/honorificPrefix" xlink:type="simple"><text fill="#0000FF" font-family="sans-serif" font-size="11" lengthAdjust="spacingAndGlyphs" text-decoration="underline" textLength="130" x="463.013" y="535.8042">schema:honorificPrefix</text></a><text fill="#000000" font-family="sans-serif" font-size="11" lengthAdjust="spacingAndGlyphs" textLength="4" x="597.013" y="535.8042">:</text><a href="http://www.w3.org/2001/XMLSchema#string" target="_top" title="http://www.w3.org/2001/XMLSchema#string" xlink:actuate="onRequest" xlink:href="http://www.w3.org/2001/XMLSchema#string" xlink:show="new" xlink:title="http://www.w3.org/2001/XMLSchema#string" xlink:type="simple"><text fill="#0000FF" font-family="sans-serif" font-size="11" lengthAdjust="spacingAndGlyphs" text-decoration="underline" textLength="57" x="605.013" y="535.8042">xsd:string</text></a><a href="http://schema.org/jobTitle" target="_top" title="http://schema.org/jobTitle" xlink:actuate="onRequest" xlink:href="http://schema.org/jobTitle" xlink:show="new" xlink:title="http://schema.org/jobTitle" xlink:type="simple"><text fill="#0000FF" font-family="sans-serif" font-size="11" lengthAdjust="spacingAndGlyphs" text-decoration="underline" textLength="90" x="463.013" y="548.6089">schema:jobTitle</text></a><text fill="#000000" font-family="sans-serif" font-size="11" lengthAdjust="spacingAndGlyphs" textLength="4" x="557.013" y="548.6089">:</text><a href="http://www.w3.org/2001/XMLSchema#string" target="_top" title="http://www.w3.org/2001/XMLSchema#string" xlink:actuate="onRequest" xlink:href="http://www.w3.org/2001/XMLSchema#string" xlink:show="new" xlink:title="http://www.w3.org/2001/XMLSchema#string" xlink:type="simple"><text fill="#0000FF" font-family="sans-serif" font-size="11" lengthAdjust="spacingAndGlyphs" text-decoration="underline" textLength="57" x="565.013" y="548.6089">xsd:string</text></a><line style="stroke: #A80036; stroke-width: 1.5;" x1="458.013" x2="667.013" y1="555.2031" y2="555.2031"/><!--MD5=[f071ecb23dbf121833784480fda18997]
class owl:Thing--><rect fill="#FEFECE" filter="url(#f1dh4e689rukgg)" height="48" id="owl:Thing" style="stroke: #A80036; stroke-width: 1.5;" width="90" x="673.513" y="40.5938"/><ellipse cx="688.513" cy="56.5938" fill="#ADD1B2" rx="11" ry="11" style="stroke: #A80036; stroke-width: 1.0;"/><path d="M690.8568,52.2656 L691.0286,52.3438 C691.2474,52.0313 691.4505,51.9375 691.7474,51.9375 C692.0443,51.9375 692.3255,52.0781 692.4818,52.3438 C692.5755,52.5 692.5911,52.625 692.5911,53.0625 L692.5911,54.4844 C692.5911,54.9063 692.5599,55.0938 692.4505,55.25 C692.2786,55.4688 692.013,55.6094 691.7474,55.6094 C691.5286,55.6094 691.2943,55.5 691.1536,55.3594 C691.013,55.2344 690.9818,55.1094 690.9193,54.7031 C690.8255,54.2969 690.6536,54.0781 690.1693,53.7969 C689.7005,53.5469 689.0911,53.3906 688.513,53.3906 C686.7786,53.3906 685.5286,54.7031 685.5286,56.4844 L685.5286,57.5781 C685.5286,59.2813 686.8255,60.375 688.8724,60.375 C689.638,60.375 690.3255,60.25 690.7474,59.9844 C690.9349,59.8906 690.9349,59.8906 691.388,59.4063 C691.5755,59.2188 691.7786,59.1406 691.9974,59.1406 C692.4661,59.1406 692.8568,59.5313 692.8568,59.9844 C692.8568,60.375 692.5286,60.8281 691.9505,61.2344 C691.2005,61.7813 690.0443,62.0781 688.8255,62.0781 C685.9349,62.0781 683.8255,60.1875 683.8255,57.6094 L683.8255,56.4844 C683.8255,53.7656 685.8255,51.6875 688.4505,51.6875 C689.3255,51.6875 689.9193,51.8281 690.8568,52.2656 Z "/><text fill="#000000" font-family="sans-serif" font-size="12" lengthAdjust="spacingAndGlyphs" textLength="58" x="702.513" y="60.748">owl:Thing</text><line style="stroke: #A80036; stroke-width: 1.5;" x1="674.513" x2="762.513" y1="72.5938" y2="72.5938"/><line style="stroke: #A80036; stroke-width: 1.5;" x1="674.513" x2="762.513" y1="80.5938" y2="80.5938"/><!--MD5=[2f832380bb2e3040b847e6a328fd2488]
class schema:Thing--><a href="http://schema.org/Thing" target="_top" title="http://schema.org/Thing" xlink:actuate="onRequest" xlink:href="http://schema.org/Thing" xlink:show="new" xlink:title="http://schema.org/Thing" xlink:type="simple"><rect fill="#FEFECE" filter="url(#f1dh4e689rukgg)" height="112.0234" id="schema:Thing" style="stroke: #A80036; stroke-width: 1.5;" width="214" x="611.513" y="149.5938"/><ellipse cx="670.763" cy="165.5938" fill="#ADD1B2" rx="11" ry="11" style="stroke: #A80036; stroke-width: 1.0;"/><path d="M673.1068,161.2656 L673.2786,161.3438 C673.4974,161.0313 673.7005,160.9375 673.9974,160.9375 C674.2943,160.9375 674.5755,161.0781 674.7318,161.3438 C674.8255,161.5 674.8411,161.625 674.8411,162.0625 L674.8411,163.4844 C674.8411,163.9063 674.8099,164.0938 674.7005,164.25 C674.5286,164.4688 674.263,164.6094 673.9974,164.6094 C673.7786,164.6094 673.5443,164.5 673.4036,164.3594 C673.263,164.2344 673.2318,164.1094 673.1693,163.7031 C673.0755,163.2969 672.9036,163.0781 672.4193,162.7969 C671.9505,162.5469 671.3411,162.3906 670.763,162.3906 C669.0286,162.3906 667.7786,163.7031 667.7786,165.4844 L667.7786,166.5781 C667.7786,168.2813 669.0755,169.375 671.1224,169.375 C671.888,169.375 672.5755,169.25 672.9974,168.9844 C673.1849,168.8906 673.1849,168.8906 673.638,168.4063 C673.8255,168.2188 674.0286,168.1406 674.2474,168.1406 C674.7161,168.1406 675.1068,168.5313 675.1068,168.9844 C675.1068,169.375 674.7786,169.8281 674.2005,170.2344 C673.4505,170.7813 672.2943,171.0781 671.0755,171.0781 C668.1849,171.0781 666.0755,169.1875 666.0755,166.6094 L666.0755,165.4844 C666.0755,162.7656 668.0755,160.6875 670.7005,160.6875 C671.5755,160.6875 672.1693,160.8281 673.1068,161.2656 Z "/><text fill="#000000" font-family="sans-serif" font-size="12" lengthAdjust="spacingAndGlyphs" textLength="87" x="691.263" y="169.748">schema:Thing</text><line style="stroke: #A80036; stroke-width: 1.5;" x1="612.513" x2="824.513" y1="181.5938" y2="181.5938"/></a><a href="http://schema.org/name" target="_top" title="http://schema.org/name" xlink:actuate="onRequest" xlink:href="http://schema.org/name" xlink:show="new" xlink:title="http://schema.org/name" xlink:type="simple"><text fill="#0000FF" font-family="sans-serif" font-size="11" lengthAdjust="spacingAndGlyphs" text-decoration="underline" textLength="81" x="617.513" y="195.8042">schema:name</text></a><text fill="#000000" font-family="sans-serif" font-size="11" lengthAdjust="spacingAndGlyphs" textLength="4" x="702.513" y="195.8042">:</text><a href="http://www.w3.org/2001/XMLSchema#string" target="_top" title="http://www.w3.org/2001/XMLSchema#string" xlink:actuate="onRequest" xlink:href="http://www.w3.org/2001/XMLSchema#string" xlink:show="new" xlink:title="http://www.w3.org/2001/XMLSchema#string" xlink:type="simple"><text fill="#0000FF" font-family="sans-serif" font-size="11" lengthAdjust="spacingAndGlyphs" text-decoration="underline" textLength="57" x="710.513" y="195.8042">xsd:string</text></a><a href="http://schema.org/identifier" target="_top" title="http://schema.org/identifier" xlink:actuate="onRequest" xlink:href="http://schema.org/identifier" xlink:show="new" xlink:title="http://schema.org/identifier" xlink:type="simple"><text fill="#0000FF" font-family="sans-serif" font-size="11" lengthAdjust="spacingAndGlyphs" text-decoration="underline" textLength="99" x="617.513" y="208.6089">schema:identifier</text></a><text fill="#000000" font-family="sans-serif" font-size="11" lengthAdjust="spacingAndGlyphs" textLength="4" x="720.513" y="208.6089">:</text><a href="http://www.w3.org/2001/XMLSchema#string" target="_top" title="http://www.w3.org/2001/XMLSchema#string" xlink:actuate="onRequest" xlink:href="http://www.w3.org/2001/XMLSchema#string" xlink:show="new" xlink:title="http://www.w3.org/2001/XMLSchema#string" xlink:type="simple"><text fill="#0000FF" font-family="sans-serif" font-size="11" lengthAdjust="spacingAndGlyphs" text-decoration="underline" textLength="57" x="728.513" y="208.6089">xsd:string</text></a><a href="http://schema.org/description" target="_top" title="http://schema.org/description" xlink:actuate="onRequest" xlink:href="http://schema.org/description" xlink:show="new" xlink:title="http://schema.org/description" xlink:type="simple"><text fill="#0000FF" font-family="sans-serif" font-size="11" lengthAdjust="spacingAndGlyphs" text-decoration="underline" textLength="112" x="617.513" y="221.4136">schema:description</text></a><text fill="#000000" font-family="sans-serif" font-size="11" lengthAdjust="spacingAndGlyphs" textLength="4" x="733.513" y="221.4136">:</text><a href="http://www.w3.org/2001/XMLSchema#string" target="_top" title="http://www.w3.org/2001/XMLSchema#string" xlink:actuate="onRequest" xlink:href="http://www.w3.org/2001/XMLSchema#string" xlink:show="new" xlink:title="http://www.w3.org/2001/XMLSchema#string" xlink:type="simple"><text fill="#0000FF" font-family="sans-serif" font-size="11" lengthAdjust="spacingAndGlyphs" text-decoration="underline" textLength="57" x="741.513" y="221.4136">xsd:string</text></a><a href="http://schema.org/image" target="_top" title="http://schema.org/image" xlink:actuate="onRequest" xlink:href="http://schema.org/image" xlink:show="new" xlink:title="http://schema.org/image" xlink:type="simple"><text fill="#0000FF" font-family="sans-serif" font-size="11" lengthAdjust="spacingAndGlyphs" text-decoration="underline" textLength="84" x="617.513" y="234.2183">schema:image</text></a><text fill="#000000" font-family="sans-serif" font-size="11" lengthAdjust="spacingAndGlyphs" textLength="4" x="705.513" y="234.2183">:</text><a href="http://www.w3.org/2001/XMLSchema#anyURI" target="_top" title="http://www.w3.org/2001/XMLSchema#anyURI" xlink:actuate="onRequest" xlink:href="http://www.w3.org/2001/XMLSchema#anyURI" xlink:show="new" xlink:title="http://www.w3.org/2001/XMLSchema#anyURI" xlink:type="simple"><text fill="#0000FF" font-family="sans-serif" font-size="11" lengthAdjust="spacingAndGlyphs" text-decoration="underline" textLength="62" x="713.513" y="234.2183">xsd:anyURI</text></a><a href="http://schema.org/alternateName" target="_top" title="http://schema.org/alternateName" xlink:actuate="onRequest" xlink:href="http://schema.org/alternateName" xlink:show="new" xlink:title="http://schema.org/alternateName" xlink:type="simple"><text fill="#0000FF" font-family="sans-serif" font-size="11" lengthAdjust="spacingAndGlyphs" text-decoration="underline" textLength="133" x="617.513" y="247.0229">schema:alternateName</text></a><text fill="#000000" font-family="sans-serif" font-size="11" lengthAdjust="spacingAndGlyphs" textLength="4" x="754.513" y="247.0229">:</text><a href="http://www.w3.org/2001/XMLSchema#string" target="_top" title="http://www.w3.org/2001/XMLSchema#string" xlink:actuate="onRequest" xlink:href="http://www.w3.org/2001/XMLSchema#string" xlink:show="new" xlink:title="http://www.w3.org/2001/XMLSchema#string" xlink:type="simple"><text fill="#0000FF" font-family="sans-serif" font-size="11" lengthAdjust="spacingAndGlyphs" text-decoration="underline" textLength="57" x="762.513" y="247.0229">xsd:string</text></a><line style="stroke: #A80036; stroke-width: 1.5;" x1="612.513" x2="824.513" y1="253.6172" y2="253.6172"/><!--MD5=[a6009265da7f18a3ed2974b69068bdd8]
class tern-org:International--><a href="https://w3id.org/tern/ontologies/org/International" target="_top" title="https://w3id.org/tern/ontologies/org/International" xlink:actuate="onRequest" xlink:href="https://w3id.org/tern/ontologies/org/International" xlink:show="new" xlink:title="https://w3id.org/tern/ontologies/org/International" xlink:type="simple"><rect fill="#FEFECE" filter="url(#f1dh4e689rukgg)" height="48" id="tern-org:International" style="stroke: #A80036; stroke-width: 1.5;" width="167" x="608.013" y="800.5938"/><ellipse cx="623.013" cy="816.5938" fill="#ADD1B2" rx="11" ry="11" style="stroke: #A80036; stroke-width: 1.0;"/><path d="M625.3568,812.2656 L625.5286,812.3438 C625.7474,812.0313 625.9505,811.9375 626.2474,811.9375 C626.5443,811.9375 626.8255,812.0781 626.9818,812.3438 C627.0755,812.5 627.0911,812.625 627.0911,813.0625 L627.0911,814.4844 C627.0911,814.9063 627.0599,815.0938 626.9505,815.25 C626.7786,815.4688 626.513,815.6094 626.2474,815.6094 C626.0286,815.6094 625.7943,815.5 625.6536,815.3594 C625.513,815.2344 625.4818,815.1094 625.4193,814.7031 C625.3255,814.2969 625.1536,814.0781 624.6693,813.7969 C624.2005,813.5469 623.5911,813.3906 623.013,813.3906 C621.2786,813.3906 620.0286,814.7031 620.0286,816.4844 L620.0286,817.5781 C620.0286,819.2813 621.3255,820.375 623.3724,820.375 C624.138,820.375 624.8255,820.25 625.2474,819.9844 C625.4349,819.8906 625.4349,819.8906 625.888,819.4063 C626.0755,819.2188 626.2786,819.1406 626.4974,819.1406 C626.9661,819.1406 627.3568,819.5313 627.3568,819.9844 C627.3568,820.375 627.0286,820.8281 626.4505,821.2344 C625.7005,821.7813 624.5443,822.0781 623.3255,822.0781 C620.4349,822.0781 618.3255,820.1875 618.3255,817.6094 L618.3255,816.4844 C618.3255,813.7656 620.3255,811.6875 622.9505,811.6875 C623.8255,811.6875 624.4193,811.8281 625.3568,812.2656 Z "/><text fill="#000000" font-family="sans-serif" font-size="12" lengthAdjust="spacingAndGlyphs" textLength="135" x="637.013" y="820.748">tern-org:International</text><line style="stroke: #A80036; stroke-width: 1.5;" x1="609.013" x2="774.013" y1="832.5938" y2="832.5938"/><line style="stroke: #A80036; stroke-width: 1.5;" x1="609.013" x2="774.013" y1="840.5938" y2="840.5938"/></a><!--MD5=[ab243d2eb1bfba13ea3cd76a809ffd31]
class tern-org:Commercial--><a href="https://w3id.org/tern/ontologies/org/Commercial" target="_top" title="https://w3id.org/tern/ontologies/org/Commercial" xlink:actuate="onRequest" xlink:href="https://w3id.org/tern/ontologies/org/Commercial" xlink:show="new" xlink:title="https://w3id.org/tern/ontologies/org/Commercial" xlink:type="simple"><rect fill="#FEFECE" filter="url(#f1dh4e689rukgg)" height="48" id="tern-org:Commercial" style="stroke: #A80036; stroke-width: 1.5;" width="159" x="810.013" y="800.5938"/><ellipse cx="825.013" cy="816.5938" fill="#ADD1B2" rx="11" ry="11" style="stroke: #A80036; stroke-width: 1.0;"/><path d="M827.3568,812.2656 L827.5286,812.3438 C827.7474,812.0313 827.9505,811.9375 828.2474,811.9375 C828.5443,811.9375 828.8255,812.0781 828.9818,812.3438 C829.0755,812.5 829.0911,812.625 829.0911,813.0625 L829.0911,814.4844 C829.0911,814.9063 829.0599,815.0938 828.9505,815.25 C828.7786,815.4688 828.513,815.6094 828.2474,815.6094 C828.0286,815.6094 827.7943,815.5 827.6536,815.3594 C827.513,815.2344 827.4818,815.1094 827.4193,814.7031 C827.3255,814.2969 827.1536,814.0781 826.6693,813.7969 C826.2005,813.5469 825.5911,813.3906 825.013,813.3906 C823.2786,813.3906 822.0286,814.7031 822.0286,816.4844 L822.0286,817.5781 C822.0286,819.2813 823.3255,820.375 825.3724,820.375 C826.138,820.375 826.8255,820.25 827.2474,819.9844 C827.4349,819.8906 827.4349,819.8906 827.888,819.4063 C828.0755,819.2188 828.2786,819.1406 828.4974,819.1406 C828.9661,819.1406 829.3568,819.5313 829.3568,819.9844 C829.3568,820.375 829.0286,820.8281 828.4505,821.2344 C827.7005,821.7813 826.5443,822.0781 825.3255,822.0781 C822.4349,822.0781 820.3255,820.1875 820.3255,817.6094 L820.3255,816.4844 C820.3255,813.7656 822.3255,811.6875 824.9505,811.6875 C825.8255,811.6875 826.4193,811.8281 827.3568,812.2656 Z "/><text fill="#000000" font-family="sans-serif" font-size="12" lengthAdjust="spacingAndGlyphs" textLength="127" x="839.013" y="820.748">tern-org:Commercial</text><line style="stroke: #A80036; stroke-width: 1.5;" x1="811.013" x2="968.013" y1="832.5938" y2="832.5938"/><line style="stroke: #A80036; stroke-width: 1.5;" x1="811.013" x2="968.013" y1="840.5938" y2="840.5938"/></a><!--MD5=[1df5db2e32d457305cebfe2ad6e92a46]
class tern-org:Government--><a href="https://w3id.org/tern/ontologies/org/Government" target="_top" title="https://w3id.org/tern/ontologies/org/Government" xlink:actuate="onRequest" xlink:href="https://w3id.org/tern/ontologies/org/Government" xlink:show="new" xlink:title="https://w3id.org/tern/ontologies/org/Government" xlink:type="simple"><rect fill="#FEFECE" filter="url(#f1dh4e689rukgg)" height="48" id="tern-org:Government" style="stroke: #A80036; stroke-width: 1.5;" width="163" x="1004.013" y="800.5938"/><ellipse cx="1019.013" cy="816.5938" fill="#ADD1B2" rx="11" ry="11" style="stroke: #A80036; stroke-width: 1.0;"/><path d="M1021.3568,812.2656 L1021.5286,812.3438 C1021.7474,812.0313 1021.9505,811.9375 1022.2474,811.9375 C1022.5443,811.9375 1022.8255,812.0781 1022.9818,812.3438 C1023.0755,812.5 1023.0911,812.625 1023.0911,813.0625 L1023.0911,814.4844 C1023.0911,814.9063 1023.0599,815.0938 1022.9505,815.25 C1022.7786,815.4688 1022.513,815.6094 1022.2474,815.6094 C1022.0286,815.6094 1021.7943,815.5 1021.6536,815.3594 C1021.513,815.2344 1021.4818,815.1094 1021.4193,814.7031 C1021.3255,814.2969 1021.1536,814.0781 1020.6693,813.7969 C1020.2005,813.5469 1019.5911,813.3906 1019.013,813.3906 C1017.2786,813.3906 1016.0286,814.7031 1016.0286,816.4844 L1016.0286,817.5781 C1016.0286,819.2813 1017.3255,820.375 1019.3724,820.375 C1020.138,820.375 1020.8255,820.25 1021.2474,819.9844 C1021.4349,819.8906 1021.4349,819.8906 1021.888,819.4063 C1022.0755,819.2188 1022.2786,819.1406 1022.4974,819.1406 C1022.9661,819.1406 1023.3568,819.5313 1023.3568,819.9844 C1023.3568,820.375 1023.0286,820.8281 1022.4505,821.2344 C1021.7005,821.7813 1020.5443,822.0781 1019.3255,822.0781 C1016.4349,822.0781 1014.3255,820.1875 1014.3255,817.6094 L1014.3255,816.4844 C1014.3255,813.7656 1016.3255,811.6875 1018.9505,811.6875 C1019.8255,811.6875 1020.4193,811.8281 1021.3568,812.2656 Z "/><text fill="#000000" font-family="sans-serif" font-size="12" lengthAdjust="spacingAndGlyphs" textLength="131" x="1033.013" y="820.748">tern-org:Government</text><line style="stroke: #A80036; stroke-width: 1.5;" x1="1005.013" x2="1166.013" y1="832.5938" y2="832.5938"/><line style="stroke: #A80036; stroke-width: 1.5;" x1="1005.013" x2="1166.013" y1="840.5938" y2="840.5938"/></a><!--MD5=[31024ad416b3695d828896b04dbb5ca7]
class org:ChangeEvent--><a href="http://www.w3.org/ns/org#ChangeEvent" target="_top" title="http://www.w3.org/ns/org#ChangeEvent" xlink:actuate="onRequest" xlink:href="http://www.w3.org/ns/org#ChangeEvent" xlink:show="new" xlink:title="http://www.w3.org/ns/org#ChangeEvent" xlink:type="simple"><rect fill="#FEFECE" filter="url(#f1dh4e689rukgg)" height="48" id="org:ChangeEvent" style="stroke: #A80036; stroke-width: 1.5;" width="140" x="375.513" y="351.5938"/><ellipse cx="390.513" cy="367.5938" fill="#ADD1B2" rx="11" ry="11" style="stroke: #A80036; stroke-width: 1.0;"/><path d="M392.8568,363.2656 L393.0286,363.3438 C393.2474,363.0313 393.4505,362.9375 393.7474,362.9375 C394.0443,362.9375 394.3255,363.0781 394.4818,363.3438 C394.5755,363.5 394.5911,363.625 394.5911,364.0625 L394.5911,365.4844 C394.5911,365.9063 394.5599,366.0938 394.4505,366.25 C394.2786,366.4688 394.013,366.6094 393.7474,366.6094 C393.5286,366.6094 393.2943,366.5 393.1536,366.3594 C393.013,366.2344 392.9818,366.1094 392.9193,365.7031 C392.8255,365.2969 392.6536,365.0781 392.1693,364.7969 C391.7005,364.5469 391.0911,364.3906 390.513,364.3906 C388.7786,364.3906 387.5286,365.7031 387.5286,367.4844 L387.5286,368.5781 C387.5286,370.2813 388.8255,371.375 390.8724,371.375 C391.638,371.375 392.3255,371.25 392.7474,370.9844 C392.9349,370.8906 392.9349,370.8906 393.388,370.4063 C393.5755,370.2188 393.7786,370.1406 393.9974,370.1406 C394.4661,370.1406 394.8568,370.5313 394.8568,370.9844 C394.8568,371.375 394.5286,371.8281 393.9505,372.2344 C393.2005,372.7813 392.0443,373.0781 390.8255,373.0781 C387.9349,373.0781 385.8255,371.1875 385.8255,368.6094 L385.8255,367.4844 C385.8255,364.7656 387.8255,362.6875 390.4505,362.6875 C391.3255,362.6875 391.9193,362.8281 392.8568,363.2656 Z "/><text fill="#000000" font-family="sans-serif" font-size="12" lengthAdjust="spacingAndGlyphs" textLength="108" x="404.513" y="371.748">org:ChangeEvent</text><line style="stroke: #A80036; stroke-width: 1.5;" x1="376.513" x2="514.513" y1="383.5938" y2="383.5938"/><line style="stroke: #A80036; stroke-width: 1.5;" x1="376.513" x2="514.513" y1="391.5938" y2="391.5938"/></a><!--MD5=[9d5ae8ef33e207d6fdc2020dcbda84c7]
class tern-org:Regional--><a href="https://w3id.org/tern/ontologies/org/Regional" target="_top" title="https://w3id.org/tern/ontologies/org/Regional" xlink:actuate="onRequest" xlink:href="https://w3id.org/tern/ontologies/org/Regional" xlink:show="new" xlink:title="https://w3id.org/tern/ontologies/org/Regional" xlink:type="simple"><rect fill="#FEFECE" filter="url(#f1dh4e689rukgg)" height="48" id="tern-org:Regional" style="stroke: #A80036; stroke-width: 1.5;" width="141" x="929.013" y="909.5938"/><ellipse cx="944.013" cy="925.5938" fill="#ADD1B2" rx="11" ry="11" style="stroke: #A80036; stroke-width: 1.0;"/><path d="M946.3568,921.2656 L946.5286,921.3438 C946.7474,921.0313 946.9505,920.9375 947.2474,920.9375 C947.5443,920.9375 947.8255,921.0781 947.9818,921.3438 C948.0755,921.5 948.0911,921.625 948.0911,922.0625 L948.0911,923.4844 C948.0911,923.9063 948.0599,924.0938 947.9505,924.25 C947.7786,924.4688 947.513,924.6094 947.2474,924.6094 C947.0286,924.6094 946.7943,924.5 946.6536,924.3594 C946.513,924.2344 946.4818,924.1094 946.4193,923.7031 C946.3255,923.2969 946.1536,923.0781 945.6693,922.7969 C945.2005,922.5469 944.5911,922.3906 944.013,922.3906 C942.2786,922.3906 941.0286,923.7031 941.0286,925.4844 L941.0286,926.5781 C941.0286,928.2813 942.3255,929.375 944.3724,929.375 C945.138,929.375 945.8255,929.25 946.2474,928.9844 C946.4349,928.8906 946.4349,928.8906 946.888,928.4063 C947.0755,928.2188 947.2786,928.1406 947.4974,928.1406 C947.9661,928.1406 948.3568,928.5313 948.3568,928.9844 C948.3568,929.375 948.0286,929.8281 947.4505,930.2344 C946.7005,930.7813 945.5443,931.0781 944.3255,931.0781 C941.4349,931.0781 939.3255,929.1875 939.3255,926.6094 L939.3255,925.4844 C939.3255,922.7656 941.3255,920.6875 943.9505,920.6875 C944.8255,920.6875 945.4193,920.8281 946.3568,921.2656 Z "/><text fill="#000000" font-family="sans-serif" font-size="12" lengthAdjust="spacingAndGlyphs" textLength="109" x="958.013" y="929.748">tern-org:Regional</text><line style="stroke: #A80036; stroke-width: 1.5;" x1="930.013" x2="1069.013" y1="941.5938" y2="941.5938"/><line style="stroke: #A80036; stroke-width: 1.5;" x1="930.013" x2="1069.013" y1="949.5938" y2="949.5938"/></a><!--MD5=[1b9dbebc64ed861062fcc9b497c5e8c5]
class tern-org:Federal--><a href="https://w3id.org/tern/ontologies/org/Federal" target="_top" title="https://w3id.org/tern/ontologies/org/Federal" xlink:actuate="onRequest" xlink:href="https://w3id.org/tern/ontologies/org/Federal" xlink:show="new" xlink:title="https://w3id.org/tern/ontologies/org/Federal" xlink:type="simple"><rect fill="#FEFECE" filter="url(#f1dh4e689rukgg)" height="48" id="tern-org:Federal" style="stroke: #A80036; stroke-width: 1.5;" width="134" x="1105.51" y="909.5938"/><ellipse cx="1120.51" cy="925.5938" fill="#ADD1B2" rx="11" ry="11" style="stroke: #A80036; stroke-width: 1.0;"/><path d="M1122.8538,921.2656 L1123.0256,921.3438 C1123.2444,921.0313 1123.4475,920.9375 1123.7444,920.9375 C1124.0413,920.9375 1124.3225,921.0781 1124.4788,921.3438 C1124.5725,921.5 1124.5881,921.625 1124.5881,922.0625 L1124.5881,923.4844 C1124.5881,923.9063 1124.5569,924.0938 1124.4475,924.25 C1124.2756,924.4688 1124.01,924.6094 1123.7444,924.6094 C1123.5256,924.6094 1123.2913,924.5 1123.1506,924.3594 C1123.01,924.2344 1122.9788,924.1094 1122.9163,923.7031 C1122.8225,923.2969 1122.6506,923.0781 1122.1663,922.7969 C1121.6975,922.5469 1121.0881,922.3906 1120.51,922.3906 C1118.7756,922.3906 1117.5256,923.7031 1117.5256,925.4844 L1117.5256,926.5781 C1117.5256,928.2813 1118.8225,929.375 1120.8694,929.375 C1121.635,929.375 1122.3225,929.25 1122.7444,928.9844 C1122.9319,928.8906 1122.9319,928.8906 1123.385,928.4063 C1123.5725,928.2188 1123.7756,928.1406 1123.9944,928.1406 C1124.4631,928.1406 1124.8538,928.5313 1124.8538,928.9844 C1124.8538,929.375 1124.5256,929.8281 1123.9475,930.2344 C1123.1975,930.7813 1122.0413,931.0781 1120.8225,931.0781 C1117.9319,931.0781 1115.8225,929.1875 1115.8225,926.6094 L1115.8225,925.4844 C1115.8225,922.7656 1117.8225,920.6875 1120.4475,920.6875 C1121.3225,920.6875 1121.9163,920.8281 1122.8538,921.2656 Z "/><text fill="#000000" font-family="sans-serif" font-size="12" lengthAdjust="spacingAndGlyphs" textLength="102" x="1134.51" y="929.748">tern-org:Federal</text><line style="stroke: #A80036; stroke-width: 1.5;" x1="1106.51" x2="1238.51" y1="941.5938" y2="941.5938"/><line style="stroke: #A80036; stroke-width: 1.5;" x1="1106.51" x2="1238.51" y1="949.5938" y2="949.5938"/></a><!--MD5=[cb1b91969ac42e9f908d36976327e509]
class tern-org:Institution--><a href="https://w3id.org/tern/ontologies/org/Institution" target="_top" title="https://w3id.org/tern/ontologies/org/Institution" xlink:actuate="onRequest" xlink:href="https://w3id.org/tern/ontologies/org/Institution" xlink:show="new" xlink:title="https://w3id.org/tern/ontologies/org/Institution" xlink:type="simple"><rect fill="#FEFECE" filter="url(#f1dh4e689rukgg)" height="48" id="tern-org:Institution" style="stroke: #A80036; stroke-width: 1.5;" width="150" x="1304.51" y="800.5938"/><ellipse cx="1319.51" cy="816.5938" fill="#ADD1B2" rx="11" ry="11" style="stroke: #A80036; stroke-width: 1.0;"/><path d="M1321.8538,812.2656 L1322.0256,812.3438 C1322.2444,812.0313 1322.4475,811.9375 1322.7444,811.9375 C1323.0413,811.9375 1323.3225,812.0781 1323.4788,812.3438 C1323.5725,812.5 1323.5881,812.625 1323.5881,813.0625 L1323.5881,814.4844 C1323.5881,814.9063 1323.5569,815.0938 1323.4475,815.25 C1323.2756,815.4688 1323.01,815.6094 1322.7444,815.6094 C1322.5256,815.6094 1322.2913,815.5 1322.1506,815.3594 C1322.01,815.2344 1321.9788,815.1094 1321.9163,814.7031 C1321.8225,814.2969 1321.6506,814.0781 1321.1663,813.7969 C1320.6975,813.5469 1320.0881,813.3906 1319.51,813.3906 C1317.7756,813.3906 1316.5256,814.7031 1316.5256,816.4844 L1316.5256,817.5781 C1316.5256,819.2813 1317.8225,820.375 1319.8694,820.375 C1320.635,820.375 1321.3225,820.25 1321.7444,819.9844 C1321.9319,819.8906 1321.9319,819.8906 1322.385,819.4063 C1322.5725,819.2188 1322.7756,819.1406 1322.9944,819.1406 C1323.4631,819.1406 1323.8538,819.5313 1323.8538,819.9844 C1323.8538,820.375 1323.5256,820.8281 1322.9475,821.2344 C1322.1975,821.7813 1321.0413,822.0781 1319.8225,822.0781 C1316.9319,822.0781 1314.8225,820.1875 1314.8225,817.6094 L1314.8225,816.4844 C1314.8225,813.7656 1316.8225,811.6875 1319.4475,811.6875 C1320.3225,811.6875 1320.9163,811.8281 1321.8538,812.2656 Z "/><text fill="#000000" font-family="sans-serif" font-size="12" lengthAdjust="spacingAndGlyphs" textLength="118" x="1333.51" y="820.748">tern-org:Institution</text><line style="stroke: #A80036; stroke-width: 1.5;" x1="1305.51" x2="1453.51" y1="832.5938" y2="832.5938"/><line style="stroke: #A80036; stroke-width: 1.5;" x1="1305.51" x2="1453.51" y1="840.5938" y2="840.5938"/></a><!--MD5=[38ef55dfb907ebcba219b1156697fb53]
class tern-org:Academic--><a href="https://w3id.org/tern/ontologies/org/Academic" target="_top" title="https://w3id.org/tern/ontologies/org/Academic" xlink:actuate="onRequest" xlink:href="https://w3id.org/tern/ontologies/org/Academic" xlink:show="new" xlink:title="https://w3id.org/tern/ontologies/org/Academic" xlink:type="simple"><rect fill="#FEFECE" filter="url(#f1dh4e689rukgg)" height="48" id="tern-org:Academic" style="stroke: #A80036; stroke-width: 1.5;" width="147" x="1520.01" y="909.5938"/><ellipse cx="1535.01" cy="925.5938" fill="#ADD1B2" rx="11" ry="11" style="stroke: #A80036; stroke-width: 1.0;"/><path d="M1537.3538,921.2656 L1537.5256,921.3438 C1537.7444,921.0313 1537.9475,920.9375 1538.2444,920.9375 C1538.5413,920.9375 1538.8225,921.0781 1538.9788,921.3438 C1539.0725,921.5 1539.0881,921.625 1539.0881,922.0625 L1539.0881,923.4844 C1539.0881,923.9063 1539.0569,924.0938 1538.9475,924.25 C1538.7756,924.4688 1538.51,924.6094 1538.2444,924.6094 C1538.0256,924.6094 1537.7913,924.5 1537.6506,924.3594 C1537.51,924.2344 1537.4788,924.1094 1537.4163,923.7031 C1537.3225,923.2969 1537.1506,923.0781 1536.6663,922.7969 C1536.1975,922.5469 1535.5881,922.3906 1535.01,922.3906 C1533.2756,922.3906 1532.0256,923.7031 1532.0256,925.4844 L1532.0256,926.5781 C1532.0256,928.2813 1533.3225,929.375 1535.3694,929.375 C1536.135,929.375 1536.8225,929.25 1537.2444,928.9844 C1537.4319,928.8906 1537.4319,928.8906 1537.885,928.4063 C1538.0725,928.2188 1538.2756,928.1406 1538.4944,928.1406 C1538.9631,928.1406 1539.3538,928.5313 1539.3538,928.9844 C1539.3538,929.375 1539.0256,929.8281 1538.4475,930.2344 C1537.6975,930.7813 1536.5413,931.0781 1535.3225,931.0781 C1532.4319,931.0781 1530.3225,929.1875 1530.3225,926.6094 L1530.3225,925.4844 C1530.3225,922.7656 1532.3225,920.6875 1534.9475,920.6875 C1535.8225,920.6875 1536.4163,920.8281 1537.3538,921.2656 Z "/><text fill="#000000" font-family="sans-serif" font-size="12" lengthAdjust="spacingAndGlyphs" textLength="115" x="1549.01" y="929.748">tern-org:Academic</text><line style="stroke: #A80036; stroke-width: 1.5;" x1="1521.01" x2="1666.01" y1="941.5938" y2="941.5938"/><line style="stroke: #A80036; stroke-width: 1.5;" x1="1521.01" x2="1666.01" y1="949.5938" y2="949.5938"/></a><!--MD5=[a1b6ca3360ed4bff6b1e96ee321d3321]
class tern-org:GovernmentFunded--><a href="https://w3id.org/tern/ontologies/org/GovernmentFunded" target="_top" title="https://w3id.org/tern/ontologies/org/GovernmentFunded" xlink:actuate="onRequest" xlink:href="https://w3id.org/tern/ontologies/org/GovernmentFunded" xlink:show="new" xlink:title="https://w3id.org/tern/ontologies/org/GovernmentFunded" xlink:type="simple"><rect fill="#FEFECE" filter="url(#f1dh4e689rukgg)" height="48" id="tern-org:GovernmentFunded" style="stroke: #A80036; stroke-width: 1.5;" width="210" x="1274.51" y="909.5938"/><ellipse cx="1289.51" cy="925.5938" fill="#ADD1B2" rx="11" ry="11" style="stroke: #A80036; stroke-width: 1.0;"/><path d="M1291.8538,921.2656 L1292.0256,921.3438 C1292.2444,921.0313 1292.4475,920.9375 1292.7444,920.9375 C1293.0413,920.9375 1293.3225,921.0781 1293.4788,921.3438 C1293.5725,921.5 1293.5881,921.625 1293.5881,922.0625 L1293.5881,923.4844 C1293.5881,923.9063 1293.5569,924.0938 1293.4475,924.25 C1293.2756,924.4688 1293.01,924.6094 1292.7444,924.6094 C1292.5256,924.6094 1292.2913,924.5 1292.1506,924.3594 C1292.01,924.2344 1291.9788,924.1094 1291.9163,923.7031 C1291.8225,923.2969 1291.6506,923.0781 1291.1663,922.7969 C1290.6975,922.5469 1290.0881,922.3906 1289.51,922.3906 C1287.7756,922.3906 1286.5256,923.7031 1286.5256,925.4844 L1286.5256,926.5781 C1286.5256,928.2813 1287.8225,929.375 1289.8694,929.375 C1290.635,929.375 1291.3225,929.25 1291.7444,928.9844 C1291.9319,928.8906 1291.9319,928.8906 1292.385,928.4063 C1292.5725,928.2188 1292.7756,928.1406 1292.9944,928.1406 C1293.4631,928.1406 1293.8538,928.5313 1293.8538,928.9844 C1293.8538,929.375 1293.5256,929.8281 1292.9475,930.2344 C1292.1975,930.7813 1291.0413,931.0781 1289.8225,931.0781 C1286.9319,931.0781 1284.8225,929.1875 1284.8225,926.6094 L1284.8225,925.4844 C1284.8225,922.7656 1286.8225,920.6875 1289.4475,920.6875 C1290.3225,920.6875 1290.9163,920.8281 1291.8538,921.2656 Z "/><text fill="#000000" font-family="sans-serif" font-size="12" lengthAdjust="spacingAndGlyphs" textLength="178" x="1303.51" y="929.748">tern-org:GovernmentFunded</text><line style="stroke: #A80036; stroke-width: 1.5;" x1="1275.51" x2="1483.51" y1="941.5938" y2="941.5938"/><line style="stroke: #A80036; stroke-width: 1.5;" x1="1275.51" x2="1483.51" y1="949.5938" y2="949.5938"/></a><!--MD5=[c904025dee6eda036b5c92c29d2459b9]
class tern-org:NCRIS--><a href="https://w3id.org/tern/ontologies/org/NCRIS" target="_top" title="https://w3id.org/tern/ontologies/org/NCRIS" xlink:actuate="onRequest" xlink:href="https://w3id.org/tern/ontologies/org/NCRIS" xlink:show="new" xlink:title="https://w3id.org/tern/ontologies/org/NCRIS" xlink:type="simple"><rect fill="#FEFECE" filter="url(#f1dh4e689rukgg)" height="48" id="tern-org:NCRIS" style="stroke: #A80036; stroke-width: 1.5;" width="123" x="1318.01" y="1018.5938"/><ellipse cx="1333.01" cy="1034.5938" fill="#ADD1B2" rx="11" ry="11" style="stroke: #A80036; stroke-width: 1.0;"/><path d="M1335.3538,1030.2656 L1335.5256,1030.3438 C1335.7444,1030.0313 1335.9475,1029.9375 1336.2444,1029.9375 C1336.5413,1029.9375 1336.8225,1030.0781 1336.9788,1030.3438 C1337.0725,1030.5 1337.0881,1030.625 1337.0881,1031.0625 L1337.0881,1032.4844 C1337.0881,1032.9063 1337.0569,1033.0938 1336.9475,1033.25 C1336.7756,1033.4688 1336.51,1033.6094 1336.2444,1033.6094 C1336.0256,1033.6094 1335.7913,1033.5 1335.6506,1033.3594 C1335.51,1033.2344 1335.4788,1033.1094 1335.4163,1032.7031 C1335.3225,1032.2969 1335.1506,1032.0781 1334.6663,1031.7969 C1334.1975,1031.5469 1333.5881,1031.3906 1333.01,1031.3906 C1331.2756,1031.3906 1330.0256,1032.7031 1330.0256,1034.4844 L1330.0256,1035.5781 C1330.0256,1037.2813 1331.3225,1038.375 1333.3694,1038.375 C1334.135,1038.375 1334.8225,1038.25 1335.2444,1037.9844 C1335.4319,1037.8906 1335.4319,1037.8906 1335.885,1037.4063 C1336.0725,1037.2188 1336.2756,1037.1406 1336.4944,1037.1406 C1336.9631,1037.1406 1337.3538,1037.5313 1337.3538,1037.9844 C1337.3538,1038.375 1337.0256,1038.8281 1336.4475,1039.2344 C1335.6975,1039.7813 1334.5413,1040.0781 1333.3225,1040.0781 C1330.4319,1040.0781 1328.3225,1038.1875 1328.3225,1035.6094 L1328.3225,1034.4844 C1328.3225,1031.7656 1330.3225,1029.6875 1332.9475,1029.6875 C1333.8225,1029.6875 1334.4163,1029.8281 1335.3538,1030.2656 Z "/><text fill="#000000" font-family="sans-serif" font-size="12" lengthAdjust="spacingAndGlyphs" textLength="91" x="1347.01" y="1038.748">tern-org:NCRIS</text><line style="stroke: #A80036; stroke-width: 1.5;" x1="1319.01" x2="1440.01" y1="1050.5938" y2="1050.5938"/><line style="stroke: #A80036; stroke-width: 1.5;" x1="1319.01" x2="1440.01" y1="1058.5938" y2="1058.5938"/></a><!--MD5=[d54513bb06c7a697b1c6c7c4036d4024]
class schema:PostalAddress--><a href="http://schema.org/PostalAddress" target="_top" title="http://schema.org/PostalAddress" xlink:actuate="onRequest" xlink:href="http://schema.org/PostalAddress" xlink:show="new" xlink:title="http://schema.org/PostalAddress" xlink:type="simple"><rect fill="#FEFECE" filter="url(#f1dh4e689rukgg)" height="48" id="schema:PostalAddress" style="stroke: #A80036; stroke-width: 1.5;" width="175" x="703.013" y="502.5938"/><ellipse cx="718.013" cy="518.5938" fill="#ADD1B2" rx="11" ry="11" style="stroke: #A80036; stroke-width: 1.0;"/><path d="M720.3568,514.2656 L720.5286,514.3438 C720.7474,514.0313 720.9505,513.9375 721.2474,513.9375 C721.5443,513.9375 721.8255,514.0781 721.9818,514.3438 C722.0755,514.5 722.0911,514.625 722.0911,515.0625 L722.0911,516.4844 C722.0911,516.9063 722.0599,517.0938 721.9505,517.25 C721.7786,517.4688 721.513,517.6094 721.2474,517.6094 C721.0286,517.6094 720.7943,517.5 720.6536,517.3594 C720.513,517.2344 720.4818,517.1094 720.4193,516.7031 C720.3255,516.2969 720.1536,516.0781 719.6693,515.7969 C719.2005,515.5469 718.5911,515.3906 718.013,515.3906 C716.2786,515.3906 715.0286,516.7031 715.0286,518.4844 L715.0286,519.5781 C715.0286,521.2813 716.3255,522.375 718.3724,522.375 C719.138,522.375 719.8255,522.25 720.2474,521.9844 C720.4349,521.8906 720.4349,521.8906 720.888,521.4063 C721.0755,521.2188 721.2786,521.1406 721.4974,521.1406 C721.9661,521.1406 722.3568,521.5313 722.3568,521.9844 C722.3568,522.375 722.0286,522.8281 721.4505,523.2344 C720.7005,523.7813 719.5443,524.0781 718.3255,524.0781 C715.4349,524.0781 713.3255,522.1875 713.3255,519.6094 L713.3255,518.4844 C713.3255,515.7656 715.3255,513.6875 717.9505,513.6875 C718.8255,513.6875 719.4193,513.8281 720.3568,514.2656 Z "/><text fill="#000000" font-family="sans-serif" font-size="12" lengthAdjust="spacingAndGlyphs" textLength="143" x="732.013" y="522.748">schema:PostalAddress</text><line style="stroke: #A80036; stroke-width: 1.5;" x1="704.013" x2="877.013" y1="534.5938" y2="534.5938"/><line style="stroke: #A80036; stroke-width: 1.5;" x1="704.013" x2="877.013" y1="542.5938" y2="542.5938"/></a><!--MD5=[50577b35f5cf804244a0b6065753bfea]
class tern-org:State--><a href="https://w3id.org/tern/ontologies/org/State" target="_top" title="https://w3id.org/tern/ontologies/org/State" xlink:actuate="onRequest" xlink:href="https://w3id.org/tern/ontologies/org/State" xlink:show="new" xlink:title="https://w3id.org/tern/ontologies/org/State" xlink:type="simple"><rect fill="#FEFECE" filter="url(#f1dh4e689rukgg)" height="48" id="tern-org:State" style="stroke: #A80036; stroke-width: 1.5;" width="121" x="773.013" y="909.5938"/><ellipse cx="788.013" cy="925.5938" fill="#ADD1B2" rx="11" ry="11" style="stroke: #A80036; stroke-width: 1.0;"/><path d="M790.3568,921.2656 L790.5286,921.3438 C790.7474,921.0313 790.9505,920.9375 791.2474,920.9375 C791.5443,920.9375 791.8255,921.0781 791.9818,921.3438 C792.0755,921.5 792.0911,921.625 792.0911,922.0625 L792.0911,923.4844 C792.0911,923.9063 792.0599,924.0938 791.9505,924.25 C791.7786,924.4688 791.513,924.6094 791.2474,924.6094 C791.0286,924.6094 790.7943,924.5 790.6536,924.3594 C790.513,924.2344 790.4818,924.1094 790.4193,923.7031 C790.3255,923.2969 790.1536,923.0781 789.6693,922.7969 C789.2005,922.5469 788.5911,922.3906 788.013,922.3906 C786.2786,922.3906 785.0286,923.7031 785.0286,925.4844 L785.0286,926.5781 C785.0286,928.2813 786.3255,929.375 788.3724,929.375 C789.138,929.375 789.8255,929.25 790.2474,928.9844 C790.4349,928.8906 790.4349,928.8906 790.888,928.4063 C791.0755,928.2188 791.2786,928.1406 791.4974,928.1406 C791.9661,928.1406 792.3568,928.5313 792.3568,928.9844 C792.3568,929.375 792.0286,929.8281 791.4505,930.2344 C790.7005,930.7813 789.5443,931.0781 788.3255,931.0781 C785.4349,931.0781 783.3255,929.1875 783.3255,926.6094 L783.3255,925.4844 C783.3255,922.7656 785.3255,920.6875 787.9505,920.6875 C788.8255,920.6875 789.4193,920.8281 790.3568,921.2656 Z "/><text fill="#000000" font-family="sans-serif" font-size="12" lengthAdjust="spacingAndGlyphs" textLength="89" x="802.013" y="929.748">tern-org:State</text><line style="stroke: #A80036; stroke-width: 1.5;" x1="774.013" x2="893.013" y1="941.5938" y2="941.5938"/><line style="stroke: #A80036; stroke-width: 1.5;" x1="774.013" x2="893.013" y1="949.5938" y2="949.5938"/></a><!--MD5=[ded7aadd1ddfde0c83332d5e2652beaf]
class org:Organization--><rect fill="#FEFECE" filter="url(#f1dh4e689rukgg)" height="48" id="org:Organization" style="stroke: #A80036; stroke-width: 1.5;" width="135" x="78.0129" y="181.5938"/><ellipse cx="93.0129" cy="197.5938" fill="#ADD1B2" rx="11" ry="11" style="stroke: #A80036; stroke-width: 1.0;"/><path d="M95.3567,193.2656 L95.5285,193.3438 C95.7473,193.0313 95.9504,192.9375 96.2473,192.9375 C96.5442,192.9375 96.8254,193.0781 96.9817,193.3438 C97.0754,193.5 97.091,193.625 97.091,194.0625 L97.091,195.4844 C97.091,195.9063 97.0598,196.0938 96.9504,196.25 C96.7785,196.4688 96.5129,196.6094 96.2473,196.6094 C96.0285,196.6094 95.7942,196.5 95.6535,196.3594 C95.5129,196.2344 95.4817,196.1094 95.4192,195.7031 C95.3254,195.2969 95.1535,195.0781 94.6692,194.7969 C94.2004,194.5469 93.591,194.3906 93.0129,194.3906 C91.2785,194.3906 90.0285,195.7031 90.0285,197.4844 L90.0285,198.5781 C90.0285,200.2813 91.3254,201.375 93.3723,201.375 C94.1379,201.375 94.8254,201.25 95.2473,200.9844 C95.4348,200.8906 95.4348,200.8906 95.8879,200.4063 C96.0754,200.2188 96.2785,200.1406 96.4973,200.1406 C96.966,200.1406 97.3567,200.5313 97.3567,200.9844 C97.3567,201.375 97.0285,201.8281 96.4504,202.2344 C95.7004,202.7813 94.5442,203.0781 93.3254,203.0781 C90.4348,203.0781 88.3254,201.1875 88.3254,198.6094 L88.3254,197.4844 C88.3254,194.7656 90.3254,192.6875 92.9504,192.6875 C93.8254,192.6875 94.4192,192.8281 95.3567,193.2656 Z "/><text fill="#000000" font-family="sans-serif" font-size="12" lengthAdjust="spacingAndGlyphs" textLength="103" x="107.0129" y="201.748">org:Organization</text><line style="stroke: #A80036; stroke-width: 1.5;" x1="79.0129" x2="212.0129" y1="213.5938" y2="213.5938"/><line style="stroke: #A80036; stroke-width: 1.5;" x1="79.0129" x2="212.0129" y1="221.5938" y2="221.5938"/><!--MD5=[2ce4146680efe56e29331621fe5f87a0]
class foaf:Person--><rect fill="#FEFECE" filter="url(#f1dh4e689rukgg)" height="48" id="foaf:Person" style="stroke: #A80036; stroke-width: 1.5;" width="104" x="236.513" y="351.5938"/><ellipse cx="251.513" cy="367.5938" fill="#ADD1B2" rx="11" ry="11" style="stroke: #A80036; stroke-width: 1.0;"/><path d="M253.8568,363.2656 L254.0286,363.3438 C254.2474,363.0313 254.4505,362.9375 254.7474,362.9375 C255.0443,362.9375 255.3255,363.0781 255.4818,363.3438 C255.5755,363.5 255.5911,363.625 255.5911,364.0625 L255.5911,365.4844 C255.5911,365.9063 255.5599,366.0938 255.4505,366.25 C255.2786,366.4688 255.013,366.6094 254.7474,366.6094 C254.5286,366.6094 254.2943,366.5 254.1536,366.3594 C254.013,366.2344 253.9818,366.1094 253.9193,365.7031 C253.8255,365.2969 253.6536,365.0781 253.1693,364.7969 C252.7005,364.5469 252.0911,364.3906 251.513,364.3906 C249.7786,364.3906 248.5286,365.7031 248.5286,367.4844 L248.5286,368.5781 C248.5286,370.2813 249.8255,371.375 251.8724,371.375 C252.638,371.375 253.3255,371.25 253.7474,370.9844 C253.9349,370.8906 253.9349,370.8906 254.388,370.4063 C254.5755,370.2188 254.7786,370.1406 254.9974,370.1406 C255.4661,370.1406 255.8568,370.5313 255.8568,370.9844 C255.8568,371.375 255.5286,371.8281 254.9505,372.2344 C254.2005,372.7813 253.0443,373.0781 251.8255,373.0781 C248.9349,373.0781 246.8255,371.1875 246.8255,368.6094 L246.8255,367.4844 C246.8255,364.7656 248.8255,362.6875 251.4505,362.6875 C252.3255,362.6875 252.9193,362.8281 253.8568,363.2656 Z "/><text fill="#000000" font-family="sans-serif" font-size="12" lengthAdjust="spacingAndGlyphs" textLength="72" x="265.513" y="371.748">foaf:Person</text><line style="stroke: #A80036; stroke-width: 1.5;" x1="237.513" x2="339.513" y1="383.5938" y2="383.5938"/><line style="stroke: #A80036; stroke-width: 1.5;" x1="237.513" x2="339.513" y1="391.5938" y2="391.5938"/><!--MD5=[84612bed34b900519fce1dd1c39e16c2]
class foaf:Agent--><rect fill="#FEFECE" filter="url(#f1dh4e689rukgg)" height="48" id="foaf:Agent" style="stroke: #A80036; stroke-width: 1.5;" width="97" x="881.013" y="181.5938"/><ellipse cx="896.013" cy="197.5938" fill="#ADD1B2" rx="11" ry="11" style="stroke: #A80036; stroke-width: 1.0;"/><path d="M898.3568,193.2656 L898.5286,193.3438 C898.7474,193.0313 898.9505,192.9375 899.2474,192.9375 C899.5443,192.9375 899.8255,193.0781 899.9818,193.3438 C900.0755,193.5 900.0911,193.625 900.0911,194.0625 L900.0911,195.4844 C900.0911,195.9063 900.0599,196.0938 899.9505,196.25 C899.7786,196.4688 899.513,196.6094 899.2474,196.6094 C899.0286,196.6094 898.7943,196.5 898.6536,196.3594 C898.513,196.2344 898.4818,196.1094 898.4193,195.7031 C898.3255,195.2969 898.1536,195.0781 897.6693,194.7969 C897.2005,194.5469 896.5911,194.3906 896.013,194.3906 C894.2786,194.3906 893.0286,195.7031 893.0286,197.4844 L893.0286,198.5781 C893.0286,200.2813 894.3255,201.375 896.3724,201.375 C897.138,201.375 897.8255,201.25 898.2474,200.9844 C898.4349,200.8906 898.4349,200.8906 898.888,200.4063 C899.0755,200.2188 899.2786,200.1406 899.4974,200.1406 C899.9661,200.1406 900.3568,200.5313 900.3568,200.9844 C900.3568,201.375 900.0286,201.8281 899.4505,202.2344 C898.7005,202.7813 897.5443,203.0781 896.3255,203.0781 C893.4349,203.0781 891.3255,201.1875 891.3255,198.6094 L891.3255,197.4844 C891.3255,194.7656 893.3255,192.6875 895.9505,192.6875 C896.8255,192.6875 897.4193,192.8281 898.3568,193.2656 Z "/><text fill="#000000" font-family="sans-serif" font-size="12" lengthAdjust="spacingAndGlyphs" textLength="65" x="910.013" y="201.748">foaf:Agent</text><line style="stroke: #A80036; stroke-width: 1.5;" x1="882.013" x2="977.013" y1="213.5938" y2="213.5938"/><line style="stroke: #A80036; stroke-width: 1.5;" x1="882.013" x2="977.013" y1="221.5938" y2="221.5938"/><!--MD5=[bfd902e7eb95dd2400e07c001b8f09bc]
reverse link prov:Agent to schema:Organization--><path d="M1012.62,424.6418 C1034.93,442.0228 1056.26,463.8318 1068.51,489.5938 C1082.64,519.2928 1080.76,533.0698 1068.51,563.5938 C1056.67,593.1108 1034.21,619.6138 1011.89,640.5738 " fill="none" id="prov:Agent&lt;-schema:Organization" style="stroke: #A80036; stroke-width: 1.0;"/><polygon fill="none" points="1008.36,430.2028,996.309,412.7758,1016.6,418.8818,1008.36,430.2028" style="stroke: #A80036; stroke-width: 1.0;"/><!--MD5=[dc9d31da5cb6b95c94004b4784b726e4]
link schema:Organization to prov:Agent--><path d="M945.558,640.4918 C941.838,579.3148 935.514,475.2968 932.02,417.8208 " fill="none" id="schema:Organization-&gt;prov:Agent" style="stroke: #A80036; stroke-width: 1.0;"/><polygon fill="#A80036" points="931.711,412.7468,928.2636,421.9725,932.0139,417.7376,936.2489,421.4879,931.711,412.7468" style="stroke: #A80036; stroke-width: 1.0;"/><a href="http://schema.org/member" target="_top" title="http://schema.org/member" xlink:actuate="onRequest" xlink:href="http://schema.org/member" xlink:show="new" xlink:title="http://schema.org/member" xlink:type="simple"><text fill="#0000FF" font-family="sans-serif" font-size="13" lengthAdjust="spacingAndGlyphs" text-decoration="underline" textLength="110" x="942.513" y="531.1606">schema:member</text></a><!--MD5=[5a5eeb81bc14ca6446a0b344620b2ea6]
link prov:Agent to schema:Organization--><path d="M1022.78,409.2257 C1056.24,426.8557 1088.46,452.7648 1099.51,489.5938 C1115.35,542.3688 1110.63,570.8048 1072.51,610.5938 C1063.25,620.2618 1052.57,629.2688 1041.44,637.4778 " fill="none" id="prov:Agent-&gt;schema:Organization" style="stroke: #A80036; stroke-width: 1.0;"/><polygon fill="#A80036" points="1037.32,640.4658,1046.9562,638.4302,1041.3707,637.5346,1042.2664,631.9491,1037.32,640.4658" style="stroke: #A80036; stroke-width: 1.0;"/><a href="http://schema.org/memberOf" target="_top" title="http://schema.org/memberOf" xlink:actuate="onRequest" xlink:href="http://schema.org/memberOf" xlink:show="new" xlink:title="http://schema.org/memberOf" xlink:type="simple"><text fill="#0000FF" font-family="sans-serif" font-size="13" lengthAdjust="spacingAndGlyphs" text-decoration="underline" textLength="124" x="1109.51" y="531.1606">schema:memberOf</text></a><!--MD5=[8104415eb9b15b9b076e8c828c60077c]
reverse link prov:Agent to schema:Person--><path d="M821.988,420.2478 C767.786,442.2537 702.844,468.6197 651.489,489.4698 " fill="none" id="prov:Agent&lt;-schema:Person" style="stroke: #A80036; stroke-width: 1.0;"/><polygon fill="none" points="819.508,413.6998,840.672,412.6627,824.775,426.6718,819.508,413.6998" style="stroke: #A80036; stroke-width: 1.0;"/><!--MD5=[02f9e57414b78bab4a614e3601376a1d]
reverse link owl:Thing to schema:Thing--><path d="M718.513,109.2558 C718.513,121.9908 718.513,136.0748 718.513,149.4217 " fill="none" id="owl:Thing&lt;-schema:Thing" style="stroke: #A80036; stroke-width: 1.0;"/><polygon fill="none" points="711.513,108.8597,718.513,88.8587,725.513,108.8587,711.513,108.8597" style="stroke: #A80036; stroke-width: 1.0;"/><!--MD5=[b18850800c39d76b281f66d189c6d969]
reverse link schema:Organization to tern-org:International--><path d="M836.086,749.0568 C800.91,767.1927 764.101,786.1698 736.428,800.4368 " fill="none" id="schema:Organization&lt;-tern-org:International" style="stroke: #A80036; stroke-width: 1.0;"/><polygon fill="none" points="833.291,742.6228,854.275,739.6798,839.706,755.0658,833.291,742.6228" style="stroke: #A80036; stroke-width: 1.0;"/><!--MD5=[35e1d06eacc1191e6369303d3714b866]
reverse link schema:Organization to tern-org:Commercial--><path d="M918.712,758.0197 C911.947,773.2117 905.203,788.3567 899.904,800.2578 " fill="none" id="schema:Organization&lt;-tern-org:Commercial" style="stroke: #A80036; stroke-width: 1.0;"/><polygon fill="none" points="912.348,755.1028,926.879,739.6798,925.138,760.7978,912.348,755.1028" style="stroke: #A80036; stroke-width: 1.0;"/><!--MD5=[28666b04edc5b6242d338ba8e5eed1f9]
reverse link schema:Organization to tern-org:Government--><path d="M1013.31,753.7638 C1030.47,770.3538 1047.93,787.2448 1061.38,800.2578 " fill="none" id="schema:Organization&lt;-tern-org:Government" style="stroke: #A80036; stroke-width: 1.0;"/><polygon fill="none" points="1008.26,758.6157,998.749,739.6798,1017.99,748.5518,1008.26,758.6157" style="stroke: #A80036; stroke-width: 1.0;"/><!--MD5=[60e84fbc823b981786910883bd64c422]
reverse link schema:Thing to org:ChangeEvent--><path d="M683.131,278.8138 C675.247,289.9248 666.042,300.4058 655.513,308.5938 C615.089,340.0327 559.447,356.6418 515.593,365.3328 " fill="none" id="schema:Thing&lt;-org:ChangeEvent" style="stroke: #A80036; stroke-width: 1.0;"/><polygon fill="none" points="677.414,274.7608,694.084,261.6798,689.21,282.3017,677.414,274.7608" style="stroke: #A80036; stroke-width: 1.0;"/><!--MD5=[5e864b2c9644e5d71dcd0d4da109869c]
reverse link tern-org:Government to tern-org:Regional--><path d="M1054.02,864.7768 C1041.97,879.7738 1028.61,896.3898 1018.14,909.4218 " fill="none" id="tern-org:Government&lt;-tern-org:Regional" style="stroke: #A80036; stroke-width: 1.0;"/><polygon fill="none" points="1048.87,860.0148,1066.85,848.8108,1059.78,868.7858,1048.87,860.0148" style="stroke: #A80036; stroke-width: 1.0;"/><!--MD5=[5e67b252eea664c72020cf5e8b239bde]
reverse link tern-org:Government to tern-org:Federal--><path d="M1117.37,864.7768 C1129.57,879.7738 1143.08,896.3898 1153.67,909.4218 " fill="none" id="tern-org:Government&lt;-tern-org:Federal" style="stroke: #A80036; stroke-width: 1.0;"/><polygon fill="none" points="1111.58,868.7448,1104.39,848.8108,1122.44,859.9128,1111.58,868.7448" style="stroke: #A80036; stroke-width: 1.0;"/><!--MD5=[df618b5d3f50101332fbd863baa94032]
reverse link tern-org:Institution to tern-org:Academic--><path d="M1443.93,857.8008 C1477.27,874.4728 1517.21,894.4408 1547.42,909.5498 " fill="none" id="tern-org:Institution&lt;-tern-org:Academic" style="stroke: #A80036; stroke-width: 1.0;"/><polygon fill="none" points="1440.44,863.8847,1425.68,848.6798,1446.7,851.3628,1440.44,863.8847" style="stroke: #A80036; stroke-width: 1.0;"/><!--MD5=[9f01bca7288c1c2a14db0246313af93c]
reverse link schema:Organization to tern-org:Institution--><path d="M1072.79,729.2998 C1147.7,752.3277 1240.63,780.8988 1304.45,800.5188 " fill="none" id="schema:Organization&lt;-tern-org:Institution" style="stroke: #A80036; stroke-width: 1.0;"/><polygon fill="none" points="1070.73,735.9898,1053.67,723.4218,1074.85,722.6088,1070.73,735.9898" style="stroke: #A80036; stroke-width: 1.0;"/><!--MD5=[7a146b0ebcbb1a5c1cefe9481d695b78]
reverse link tern-org:GovernmentFunded to tern-org:NCRIS--><path d="M1379.51,978.1716 C1379.51,991.956 1379.51,1006.6512 1379.51,1018.4217 " fill="none" id="tern-org:GovernmentFunded&lt;-tern-org:NCRIS" style="stroke: #A80036; stroke-width: 1.0;"/><polygon fill="none" points="1372.51,977.8112,1379.51,957.8108,1386.51,977.8112,1372.51,977.8112" style="stroke: #A80036; stroke-width: 1.0;"/><!--MD5=[5666be2a9ffd9bd2ab8a6033adec4f08]
reverse link schema:Thing to schema:PostalAddress--><path d="M735.423,281.5128 C751.575,353.0788 774.943,456.6097 785.269,502.3618 " fill="none" id="schema:Thing&lt;-schema:PostalAddress" style="stroke: #A80036; stroke-width: 1.0;"/><polygon fill="none" points="728.547,282.8457,730.972,261.7948,742.204,279.7628,728.547,282.8457" style="stroke: #A80036; stroke-width: 1.0;"/><!--MD5=[a69e3f3fbbdd2f30706f383fd3bb1b03]
reverse link tern-org:Institution to tern-org:GovernmentFunded--><path d="M1379.51,869.1718 C1379.51,882.9558 1379.51,897.6508 1379.51,909.4218 " fill="none" id="tern-org:Institution&lt;-tern-org:GovernmentFunded" style="stroke: #A80036; stroke-width: 1.0;"/><polygon fill="none" points="1372.51,868.8108,1379.51,848.8108,1386.51,868.8108,1372.51,868.8108" style="stroke: #A80036; stroke-width: 1.0;"/><!--MD5=[ae95700b9f5a3d4674e8eaa7631db511]
reverse link tern-org:Government to tern-org:State--><path d="M1012.66,856.5278 C972.81,873.4478 924.279,894.0538 887.786,909.5498 " fill="none" id="tern-org:Government&lt;-tern-org:State" style="stroke: #A80036; stroke-width: 1.0;"/><polygon fill="none" points="1010,850.0528,1031.14,848.6798,1015.47,862.9398,1010,850.0528" style="stroke: #A80036; stroke-width: 1.0;"/><!--MD5=[a7be702794f8bb818887cfb4b504a32c]
reverse link schema:Thing to prov:Agent--><path d="M803.564,274.3117 C831.155,296.2808 860.688,319.7948 884.216,338.5277 " fill="none" id="schema:Thing&lt;-prov:Agent" style="stroke: #A80036; stroke-width: 1.0;"/><polygon fill="none" points="798.888,279.5368,787.602,261.6028,807.609,268.5848,798.888,279.5368" style="stroke: #A80036; stroke-width: 1.0;"/><!--MD5=[5e65bfd41d71571d6a2d70a9845817f4]
link prov:Agent to schema:PostalAddress--><path d="M847.835,412.7268 C835.348,421.0878 823.611,431.0058 814.513,442.5938 C802.256,458.2038 796.258,479.8498 793.323,497.1228 " fill="none" id="prov:Agent-&gt;schema:PostalAddress" style="stroke: #A80036; stroke-width: 1.0;"/><polygon fill="#A80036" points="792.507,502.3307,797.8524,494.0587,793.2812,497.3911,789.9489,492.8199,792.507,502.3307" style="stroke: #A80036; stroke-width: 1.0;"/><a href="http://schema.org/address" target="_top" title="http://schema.org/address" xlink:actuate="onRequest" xlink:href="http://schema.org/address" xlink:show="new" xlink:title="http://schema.org/address" xlink:type="simple"><text fill="#0000FF" font-family="sans-serif" font-size="13" lengthAdjust="spacingAndGlyphs" text-decoration="underline" textLength="106" x="815.513" y="455.6606">schema:address</text></a><!--MD5=[f2141d0af6a1028b9a27692f052e2fe7]
link schema:Organization to schema:Organization--><path d="M1053.53,682.9278 C1073.99,683.7597 1088.51,686.1488 1088.51,690.0938 C1088.51,693.6998 1076.37,696.0058 1058.66,697.0107 " fill="none" id="schema:Organization-&gt;schema:Organization" style="stroke: #A80036; stroke-width: 1.0;"/><polygon fill="#A80036" points="1053.53,697.2597,1062.7137,700.8179,1058.5241,697.0169,1062.3251,692.8273,1053.53,697.2597" style="stroke: #A80036; stroke-width: 1.0;"/><a href="http://schema.org/parentOrganization" target="_top" title="http://schema.org/parentOrganization" xlink:actuate="onRequest" xlink:href="http://schema.org/parentOrganization" xlink:show="new" xlink:title="http://schema.org/parentOrganization" xlink:type="simple"><text fill="#0000FF" font-family="sans-serif" font-size="13" lengthAdjust="spacingAndGlyphs" text-decoration="underline" textLength="178" x="1094.51" y="694.6606">schema:parentOrganization</text></a><!--MD5=[f2141d0af6a1028b9a27692f052e2fe7]
link schema:Organization to schema:Organization--><path d="M1053.87,677.0518 C1152.65,672.1338 1278.51,676.4808 1278.51,690.0938 C1278.51,703.4678 1157.03,707.8988 1059.1,703.3857 " fill="none" id="schema:Organization-&gt;schema:Organization-1" style="stroke: #A80036; stroke-width: 1.0;"/><polygon fill="#A80036" points="1053.87,703.1357,1062.6651,707.5682,1058.8641,703.3786,1063.0537,699.5776,1053.87,703.1357" style="stroke: #A80036; stroke-width: 1.0;"/><a href="http://schema.org/subOrganization" target="_top" title="http://schema.org/subOrganization" xlink:actuate="onRequest" xlink:href="http://schema.org/subOrganization" xlink:show="new" xlink:title="http://schema.org/subOrganization" xlink:type="simple"><text fill="#0000FF" font-family="sans-serif" font-size="13" lengthAdjust="spacingAndGlyphs" text-decoration="underline" textLength="159" x="1284.51" y="694.6606">schema:subOrganization</text></a><!--MD5=[0254313810925c8f4f8448c0a20c83f6]
link org:ChangeEvent to org:Organization--><path d="M395.073,351.4467 C382.969,346.5988 369.944,341.9467 357.513,338.5938 C310.937,326.0298 174.18,344.9858 142.513,308.5938 C125.214,288.7138 129.031,257.4988 135.266,234.8338 " fill="none" id="org:ChangeEvent-&gt;org:Organization" style="stroke: #A80036; stroke-width: 1.0;"/><polygon fill="#A80036" points="136.714,229.8457,130.3629,237.3732,135.3197,234.6474,138.0455,239.6042,136.714,229.8457" style="stroke: #A80036; stroke-width: 1.0;"/><a href="http://www.w3.org/ns/org#resultingOrganization" target="_top" title="http://www.w3.org/ns/org#resultingOrganization" xlink:actuate="onRequest" xlink:href="http://www.w3.org/ns/org#resultingOrganization" xlink:show="new" xlink:title="http://www.w3.org/ns/org#resultingOrganization" xlink:type="simple"><text fill="#0000FF" font-family="sans-serif" font-size="13" lengthAdjust="spacingAndGlyphs" text-decoration="underline" textLength="161" x="143.513" y="304.6606">org:resultingOrganization</text></a><!--MD5=[63722a7cecdcc7361551ff571ae2e5aa]
link org:Organization to org:ChangeEvent--><path d="M213.18,212.8207 C306.708,222.9878 468.012,246.6767 503.513,291.5938 C518.024,309.9538 501.759,331.6638 482.802,348.2748 " fill="none" id="org:Organization-&gt;org:ChangeEvent" style="stroke: #A80036; stroke-width: 1.0;"/><polygon fill="#A80036" points="478.983,351.5258,488.4288,348.737,482.7901,348.2844,483.2426,342.6457,478.983,351.5258" style="stroke: #A80036; stroke-width: 1.0;"/><a href="http://www.w3.org/ns/org#resultedFrom" target="_top" title="http://www.w3.org/ns/org#resultedFrom" xlink:actuate="onRequest" xlink:href="http://www.w3.org/ns/org#resultedFrom" xlink:show="new" xlink:title="http://www.w3.org/ns/org#resultedFrom" xlink:type="simple"><text fill="#0000FF" font-family="sans-serif" font-size="13" lengthAdjust="spacingAndGlyphs" text-decoration="underline" textLength="110" x="510.513" y="304.6606">org:resultedFrom</text></a><!--MD5=[0254313810925c8f4f8448c0a20c83f6]
link org:ChangeEvent to org:Organization--><path d="M409.27,351.5248 C382.104,334.4668 343.855,310.9417 309.513,291.5938 C272.363,270.6638 229.564,248.5458 197.004,232.1197 " fill="none" id="org:ChangeEvent-&gt;org:Organization-1" style="stroke: #A80036; stroke-width: 1.0;"/><polygon fill="#A80036" points="192.276,229.7387,198.5127,237.3613,196.741,231.9891,202.1132,230.2174,192.276,229.7387" style="stroke: #A80036; stroke-width: 1.0;"/><a href="http://www.w3.org/ns/org#originalOrganization" target="_top" title="http://www.w3.org/ns/org#originalOrganization" xlink:actuate="onRequest" xlink:href="http://www.w3.org/ns/org#originalOrganization" xlink:show="new" xlink:title="http://www.w3.org/ns/org#originalOrganization" xlink:type="simple"><text fill="#0000FF" font-family="sans-serif" font-size="13" lengthAdjust="spacingAndGlyphs" text-decoration="underline" textLength="152" x="337.513" y="304.6606">org:originalOrganization</text></a><!--MD5=[63722a7cecdcc7361551ff571ae2e5aa]
link org:Organization to org:ChangeEvent--><path d="M86.2208,229.7387 C44.4451,249.3338 0.3964,278.8998 27.5129,308.5938 C77.1683,362.9678 285.979,321.1268 357.513,338.5938 C368.878,341.3688 380.696,345.3668 391.843,349.6978 " fill="none" id="org:Organization-&gt;org:ChangeEvent-1" style="stroke: #A80036; stroke-width: 1.0;"/><polygon fill="#A80036" points="396.577,351.5717,389.6809,344.5402,391.9279,349.7316,386.7366,351.9786,396.577,351.5717" style="stroke: #A80036; stroke-width: 1.0;"/><a href="http://www.w3.org/ns/org#changedBy" target="_top" title="http://www.w3.org/ns/org#changedBy" xlink:actuate="onRequest" xlink:href="http://www.w3.org/ns/org#changedBy" xlink:show="new" xlink:title="http://www.w3.org/ns/org#changedBy" xlink:type="simple"><text fill="#0000FF" font-family="sans-serif" font-size="13" lengthAdjust="spacingAndGlyphs" text-decoration="underline" textLength="96" x="28.5129" y="304.6606">org:changedBy</text></a><!--MD5=[b1fc62049c6f39e5f2648e379080542d]
link schema:Person to schema:Organization--><path d="M648.658,563.6368 C704.745,587.1028 778.413,617.9248 838.693,643.1458 " fill="none" id="schema:Person-&gt;schema:Organization" style="stroke: #A80036; stroke-width: 1.0;"/><polygon fill="#A80036" points="843.376,645.1058,836.6173,637.9419,838.7635,643.1759,833.5295,645.322,843.376,645.1058" style="stroke: #A80036; stroke-width: 1.0;"/><a href="http://schema.org/affiliation" target="_top" title="http://schema.org/affiliation" xlink:actuate="onRequest" xlink:href="http://schema.org/affiliation" xlink:show="new" xlink:title="http://schema.org/affiliation" xlink:type="simple"><text fill="#0000FF" font-family="sans-serif" font-size="13" lengthAdjust="spacingAndGlyphs" text-decoration="underline" textLength="112" x="756.513" y="606.6606">schema:affiliation</text></a><!--MD5=[25d5f4663e2ce93690f2ae73d18a916f]
link org:Organization to schema:Organization--><path d="M77.711,227.6038 C34.7812,244.8697 -9.0703,272.3708 11.513,308.5938 C120.907,501.1088 234.676,479.5068 439.513,563.5938 C573.806,618.7217 738.345,653.8728 843.309,672.5398 " fill="none" id="org:Organization-schema:Organization" style="stroke: #A80036; stroke-width: 1.0; stroke-dasharray: 7.0,7.0;"/><!--MD5=[b96945f13448f3425ae3990a362539e0]
link foaf:Person to schema:Person--><path d="M331.025,399.7118 C375.142,423.7028 444.748,461.5538 496.123,489.4918 " fill="none" id="foaf:Person-schema:Person" style="stroke: #A80036; stroke-width: 1.0; stroke-dasharray: 7.0,7.0;"/><!--MD5=[ffe472b5f023ccaee0c24058bc990e09]
link foaf:Agent to prov:Agent--><path d="M929.513,229.6007 C929.513,257.6387 929.513,305.3468 929.513,338.3407 " fill="none" id="foaf:Agent-prov:Agent" style="stroke: #A80036; stroke-width: 1.0; stroke-dasharray: 7.0,7.0;"/><text fill="#888888" font-family="sans-serif" font-size="10" lengthAdjust="spacingAndGlyphs" textLength="67" x="705.5" y="1085.876">Generated by</text><a href="https://github.com/edmondchuc/ontogram" target="_top" title="https://github.com/edmondchuc/ontogram" xlink:actuate="onRequest" xlink:href="https://github.com/edmondchuc/ontogram" xlink:show="new" xlink:title="https://github.com/edmondchuc/ontogram" xlink:type="simple"><text fill="#0000FF" font-family="sans-serif" font-size="10" lengthAdjust="spacingAndGlyphs" text-decoration="underline" textLength="204" x="775.5" y="1085.876">https://github.com/edmondchuc/ontogram</text></a><!--MD5=[b2480c378050178db14eab51923d19de]
@startuml
title TERN Organisations Ontology
"prov:Agent" <|- - "schema:Organization"
"prov:Agent" <|- - "schema:Person"
"owl:Thing" <|- - "schema:Thing"
"schema:Organization" <|- - "tern-org:International"
"schema:Organization" <|- - "tern-org:Commercial"
"schema:Organization" <|- - "tern-org:Government"
"schema:Thing" <|- - "org:ChangeEvent"
"tern-org:Government" <|- - "tern-org:Regional"
"tern-org:Government" <|- - "tern-org:Federal"
"tern-org:Institution" <|- - "tern-org:Academic"
"schema:Organization" <|- - "tern-org:Institution"
"tern-org:GovernmentFunded" <|- - "tern-org:NCRIS"
"schema:Thing" <|- - "schema:PostalAddress"
"tern-org:Institution" <|- - "tern-org:GovernmentFunded"
"tern-org:Government" <|- - "tern-org:State"
"schema:Thing" <|- - "prov:Agent"
Class "schema:Organization" [[http://schema.org/Organization]] {
[[http://schema.org/taxID schema:taxID]] : [[http://www.w3.org/2001/XMLSchema#string xsd:string]]
[[http://schema.org/dissolutionDate schema:dissolutionDate]] : [[http://www.w3.org/2001/XMLSchema#date xsd:date]]
[[http://schema.org/foundingDate schema:foundingDate]] : [[http://www.w3.org/2001/XMLSchema#date xsd:date]]
[[https://w3id.org/tern/ontologies/org/agorID tern-org:agorID]] : [[http://www.w3.org/2001/XMLSchema#string xsd:string]]
}
Class "schema:Person" [[http://schema.org/Person]] {
[[http://schema.org/honorificPrefix schema:honorificPrefix]] : [[http://www.w3.org/2001/XMLSchema#string xsd:string]]
[[http://schema.org/jobTitle schema:jobTitle]] : [[http://www.w3.org/2001/XMLSchema#string xsd:string]]
}
Class "schema:Thing" [[http://schema.org/Thing]] {
[[http://schema.org/name schema:name]] : [[http://www.w3.org/2001/XMLSchema#string xsd:string]]
[[http://schema.org/identifier schema:identifier]] : [[http://www.w3.org/2001/XMLSchema#string xsd:string]]
[[http://schema.org/description schema:description]] : [[http://www.w3.org/2001/XMLSchema#string xsd:string]]
[[http://schema.org/image schema:image]] : [[http://www.w3.org/2001/XMLSchema#anyURI xsd:anyURI]]
[[http://schema.org/alternateName schema:alternateName]] : [[http://www.w3.org/2001/XMLSchema#string xsd:string]]
}
Class "tern-org:International" [[https://w3id.org/tern/ontologies/org/International]] {
}
Class "tern-org:Commercial" [[https://w3id.org/tern/ontologies/org/Commercial]] {
}
Class "tern-org:Government" [[https://w3id.org/tern/ontologies/org/Government]] {
}
Class "org:ChangeEvent" [[http://www.w3.org/ns/org#ChangeEvent]] {
}
Class "tern-org:Regional" [[https://w3id.org/tern/ontologies/org/Regional]] {
}
Class "tern-org:Federal" [[https://w3id.org/tern/ontologies/org/Federal]] {
}
Class "tern-org:Academic" [[https://w3id.org/tern/ontologies/org/Academic]] {
}
Class "tern-org:Institution" [[https://w3id.org/tern/ontologies/org/Institution]] {
}
Class "tern-org:NCRIS" [[https://w3id.org/tern/ontologies/org/NCRIS]] {
}
Class "schema:PostalAddress" [[http://schema.org/PostalAddress]] {
}
Class "tern-org:GovernmentFunded" [[https://w3id.org/tern/ontologies/org/GovernmentFunded]] {
}
Class "tern-org:State" [[https://w3id.org/tern/ontologies/org/State]] {
}
Class "prov:Agent" [[http://www.w3.org/ns/prov#Agent]] {
[[http://schema.org/telephone schema:telephone]] : [[http://www.w3.org/2001/XMLSchema#string xsd:string]]
[[http://schema.org/email schema:email]] : [[http://www.w3.org/2001/XMLSchema#string xsd:string]]
}
"prov:Agent" - -> "schema:PostalAddress" : "[[http://schema.org/address schema:address]]"
"schema:Organization" - -> "schema:Organization" : "[[http://schema.org/parentOrganization schema:parentOrganization]]"
"org:ChangeEvent" - -> "org:Organization" : "[[http://www.w3.org/ns/org#resultingOrganization org:resultingOrganization]]"
"schema:Organization" - -> "prov:Agent" : "[[http://schema.org/member schema:member]]"
"org:Organization" - -> "org:ChangeEvent" : "[[http://www.w3.org/ns/org#resultedFrom org:resultedFrom]]"
"schema:Person" - -> "schema:Organization" : "[[http://schema.org/affiliation schema:affiliation]]"
"schema:Organization" - -> "schema:Organization" : "[[http://schema.org/subOrganization schema:subOrganization]]"
"prov:Agent" - -> "schema:Organization" : "[[http://schema.org/memberOf schema:memberOf]]"
"org:ChangeEvent" - -> "org:Organization" : "[[http://www.w3.org/ns/org#originalOrganization org:originalOrganization]]"
"org:Organization" - -> "org:ChangeEvent" : "[[http://www.w3.org/ns/org#changedBy org:changedBy]]"
"org:Organization" .. "schema:Organization"
"foaf:Person" .. "schema:Person"
"foaf:Agent" .. "prov:Agent"
header
Creator: Edmond Chuc (e.chuc@uq.edu.au) 
endheader
center footer Generated by [[https://github.com/edmondchuc/ontogram https://github.com/edmondchuc/ontogram]]
@enduml

PlantUML version 1.2019.12(Sun Nov 03 10:24:54 UTC 2019)
(GPL source distribution)
Java Runtime: Java(TM) SE Runtime Environment
JVM: Java HotSpot(TM) 64-Bit Server VM
Java Version: 1.7.0_25-b15
Operating System: Linux
Default Encoding: UTF-8
Language: en
Country: US
--></g></svg>