<?xml version="1.0" encoding="UTF-8" standalone="no"?><svg xmlns="http://www.w3.org/2000/svg" xmlns:xlink="http://www.w3.org/1999/xlink" contentScriptType="application/ecmascript" contentStyleType="text/css" height="814px" preserveAspectRatio="none" style="width:1207px;height:814px;" version="1.1" viewBox="0 0 1207 814" width="1207px" zoomAndPan="magnify"><defs><filter height="300%" id="f15xp21lwxz4tf" width="300%" x="-1" y="-1"><feGaussianBlur result="blurOut" stdDeviation="2.0"/><feColorMatrix in="blurOut" result="blurOut2" type="matrix" values="0 0 0 0 0 0 0 0 0 0 0 0 0 0 0 0 0 0 .4 0"/><feOffset dx="4.0" dy="4.0" in="blurOut2" result="blurOut3"/><feBlend in="SourceGraphic" in2="blurOut3" mode="normal"/></filter></defs><g><text fill="#000000" font-family="sans-serif" font-size="18" lengthAdjust="spacingAndGlyphs" textLength="262" x="476.5" y="16.708">TERN Organisations Ontology</text><!--MD5=[0d584a71ebce8b757d02fdb0fcc922f5]
class prov:Activity--><rect fill="#FEFECE" filter="url(#f15xp21lwxz4tf)" height="48" id="prov:Activity" style="stroke: #A80036; stroke-width: 1.5;" width="106" x="255.0759" y="28.9531"/><ellipse cx="270.0759" cy="44.9531" fill="#ADD1B2" rx="11" ry="11" style="stroke: #A80036; stroke-width: 1.0;"/><path d="M273.0447,50.5938 Q272.4665,50.8906 271.8259,51.0391 Q271.1853,51.1875 270.4822,51.1875 Q267.9822,51.1875 266.6618,49.5391 Q265.3415,47.8906 265.3415,44.7656 Q265.3415,41.6406 266.6618,39.9844 Q267.9822,38.3281 270.4822,38.3281 Q271.1853,38.3281 271.8337,38.4844 Q272.4822,38.6406 273.0447,38.9375 L273.0447,41.6563 Q272.4197,41.0781 271.8259,40.8047 Q271.2322,40.5313 270.6072,40.5313 Q269.2634,40.5313 268.5759,41.6016 Q267.8884,42.6719 267.8884,44.7656 Q267.8884,46.8594 268.5759,47.9297 Q269.2634,49 270.6072,49 Q271.2322,49 271.8259,48.7266 Q272.4197,48.4531 273.0447,47.875 L273.0447,50.5938 Z "/><text fill="#000000" font-family="sans-serif" font-size="12" lengthAdjust="spacingAndGlyphs" textLength="74" x="284.0759" y="49.1074">prov:Activity</text><line style="stroke: #A80036; stroke-width: 1.5;" x1="256.0759" x2="360.0759" y1="60.9531" y2="60.9531"/><line style="stroke: #A80036; stroke-width: 1.5;" x1="256.0759" x2="360.0759" y1="68.9531" y2="68.9531"/><!--MD5=[31024ad416b3695d828896b04dbb5ca7]
class org:ChangeEvent--><a href="http://www.w3.org/ns/org#ChangeEvent" target="_top" title="http://www.w3.org/ns/org#ChangeEvent" xlink:actuate="onRequest" xlink:href="http://www.w3.org/ns/org#ChangeEvent" xlink:show="new" xlink:title="http://www.w3.org/ns/org#ChangeEvent" xlink:type="simple"><rect fill="#FEFECE" filter="url(#f15xp21lwxz4tf)" height="48" id="org:ChangeEvent" style="stroke: #A80036; stroke-width: 1.5;" width="140" x="238.0759" y="137.9531"/><ellipse cx="253.0759" cy="153.9531" fill="#ADD1B2" rx="11" ry="11" style="stroke: #A80036; stroke-width: 1.0;"/><path d="M256.0447,159.5938 Q255.4665,159.8906 254.8259,160.0391 Q254.1853,160.1875 253.4822,160.1875 Q250.9822,160.1875 249.6618,158.5391 Q248.3415,156.8906 248.3415,153.7656 Q248.3415,150.6406 249.6618,148.9844 Q250.9822,147.3281 253.4822,147.3281 Q254.1853,147.3281 254.8337,147.4844 Q255.4822,147.6406 256.0447,147.9375 L256.0447,150.6563 Q255.4197,150.0781 254.8259,149.8047 Q254.2322,149.5313 253.6072,149.5313 Q252.2634,149.5313 251.5759,150.6016 Q250.8884,151.6719 250.8884,153.7656 Q250.8884,155.8594 251.5759,156.9297 Q252.2634,158 253.6072,158 Q254.2322,158 254.8259,157.7266 Q255.4197,157.4531 256.0447,156.875 L256.0447,159.5938 Z "/><text fill="#000000" font-family="sans-serif" font-size="12" lengthAdjust="spacingAndGlyphs" textLength="108" x="267.0759" y="158.1074">org:ChangeEvent</text><line style="stroke: #A80036; stroke-width: 1.5;" x1="239.0759" x2="377.0759" y1="169.9531" y2="169.9531"/><line style="stroke: #A80036; stroke-width: 1.5;" x1="239.0759" x2="377.0759" y1="177.9531" y2="177.9531"/></a><!--MD5=[7b84fb4983de52757c04053485336612]
class prov:Agent--><a href="http://www.w3.org/ns/prov#Agent" target="_top" title="http://www.w3.org/ns/prov#Agent" xlink:actuate="onRequest" xlink:href="http://www.w3.org/ns/prov#Agent" xlink:show="new" xlink:title="http://www.w3.org/ns/prov#Agent" xlink:type="simple"><rect fill="#FEFECE" filter="url(#f15xp21lwxz4tf)" height="86.4141" id="prov:Agent" style="stroke: #A80036; stroke-width: 1.5;" width="191" x="485.5759" y="560.9531"/><ellipse cx="542.8259" cy="576.9531" fill="#ADD1B2" rx="11" ry="11" style="stroke: #A80036; stroke-width: 1.0;"/><path d="M545.7947,582.5938 Q545.2165,582.8906 544.5759,583.0391 Q543.9353,583.1875 543.2322,583.1875 Q540.7322,583.1875 539.4118,581.5391 Q538.0915,579.8906 538.0915,576.7656 Q538.0915,573.6406 539.4118,571.9844 Q540.7322,570.3281 543.2322,570.3281 Q543.9353,570.3281 544.5837,570.4844 Q545.2322,570.6406 545.7947,570.9375 L545.7947,573.6563 Q545.1697,573.0781 544.5759,572.8047 Q543.9822,572.5313 543.3572,572.5313 Q542.0134,572.5313 541.3259,573.6016 Q540.6384,574.6719 540.6384,576.7656 Q540.6384,578.8594 541.3259,579.9297 Q542.0134,581 543.3572,581 Q543.9822,581 544.5759,580.7266 Q545.1697,580.4531 545.7947,579.875 L545.7947,582.5938 Z "/><text fill="#000000" font-family="sans-serif" font-size="12" lengthAdjust="spacingAndGlyphs" textLength="68" x="563.3259" y="581.1074">prov:Agent</text><line style="stroke: #A80036; stroke-width: 1.5;" x1="486.5759" x2="675.5759" y1="592.9531" y2="592.9531"/></a><a href="http://schema.org/telephone" target="_top" title="http://schema.org/telephone" xlink:actuate="onRequest" xlink:href="http://schema.org/telephone" xlink:show="new" xlink:title="http://schema.org/telephone" xlink:type="simple"><text fill="#0000FF" font-family="sans-serif" font-size="11" lengthAdjust="spacingAndGlyphs" text-decoration="underline" textLength="105" x="491.5759" y="607.1636">schema:telephone</text></a><text fill="#000000" font-family="sans-serif" font-size="11" lengthAdjust="spacingAndGlyphs" textLength="4" x="600.5759" y="607.1636">:</text><a href="http://www.w3.org/2000/01/rdf-schema#Literal" target="_top" title="http://www.w3.org/2000/01/rdf-schema#Literal" xlink:actuate="onRequest" xlink:href="http://www.w3.org/2000/01/rdf-schema#Literal" xlink:show="new" xlink:title="http://www.w3.org/2000/01/rdf-schema#Literal" xlink:type="simple"><text fill="#0000FF" font-family="sans-serif" font-size="11" lengthAdjust="spacingAndGlyphs" text-decoration="underline" textLength="62" x="608.5759" y="607.1636">rdfs:Literal</text></a><a href="http://schema.org/address" target="_top" title="http://schema.org/address" xlink:actuate="onRequest" xlink:href="http://schema.org/address" xlink:show="new" xlink:title="http://schema.org/address" xlink:type="simple"><text fill="#0000FF" font-family="sans-serif" font-size="11" lengthAdjust="spacingAndGlyphs" text-decoration="underline" textLength="96" x="491.5759" y="619.9683">schema:address</text></a><text fill="#000000" font-family="sans-serif" font-size="11" lengthAdjust="spacingAndGlyphs" textLength="4" x="591.5759" y="619.9683">:</text><a href="http://www.w3.org/2001/XMLSchema#anyURI" target="_top" title="http://www.w3.org/2001/XMLSchema#anyURI" xlink:actuate="onRequest" xlink:href="http://www.w3.org/2001/XMLSchema#anyURI" xlink:show="new" xlink:title="http://www.w3.org/2001/XMLSchema#anyURI" xlink:type="simple"><text fill="#0000FF" font-family="sans-serif" font-size="11" lengthAdjust="spacingAndGlyphs" text-decoration="underline" textLength="62" x="599.5759" y="619.9683">xsd:anyURI</text></a><a href="http://schema.org/email" target="_top" title="http://schema.org/email" xlink:actuate="onRequest" xlink:href="http://schema.org/email" xlink:show="new" xlink:title="http://schema.org/email" xlink:type="simple"><text fill="#0000FF" font-family="sans-serif" font-size="11" lengthAdjust="spacingAndGlyphs" text-decoration="underline" textLength="80" x="491.5759" y="632.7729">schema:email</text></a><text fill="#000000" font-family="sans-serif" font-size="11" lengthAdjust="spacingAndGlyphs" textLength="4" x="575.5759" y="632.7729">:</text><a href="http://www.w3.org/2000/01/rdf-schema#Literal" target="_top" title="http://www.w3.org/2000/01/rdf-schema#Literal" xlink:actuate="onRequest" xlink:href="http://www.w3.org/2000/01/rdf-schema#Literal" xlink:show="new" xlink:title="http://www.w3.org/2000/01/rdf-schema#Literal" xlink:type="simple"><text fill="#0000FF" font-family="sans-serif" font-size="11" lengthAdjust="spacingAndGlyphs" text-decoration="underline" textLength="62" x="583.5759" y="632.7729">rdfs:Literal</text></a><line style="stroke: #A80036; stroke-width: 1.5;" x1="486.5759" x2="675.5759" y1="639.3672" y2="639.3672"/><!--MD5=[9bb605c19e18386e032ddc7bcbe77a0b]
class schema:Person--><a href="http://schema.org/Person" target="_top" title="http://schema.org/Person" xlink:actuate="onRequest" xlink:href="http://schema.org/Person" xlink:show="new" xlink:title="http://schema.org/Person" xlink:type="simple"><rect fill="#FEFECE" filter="url(#f15xp21lwxz4tf)" height="73.6094" id="schema:Person" style="stroke: #A80036; stroke-width: 1.5;" width="216" x="473.0759" y="707.9531"/><ellipse cx="528.3259" cy="723.9531" fill="#ADD1B2" rx="11" ry="11" style="stroke: #A80036; stroke-width: 1.0;"/><path d="M531.2947,729.5938 Q530.7165,729.8906 530.0759,730.0391 Q529.4353,730.1875 528.7322,730.1875 Q526.2322,730.1875 524.9118,728.5391 Q523.5915,726.8906 523.5915,723.7656 Q523.5915,720.6406 524.9118,718.9844 Q526.2322,717.3281 528.7322,717.3281 Q529.4353,717.3281 530.0837,717.4844 Q530.7322,717.6406 531.2947,717.9375 L531.2947,720.6563 Q530.6697,720.0781 530.0759,719.8047 Q529.4822,719.5313 528.8572,719.5313 Q527.5134,719.5313 526.8259,720.6016 Q526.1384,721.6719 526.1384,723.7656 Q526.1384,725.8594 526.8259,726.9297 Q527.5134,728 528.8572,728 Q529.4822,728 530.0759,727.7266 Q530.6697,727.4531 531.2947,726.875 L531.2947,729.5938 Z "/><text fill="#000000" font-family="sans-serif" font-size="12" lengthAdjust="spacingAndGlyphs" textLength="97" x="548.8259" y="728.1074">schema:Person</text><line style="stroke: #A80036; stroke-width: 1.5;" x1="474.0759" x2="688.0759" y1="739.9531" y2="739.9531"/></a><a href="http://schema.org/jobTitle" target="_top" title="http://schema.org/jobTitle" xlink:actuate="onRequest" xlink:href="http://schema.org/jobTitle" xlink:show="new" xlink:title="http://schema.org/jobTitle" xlink:type="simple"><text fill="#0000FF" font-family="sans-serif" font-size="11" lengthAdjust="spacingAndGlyphs" text-decoration="underline" textLength="90" x="479.0759" y="754.1636">schema:jobTitle</text></a><text fill="#000000" font-family="sans-serif" font-size="11" lengthAdjust="spacingAndGlyphs" textLength="4" x="573.0759" y="754.1636">:</text><a href="http://www.w3.org/2000/01/rdf-schema#Literal" target="_top" title="http://www.w3.org/2000/01/rdf-schema#Literal" xlink:actuate="onRequest" xlink:href="http://www.w3.org/2000/01/rdf-schema#Literal" xlink:show="new" xlink:title="http://www.w3.org/2000/01/rdf-schema#Literal" xlink:type="simple"><text fill="#0000FF" font-family="sans-serif" font-size="11" lengthAdjust="spacingAndGlyphs" text-decoration="underline" textLength="62" x="581.0759" y="754.1636">rdfs:Literal</text></a><a href="http://schema.org/honorificPrefix" target="_top" title="http://schema.org/honorificPrefix" xlink:actuate="onRequest" xlink:href="http://schema.org/honorificPrefix" xlink:show="new" xlink:title="http://schema.org/honorificPrefix" xlink:type="simple"><text fill="#0000FF" font-family="sans-serif" font-size="11" lengthAdjust="spacingAndGlyphs" text-decoration="underline" textLength="130" x="479.0759" y="766.9683">schema:honorificPrefix</text></a><text fill="#000000" font-family="sans-serif" font-size="11" lengthAdjust="spacingAndGlyphs" textLength="4" x="613.0759" y="766.9683">:</text><a href="http://www.w3.org/2000/01/rdf-schema#Literal" target="_top" title="http://www.w3.org/2000/01/rdf-schema#Literal" xlink:actuate="onRequest" xlink:href="http://www.w3.org/2000/01/rdf-schema#Literal" xlink:show="new" xlink:title="http://www.w3.org/2000/01/rdf-schema#Literal" xlink:type="simple"><text fill="#0000FF" font-family="sans-serif" font-size="11" lengthAdjust="spacingAndGlyphs" text-decoration="underline" textLength="62" x="621.0759" y="766.9683">rdfs:Literal</text></a><line style="stroke: #A80036; stroke-width: 1.5;" x1="474.0759" x2="688.0759" y1="773.5625" y2="773.5625"/><!--MD5=[e6b51ba952ae40359343c1f07188c8a2]
class schema:Organization--><a href="http://schema.org/Organization" target="_top" title="http://schema.org/Organization" xlink:actuate="onRequest" xlink:href="http://schema.org/Organization" xlink:show="new" xlink:title="http://schema.org/Organization" xlink:type="simple"><rect fill="#FEFECE" filter="url(#f15xp21lwxz4tf)" height="99.2188" id="schema:Organization" style="stroke: #A80036; stroke-width: 1.5;" width="210" x="203.0759" y="378.4531"/><ellipse cx="239.2259" cy="394.4531" fill="#ADD1B2" rx="11" ry="11" style="stroke: #A80036; stroke-width: 1.0;"/><path d="M242.1947,400.0938 Q241.6165,400.3906 240.9759,400.5391 Q240.3353,400.6875 239.6322,400.6875 Q237.1322,400.6875 235.8118,399.0391 Q234.4915,397.3906 234.4915,394.2656 Q234.4915,391.1406 235.8118,389.4844 Q237.1322,387.8281 239.6322,387.8281 Q240.3353,387.8281 240.9837,387.9844 Q241.6322,388.1406 242.1947,388.4375 L242.1947,391.1563 Q241.5697,390.5781 240.9759,390.3047 Q240.3822,390.0313 239.7572,390.0313 Q238.4134,390.0313 237.7259,391.1016 Q237.0384,392.1719 237.0384,394.2656 Q237.0384,396.3594 237.7259,397.4297 Q238.4134,398.5 239.7572,398.5 Q240.3822,398.5 240.9759,398.2266 Q241.5697,397.9531 242.1947,397.375 L242.1947,400.0938 Z "/><text fill="#000000" font-family="sans-serif" font-size="12" lengthAdjust="spacingAndGlyphs" textLength="131" x="257.9259" y="398.6074">schema:Organization</text><line style="stroke: #A80036; stroke-width: 1.5;" x1="204.0759" x2="412.0759" y1="410.4531" y2="410.4531"/></a><a href="http://schema.org/foundingDate" target="_top" title="http://schema.org/foundingDate" xlink:actuate="onRequest" xlink:href="http://schema.org/foundingDate" xlink:show="new" xlink:title="http://schema.org/foundingDate" xlink:type="simple"><text fill="#0000FF" font-family="sans-serif" font-size="11" lengthAdjust="spacingAndGlyphs" text-decoration="underline" textLength="124" x="209.0759" y="424.6636">schema:foundingDate</text></a><text fill="#000000" font-family="sans-serif" font-size="11" lengthAdjust="spacingAndGlyphs" textLength="4" x="337.0759" y="424.6636">:</text><a href="http://www.w3.org/2001/XMLSchema#date" target="_top" title="http://www.w3.org/2001/XMLSchema#date" xlink:actuate="onRequest" xlink:href="http://www.w3.org/2001/XMLSchema#date" xlink:show="new" xlink:title="http://www.w3.org/2001/XMLSchema#date" xlink:type="simple"><text fill="#0000FF" font-family="sans-serif" font-size="11" lengthAdjust="spacingAndGlyphs" text-decoration="underline" textLength="49" x="345.0759" y="424.6636">xsd:date</text></a><a href="http://schema.org/taxID" target="_top" title="http://schema.org/taxID" xlink:actuate="onRequest" xlink:href="http://schema.org/taxID" xlink:show="new" xlink:title="http://schema.org/taxID" xlink:type="simple"><text fill="#0000FF" font-family="sans-serif" font-size="11" lengthAdjust="spacingAndGlyphs" text-decoration="underline" textLength="77" x="209.0759" y="437.4683">schema:taxID</text></a><text fill="#000000" font-family="sans-serif" font-size="11" lengthAdjust="spacingAndGlyphs" textLength="4" x="290.0759" y="437.4683">:</text><a href="http://www.w3.org/2000/01/rdf-schema#Literal" target="_top" title="http://www.w3.org/2000/01/rdf-schema#Literal" xlink:actuate="onRequest" xlink:href="http://www.w3.org/2000/01/rdf-schema#Literal" xlink:show="new" xlink:title="http://www.w3.org/2000/01/rdf-schema#Literal" xlink:type="simple"><text fill="#0000FF" font-family="sans-serif" font-size="11" lengthAdjust="spacingAndGlyphs" text-decoration="underline" textLength="62" x="298.0759" y="437.4683">rdfs:Literal</text></a><a href="https://w3id.org/tern/ontologies/org/agorID" target="_top" title="https://w3id.org/tern/ontologies/org/agorID" xlink:actuate="onRequest" xlink:href="https://w3id.org/tern/ontologies/org/agorID" xlink:show="new" xlink:title="https://w3id.org/tern/ontologies/org/agorID" xlink:type="simple"><text fill="#0000FF" font-family="sans-serif" font-size="11" lengthAdjust="spacingAndGlyphs" text-decoration="underline" textLength="87" x="209.0759" y="450.2729">tern-org:agorID</text></a><text fill="#000000" font-family="sans-serif" font-size="11" lengthAdjust="spacingAndGlyphs" textLength="4" x="300.0759" y="450.2729">:</text><a href="http://www.w3.org/2000/01/rdf-schema#Literal" target="_top" title="http://www.w3.org/2000/01/rdf-schema#Literal" xlink:actuate="onRequest" xlink:href="http://www.w3.org/2000/01/rdf-schema#Literal" xlink:show="new" xlink:title="http://www.w3.org/2000/01/rdf-schema#Literal" xlink:type="simple"><text fill="#0000FF" font-family="sans-serif" font-size="11" lengthAdjust="spacingAndGlyphs" text-decoration="underline" textLength="62" x="308.0759" y="450.2729">rdfs:Literal</text></a><a href="http://schema.org/dissolutionDate" target="_top" title="http://schema.org/dissolutionDate" xlink:actuate="onRequest" xlink:href="http://schema.org/dissolutionDate" xlink:show="new" xlink:title="http://schema.org/dissolutionDate" xlink:type="simple"><text fill="#0000FF" font-family="sans-serif" font-size="11" lengthAdjust="spacingAndGlyphs" text-decoration="underline" textLength="137" x="209.0759" y="463.0776">schema:dissolutionDate</text></a><text fill="#000000" font-family="sans-serif" font-size="11" lengthAdjust="spacingAndGlyphs" textLength="4" x="350.0759" y="463.0776">:</text><a href="http://www.w3.org/2001/XMLSchema#date" target="_top" title="http://www.w3.org/2001/XMLSchema#date" xlink:actuate="onRequest" xlink:href="http://www.w3.org/2001/XMLSchema#date" xlink:show="new" xlink:title="http://www.w3.org/2001/XMLSchema#date" xlink:type="simple"><text fill="#0000FF" font-family="sans-serif" font-size="11" lengthAdjust="spacingAndGlyphs" text-decoration="underline" textLength="49" x="358.0759" y="463.0776">xsd:date</text></a><line style="stroke: #A80036; stroke-width: 1.5;" x1="204.0759" x2="412.0759" y1="469.6719" y2="469.6719"/><!--MD5=[2f832380bb2e3040b847e6a328fd2488]
class schema:Thing--><a href="http://schema.org/Thing" target="_top" title="http://schema.org/Thing" xlink:actuate="onRequest" xlink:href="http://schema.org/Thing" xlink:show="new" xlink:title="http://schema.org/Thing" xlink:type="simple"><rect fill="#FEFECE" filter="url(#f15xp21lwxz4tf)" height="112.0234" id="schema:Thing" style="stroke: #A80036; stroke-width: 1.5;" width="219" x="845.5759" y="371.9531"/><ellipse cx="907.3259" cy="387.9531" fill="#ADD1B2" rx="11" ry="11" style="stroke: #A80036; stroke-width: 1.0;"/><path d="M910.2947,393.5938 Q909.7165,393.8906 909.0759,394.0391 Q908.4353,394.1875 907.7322,394.1875 Q905.2322,394.1875 903.9118,392.5391 Q902.5915,390.8906 902.5915,387.7656 Q902.5915,384.6406 903.9118,382.9844 Q905.2322,381.3281 907.7322,381.3281 Q908.4353,381.3281 909.0837,381.4844 Q909.7322,381.6406 910.2947,381.9375 L910.2947,384.6563 Q909.6697,384.0781 909.0759,383.8047 Q908.4822,383.5313 907.8572,383.5313 Q906.5134,383.5313 905.8259,384.6016 Q905.1384,385.6719 905.1384,387.7656 Q905.1384,389.8594 905.8259,390.9297 Q906.5134,392 907.8572,392 Q908.4822,392 909.0759,391.7266 Q909.6697,391.4531 910.2947,390.875 L910.2947,393.5938 Z "/><text fill="#000000" font-family="sans-serif" font-size="12" lengthAdjust="spacingAndGlyphs" textLength="87" x="927.8259" y="392.1074">schema:Thing</text><line style="stroke: #A80036; stroke-width: 1.5;" x1="846.5759" x2="1063.5759" y1="403.9531" y2="403.9531"/></a><a href="http://schema.org/sameAs" target="_top" title="http://schema.org/sameAs" xlink:actuate="onRequest" xlink:href="http://schema.org/sameAs" xlink:show="new" xlink:title="http://schema.org/sameAs" xlink:type="simple"><text fill="#0000FF" font-family="sans-serif" font-size="11" lengthAdjust="spacingAndGlyphs" text-decoration="underline" textLength="95" x="851.5759" y="418.1636">schema:sameAs</text></a><text fill="#000000" font-family="sans-serif" font-size="11" lengthAdjust="spacingAndGlyphs" textLength="4" x="950.5759" y="418.1636">:</text><a href="http://www.w3.org/2001/XMLSchema#anyURI" target="_top" title="http://www.w3.org/2001/XMLSchema#anyURI" xlink:actuate="onRequest" xlink:href="http://www.w3.org/2001/XMLSchema#anyURI" xlink:show="new" xlink:title="http://www.w3.org/2001/XMLSchema#anyURI" xlink:type="simple"><text fill="#0000FF" font-family="sans-serif" font-size="11" lengthAdjust="spacingAndGlyphs" text-decoration="underline" textLength="62" x="958.5759" y="418.1636">xsd:anyURI</text></a><a href="http://schema.org/description" target="_top" title="http://schema.org/description" xlink:actuate="onRequest" xlink:href="http://schema.org/description" xlink:show="new" xlink:title="http://schema.org/description" xlink:type="simple"><text fill="#0000FF" font-family="sans-serif" font-size="11" lengthAdjust="spacingAndGlyphs" text-decoration="underline" textLength="112" x="851.5759" y="430.9683">schema:description</text></a><text fill="#000000" font-family="sans-serif" font-size="11" lengthAdjust="spacingAndGlyphs" textLength="4" x="967.5759" y="430.9683">:</text><a href="http://www.w3.org/2000/01/rdf-schema#Literal" target="_top" title="http://www.w3.org/2000/01/rdf-schema#Literal" xlink:actuate="onRequest" xlink:href="http://www.w3.org/2000/01/rdf-schema#Literal" xlink:show="new" xlink:title="http://www.w3.org/2000/01/rdf-schema#Literal" xlink:type="simple"><text fill="#0000FF" font-family="sans-serif" font-size="11" lengthAdjust="spacingAndGlyphs" text-decoration="underline" textLength="62" x="975.5759" y="430.9683">rdfs:Literal</text></a><a href="http://schema.org/name" target="_top" title="http://schema.org/name" xlink:actuate="onRequest" xlink:href="http://schema.org/name" xlink:show="new" xlink:title="http://schema.org/name" xlink:type="simple"><text fill="#0000FF" font-family="sans-serif" font-size="11" lengthAdjust="spacingAndGlyphs" text-decoration="underline" textLength="81" x="851.5759" y="443.7729">schema:name</text></a><text fill="#000000" font-family="sans-serif" font-size="11" lengthAdjust="spacingAndGlyphs" textLength="4" x="936.5759" y="443.7729">:</text><a href="http://www.w3.org/2000/01/rdf-schema#Literal" target="_top" title="http://www.w3.org/2000/01/rdf-schema#Literal" xlink:actuate="onRequest" xlink:href="http://www.w3.org/2000/01/rdf-schema#Literal" xlink:show="new" xlink:title="http://www.w3.org/2000/01/rdf-schema#Literal" xlink:type="simple"><text fill="#0000FF" font-family="sans-serif" font-size="11" lengthAdjust="spacingAndGlyphs" text-decoration="underline" textLength="62" x="944.5759" y="443.7729">rdfs:Literal</text></a><a href="http://schema.org/alternateName" target="_top" title="http://schema.org/alternateName" xlink:actuate="onRequest" xlink:href="http://schema.org/alternateName" xlink:show="new" xlink:title="http://schema.org/alternateName" xlink:type="simple"><text fill="#0000FF" font-family="sans-serif" font-size="11" lengthAdjust="spacingAndGlyphs" text-decoration="underline" textLength="133" x="851.5759" y="456.5776">schema:alternateName</text></a><text fill="#000000" font-family="sans-serif" font-size="11" lengthAdjust="spacingAndGlyphs" textLength="4" x="988.5759" y="456.5776">:</text><a href="http://www.w3.org/2000/01/rdf-schema#Literal" target="_top" title="http://www.w3.org/2000/01/rdf-schema#Literal" xlink:actuate="onRequest" xlink:href="http://www.w3.org/2000/01/rdf-schema#Literal" xlink:show="new" xlink:title="http://www.w3.org/2000/01/rdf-schema#Literal" xlink:type="simple"><text fill="#0000FF" font-family="sans-serif" font-size="11" lengthAdjust="spacingAndGlyphs" text-decoration="underline" textLength="62" x="996.5759" y="456.5776">rdfs:Literal</text></a><a href="http://schema.org/url" target="_top" title="http://schema.org/url" xlink:actuate="onRequest" xlink:href="http://schema.org/url" xlink:show="new" xlink:title="http://schema.org/url" xlink:type="simple"><text fill="#0000FF" font-family="sans-serif" font-size="11" lengthAdjust="spacingAndGlyphs" text-decoration="underline" textLength="64" x="851.5759" y="469.3823">schema:url</text></a><text fill="#000000" font-family="sans-serif" font-size="11" lengthAdjust="spacingAndGlyphs" textLength="4" x="919.5759" y="469.3823">:</text><a href="http://www.w3.org/2001/XMLSchema#anyURI" target="_top" title="http://www.w3.org/2001/XMLSchema#anyURI" xlink:actuate="onRequest" xlink:href="http://www.w3.org/2001/XMLSchema#anyURI" xlink:show="new" xlink:title="http://www.w3.org/2001/XMLSchema#anyURI" xlink:type="simple"><text fill="#0000FF" font-family="sans-serif" font-size="11" lengthAdjust="spacingAndGlyphs" text-decoration="underline" textLength="62" x="927.5759" y="469.3823">xsd:anyURI</text></a><line style="stroke: #A80036; stroke-width: 1.5;" x1="846.5759" x2="1063.5759" y1="475.9766" y2="475.9766"/><!--MD5=[ded7aadd1ddfde0c83332d5e2652beaf]
class org:Organization--><rect fill="#FEFECE" filter="url(#f15xp21lwxz4tf)" height="48" id="org:Organization" style="stroke: #A80036; stroke-width: 1.5;" width="135" x="240.5759" y="262.9531"/><ellipse cx="255.5759" cy="278.9531" fill="#ADD1B2" rx="11" ry="11" style="stroke: #A80036; stroke-width: 1.0;"/><path d="M258.5447,284.5938 Q257.9665,284.8906 257.3259,285.0391 Q256.6853,285.1875 255.9822,285.1875 Q253.4822,285.1875 252.1618,283.5391 Q250.8415,281.8906 250.8415,278.7656 Q250.8415,275.6406 252.1618,273.9844 Q253.4822,272.3281 255.9822,272.3281 Q256.6853,272.3281 257.3337,272.4844 Q257.9822,272.6406 258.5447,272.9375 L258.5447,275.6563 Q257.9197,275.0781 257.3259,274.8047 Q256.7322,274.5313 256.1072,274.5313 Q254.7634,274.5313 254.0759,275.6016 Q253.3884,276.6719 253.3884,278.7656 Q253.3884,280.8594 254.0759,281.9297 Q254.7634,283 256.1072,283 Q256.7322,283 257.3259,282.7266 Q257.9197,282.4531 258.5447,281.875 L258.5447,284.5938 Z "/><text fill="#000000" font-family="sans-serif" font-size="12" lengthAdjust="spacingAndGlyphs" textLength="103" x="269.5759" y="283.1074">org:Organization</text><line style="stroke: #A80036; stroke-width: 1.5;" x1="241.5759" x2="374.5759" y1="294.9531" y2="294.9531"/><line style="stroke: #A80036; stroke-width: 1.5;" x1="241.5759" x2="374.5759" y1="302.9531" y2="302.9531"/><!--MD5=[f071ecb23dbf121833784480fda18997]
class owl:Thing--><rect fill="#FEFECE" filter="url(#f15xp21lwxz4tf)" height="48" id="owl:Thing" style="stroke: #A80036; stroke-width: 1.5;" width="90" x="910.0759" y="262.9531"/><ellipse cx="925.0759" cy="278.9531" fill="#ADD1B2" rx="11" ry="11" style="stroke: #A80036; stroke-width: 1.0;"/><path d="M928.0447,284.5938 Q927.4665,284.8906 926.8259,285.0391 Q926.1853,285.1875 925.4822,285.1875 Q922.9822,285.1875 921.6618,283.5391 Q920.3415,281.8906 920.3415,278.7656 Q920.3415,275.6406 921.6618,273.9844 Q922.9822,272.3281 925.4822,272.3281 Q926.1853,272.3281 926.8337,272.4844 Q927.4822,272.6406 928.0447,272.9375 L928.0447,275.6563 Q927.4197,275.0781 926.8259,274.8047 Q926.2322,274.5313 925.6072,274.5313 Q924.2634,274.5313 923.5759,275.6016 Q922.8884,276.6719 922.8884,278.7656 Q922.8884,280.8594 923.5759,281.9297 Q924.2634,283 925.6072,283 Q926.2322,283 926.8259,282.7266 Q927.4197,282.4531 928.0447,281.875 L928.0447,284.5938 Z "/><text fill="#000000" font-family="sans-serif" font-size="12" lengthAdjust="spacingAndGlyphs" textLength="58" x="939.0759" y="283.1074">owl:Thing</text><line style="stroke: #A80036; stroke-width: 1.5;" x1="911.0759" x2="999.0759" y1="294.9531" y2="294.9531"/><line style="stroke: #A80036; stroke-width: 1.5;" x1="911.0759" x2="999.0759" y1="302.9531" y2="302.9531"/><!--MD5=[2ce4146680efe56e29331621fe5f87a0]
class foaf:Person--><rect fill="#FEFECE" filter="url(#f15xp21lwxz4tf)" height="48" id="foaf:Person" style="stroke: #A80036; stroke-width: 1.5;" width="104" x="712.0759" y="579.9531"/><ellipse cx="727.0759" cy="595.9531" fill="#ADD1B2" rx="11" ry="11" style="stroke: #A80036; stroke-width: 1.0;"/><path d="M730.0447,601.5938 Q729.4665,601.8906 728.8259,602.0391 Q728.1853,602.1875 727.4822,602.1875 Q724.9822,602.1875 723.6618,600.5391 Q722.3415,598.8906 722.3415,595.7656 Q722.3415,592.6406 723.6618,590.9844 Q724.9822,589.3281 727.4822,589.3281 Q728.1853,589.3281 728.8337,589.4844 Q729.4822,589.6406 730.0447,589.9375 L730.0447,592.6563 Q729.4197,592.0781 728.8259,591.8047 Q728.2322,591.5313 727.6072,591.5313 Q726.2634,591.5313 725.5759,592.6016 Q724.8884,593.6719 724.8884,595.7656 Q724.8884,597.8594 725.5759,598.9297 Q726.2634,600 727.6072,600 Q728.2322,600 728.8259,599.7266 Q729.4197,599.4531 730.0447,598.875 L730.0447,601.5938 Z "/><text fill="#000000" font-family="sans-serif" font-size="12" lengthAdjust="spacingAndGlyphs" textLength="72" x="741.0759" y="600.1074">foaf:Person</text><line style="stroke: #A80036; stroke-width: 1.5;" x1="713.0759" x2="815.0759" y1="611.9531" y2="611.9531"/><line style="stroke: #A80036; stroke-width: 1.5;" x1="713.0759" x2="815.0759" y1="619.9531" y2="619.9531"/><!--MD5=[84612bed34b900519fce1dd1c39e16c2]
class foaf:Agent--><rect fill="#FEFECE" filter="url(#f15xp21lwxz4tf)" height="48" id="foaf:Agent" style="stroke: #A80036; stroke-width: 1.5;" width="97" x="1099.5759" y="403.9531"/><ellipse cx="1114.5759" cy="419.9531" fill="#ADD1B2" rx="11" ry="11" style="stroke: #A80036; stroke-width: 1.0;"/><path d="M1117.5447,425.5938 Q1116.9665,425.8906 1116.3259,426.0391 Q1115.6853,426.1875 1114.9822,426.1875 Q1112.4822,426.1875 1111.1618,424.5391 Q1109.8415,422.8906 1109.8415,419.7656 Q1109.8415,416.6406 1111.1618,414.9844 Q1112.4822,413.3281 1114.9822,413.3281 Q1115.6853,413.3281 1116.3337,413.4844 Q1116.9822,413.6406 1117.5447,413.9375 L1117.5447,416.6563 Q1116.9197,416.0781 1116.3259,415.8047 Q1115.7322,415.5313 1115.1072,415.5313 Q1113.7634,415.5313 1113.0759,416.6016 Q1112.3884,417.6719 1112.3884,419.7656 Q1112.3884,421.8594 1113.0759,422.9297 Q1113.7634,424 1115.1072,424 Q1115.7322,424 1116.3259,423.7266 Q1116.9197,423.4531 1117.5447,422.875 L1117.5447,425.5938 Z "/><text fill="#000000" font-family="sans-serif" font-size="12" lengthAdjust="spacingAndGlyphs" textLength="65" x="1128.5759" y="424.1074">foaf:Agent</text><line style="stroke: #A80036; stroke-width: 1.5;" x1="1100.5759" x2="1195.5759" y1="435.9531" y2="435.9531"/><line style="stroke: #A80036; stroke-width: 1.5;" x1="1100.5759" x2="1195.5759" y1="443.9531" y2="443.9531"/><!--MD5=[d9134688411b48663530f2c7087d6422]
reverse link prov:Activity to org:ChangeEvent--><path d="M308.0759,97.5505 C308.0759,111.3316 308.0759,125.9868 308.0759,137.8301 " fill="none" id="prov:Activity&lt;-org:ChangeEvent" style="stroke: #A80036; stroke-width: 1.0;"/><polygon fill="none" points="301.076,97.1438,308.0759,77.1437,315.076,97.1437,301.076,97.1438" style="stroke: #A80036; stroke-width: 1.0;"/><!--MD5=[8104415eb9b15b9b076e8c828c60077c]
reverse link prov:Agent to schema:Person--><path d="M581.0759,667.4494 C581.0759,681.2755 581.0759,695.4645 581.0759,707.8609 " fill="none" id="prov:Agent&lt;-schema:Person" style="stroke: #A80036; stroke-width: 1.0;"/><polygon fill="none" points="574.076,667.0239,581.0759,647.0239,588.076,667.0239,574.076,667.0239" style="stroke: #A80036; stroke-width: 1.0;"/><!--MD5=[bfd902e7eb95dd2400e07c001b8f09bc]
reverse link prov:Agent to schema:Organization--><path d="M621.6699,541.857 C623.5761,532.0165 622.4378,522.3347 616.0759,513.9531 C591.2793,481.2844 492.5104,457.6784 413.415,443.5561 " fill="none" id="prov:Agent&lt;-schema:Organization" style="stroke: #A80036; stroke-width: 1.0;"/><polygon fill="none" points="628.2397,544.2735,614.825,560.6761,615.083,539.4881,628.2397,544.2735" style="stroke: #A80036; stroke-width: 1.0;"/><!--MD5=[5a5eeb81bc14ca6446a0b344620b2ea6]
link prov:Agent to schema:Organization--><path d="M485.3193,580.4906 C420.6587,563.8333 345.1313,542.461 334.0759,530.9531 C321.6862,518.0563 314.9521,500.1516 311.3668,482.8831 " fill="none" id="prov:Agent-&gt;schema:Organization" style="stroke: #A80036; stroke-width: 1.0;"/><polygon fill="#A80036" points="310.3524,477.5506,308.1048,487.1396,311.2868,482.4625,315.9639,485.6445,310.3524,477.5506" style="stroke: #A80036; stroke-width: 1.0;"/><a href="http://schema.org/memberOf" target="_top" title="http://schema.org/memberOf" xlink:actuate="onRequest" xlink:href="http://schema.org/memberOf" xlink:show="new" xlink:title="http://schema.org/memberOf" xlink:type="simple"><text fill="#0000FF" font-family="sans-serif" font-size="13" lengthAdjust="spacingAndGlyphs" text-decoration="underline" textLength="124" x="335.0759" y="527.02">schema:memberOf</text></a><!--MD5=[dc9d31da5cb6b95c94004b4784b726e4]
link schema:Organization to prov:Agent--><path d="M403.4763,477.5397 C423.8181,488.9409 444.9301,501.4159 464.0759,513.9531 C484.3067,527.2008 505.52,542.9105 524.2426,557.4672 " fill="none" id="schema:Organization-&gt;prov:Agent" style="stroke: #A80036; stroke-width: 1.0;"/><polygon fill="#A80036" points="528.4464,560.7486,523.8131,552.0577,524.505,557.6721,518.8906,558.3639,528.4464,560.7486" style="stroke: #A80036; stroke-width: 1.0;"/><a href="http://schema.org/member" target="_top" title="http://schema.org/member" xlink:actuate="onRequest" xlink:href="http://schema.org/member" xlink:show="new" xlink:title="http://schema.org/member" xlink:type="simple"><text fill="#0000FF" font-family="sans-serif" font-size="13" lengthAdjust="spacingAndGlyphs" text-decoration="underline" textLength="110" x="489.0759" y="527.02">schema:member</text></a><!--MD5=[a7be702794f8bb818887cfb4b504a32c]
reverse link schema:Thing to prov:Agent--><path d="M826.9997,488.2242 C776.2014,512.1293 718.9417,539.0751 672.4628,560.9475 " fill="none" id="schema:Thing&lt;-prov:Agent" style="stroke: #A80036; stroke-width: 1.0;"/><polygon fill="none" points="824.3136,481.752,845.3906,479.5697,830.2748,494.4194,824.3136,481.752" style="stroke: #A80036; stroke-width: 1.0;"/><!--MD5=[0254313810925c8f4f8448c0a20c83f6]
link org:ChangeEvent to org:Organization--><path d="M237.9821,167.1875 C140.5207,175.8696 -20.7327,196.06 10.0759,232.9531 C38.2304,266.668 156.5726,279.3763 235.3854,284.1369 " fill="none" id="org:ChangeEvent-&gt;org:Organization" style="stroke: #A80036; stroke-width: 1.0;"/><polygon fill="#A80036" points="240.5181,284.4392,231.7689,279.9169,235.5268,284.1452,231.2985,287.9031,240.5181,284.4392" style="stroke: #A80036; stroke-width: 1.0;"/><a href="http://www.w3.org/ns/org#originalOrganization" target="_top" title="http://www.w3.org/ns/org#originalOrganization" xlink:actuate="onRequest" xlink:href="http://www.w3.org/ns/org#originalOrganization" xlink:show="new" xlink:title="http://www.w3.org/ns/org#originalOrganization" xlink:type="simple"><text fill="#0000FF" font-family="sans-serif" font-size="13" lengthAdjust="spacingAndGlyphs" text-decoration="underline" textLength="152" x="11.0759" y="229.02">org:originalOrganization</text></a><!--MD5=[0254313810925c8f4f8448c0a20c83f6]
link org:ChangeEvent to org:Organization--><path d="M238.0385,184.9024 C224.5314,192.6114 212.1039,202.7389 204.0759,215.9531 C191.1457,237.2361 210.3134,253.6362 235.5744,265.285 " fill="none" id="org:ChangeEvent-&gt;org:Organization-1" style="stroke: #A80036; stroke-width: 1.0;"/><polygon fill="#A80036" points="240.3558,267.4049,233.7494,260.1004,235.7849,265.3784,230.5069,267.4139,240.3558,267.4049" style="stroke: #A80036; stroke-width: 1.0;"/><a href="http://www.w3.org/ns/org#resultingOrganization" target="_top" title="http://www.w3.org/ns/org#resultingOrganization" xlink:actuate="onRequest" xlink:href="http://www.w3.org/ns/org#resultingOrganization" xlink:show="new" xlink:title="http://www.w3.org/ns/org#resultingOrganization" xlink:type="simple"><text fill="#0000FF" font-family="sans-serif" font-size="13" lengthAdjust="spacingAndGlyphs" text-decoration="underline" textLength="161" x="205.0759" y="229.02">org:resultingOrganization</text></a><!--MD5=[63722a7cecdcc7361551ff571ae2e5aa]
link org:Organization to org:ChangeEvent--><path d="M346.6874,262.8656 C356.4718,254.6768 365.7186,244.6011 371.0759,232.9531 C378.5031,216.8047 368.4883,201.6602 354.4105,189.5402 " fill="none" id="org:Organization-&gt;org:ChangeEvent" style="stroke: #A80036; stroke-width: 1.0;"/><polygon fill="#A80036" points="350.3433,186.2037,354.7645,195.0045,354.209,189.375,359.8385,188.8194,350.3433,186.2037" style="stroke: #A80036; stroke-width: 1.0;"/><a href="http://www.w3.org/ns/org#resultedFrom" target="_top" title="http://www.w3.org/ns/org#resultedFrom" xlink:actuate="onRequest" xlink:href="http://www.w3.org/ns/org#resultedFrom" xlink:show="new" xlink:title="http://www.w3.org/ns/org#resultedFrom" xlink:type="simple"><text fill="#0000FF" font-family="sans-serif" font-size="13" lengthAdjust="spacingAndGlyphs" text-decoration="underline" textLength="110" x="375.0759" y="229.02">org:resultedFrom</text></a><!--MD5=[63722a7cecdcc7361551ff571ae2e5aa]
link org:Organization to org:ChangeEvent--><path d="M375.7622,283.6239 C441.945,277.7204 528.1671,261.3495 494.0759,215.9531 C480.3412,197.6638 428.6769,183.5632 383.2747,174.3643 " fill="none" id="org:Organization-&gt;org:ChangeEvent-1" style="stroke: #A80036; stroke-width: 1.0;"/><polygon fill="#A80036" points="378.3388,173.3783,386.3809,179.0638,383.2419,174.3578,387.948,171.2188,378.3388,173.3783" style="stroke: #A80036; stroke-width: 1.0;"/><a href="http://www.w3.org/ns/org#changedBy" target="_top" title="http://www.w3.org/ns/org#changedBy" xlink:actuate="onRequest" xlink:href="http://www.w3.org/ns/org#changedBy" xlink:show="new" xlink:title="http://www.w3.org/ns/org#changedBy" xlink:type="simple"><text fill="#0000FF" font-family="sans-serif" font-size="13" lengthAdjust="spacingAndGlyphs" text-decoration="underline" textLength="96" x="503.0759" y="229.02">org:changedBy</text></a><!--MD5=[f2141d0af6a1028b9a27692f052e2fe7]
link schema:Organization to schema:Organization--><path d="M413.09,420.2493 C433.5481,421.144 448.0759,423.7119 448.0759,427.9531 C448.0759,431.8298 435.9377,434.3085 418.2275,435.3891 " fill="none" id="schema:Organization-&gt;schema:Organization" style="stroke: #A80036; stroke-width: 1.0;"/><polygon fill="#A80036" points="413.09,435.6569,422.286,439.183,418.0832,435.3966,421.8696,431.1938,413.09,435.6569" style="stroke: #A80036; stroke-width: 1.0;"/><a href="http://schema.org/subOrganization" target="_top" title="http://schema.org/subOrganization" xlink:actuate="onRequest" xlink:href="http://schema.org/subOrganization" xlink:show="new" xlink:title="http://schema.org/subOrganization" xlink:type="simple"><text fill="#0000FF" font-family="sans-serif" font-size="13" lengthAdjust="spacingAndGlyphs" text-decoration="underline" textLength="159" x="454.0759" y="432.52">schema:subOrganization</text></a><!--MD5=[f2141d0af6a1028b9a27692f052e2fe7]
link schema:Organization to schema:Organization--><path d="M413.2831,413.6904 C505.6802,408.7956 619.0759,413.5498 619.0759,427.9531 C619.0759,442.0892 509.8492,446.9309 418.4471,442.4783 " fill="none" id="schema:Organization-&gt;schema:Organization-1" style="stroke: #A80036; stroke-width: 1.0;"/><polygon fill="#A80036" points="413.2831,442.2158,422.0683,446.6679,418.2766,442.4698,422.4747,438.6782,413.2831,442.2158" style="stroke: #A80036; stroke-width: 1.0;"/><a href="http://schema.org/parentOrganization" target="_top" title="http://schema.org/parentOrganization" xlink:actuate="onRequest" xlink:href="http://schema.org/parentOrganization" xlink:show="new" xlink:title="http://schema.org/parentOrganization" xlink:type="simple"><text fill="#0000FF" font-family="sans-serif" font-size="13" lengthAdjust="spacingAndGlyphs" text-decoration="underline" textLength="178" x="625.0759" y="432.52">schema:parentOrganization</text></a><!--MD5=[b1fc62049c6f39e5f2648e379080542d]
link schema:Person to schema:Organization--><path d="M472.9552,718.8736 C430.9807,703.9473 385.5378,681.1484 354.0759,646.9531 C313.3406,602.6788 305.0556,531.8325 304.8675,482.7624 " fill="none" id="schema:Person-&gt;schema:Organization" style="stroke: #A80036; stroke-width: 1.0;"/><polygon fill="#A80036" points="304.878,477.4875,300.8598,486.4794,304.8679,482.4875,308.8597,486.4956,304.878,477.4875" style="stroke: #A80036; stroke-width: 1.0;"/><a href="http://schema.org/affiliation" target="_top" title="http://schema.org/affiliation" xlink:actuate="onRequest" xlink:href="http://schema.org/affiliation" xlink:show="new" xlink:title="http://schema.org/affiliation" xlink:type="simple"><text fill="#0000FF" font-family="sans-serif" font-size="13" lengthAdjust="spacingAndGlyphs" text-decoration="underline" textLength="112" x="355.0759" y="608.52">schema:affiliation</text></a><!--MD5=[6b31745681ac5e1520023c018d5950d6]
link owl:Thing to schema:Thing--><path d="M955.0759,311.1919 C955.0759,327.8844 955.0759,350.7718 955.0759,371.8622 " fill="none" id="owl:Thing-schema:Thing" style="stroke: #A80036; stroke-width: 1.0; stroke-dasharray: 7.0,7.0;"/><!--MD5=[b96945f13448f3425ae3990a362539e0]
link foaf:Person to schema:Person--><path d="M732.617,628.1919 C704.2076,650.0811 661.9724,682.623 629.3009,707.7961 " fill="none" id="foaf:Person-schema:Person" style="stroke: #A80036; stroke-width: 1.0; stroke-dasharray: 7.0,7.0;"/><!--MD5=[25d5f4663e2ce93690f2ae73d18a916f]
link org:Organization to schema:Organization--><path d="M308.0759,311.1919 C308.0759,329.6166 308.0759,355.5888 308.0759,378.3611 " fill="none" id="org:Organization-schema:Organization" style="stroke: #A80036; stroke-width: 1.0; stroke-dasharray: 7.0,7.0;"/><!--MD5=[ffe472b5f023ccaee0c24058bc990e09]
link foaf:Agent to prov:Agent--><path d="M1125.4372,452.2218 C1113.5734,463.5317 1098.1798,476.1788 1082.0759,483.9531 C923.7523,560.3854 863.0482,512.4084 694.0759,560.9531 C688.427,562.576 682.6621,564.3582 676.874,566.2456 " fill="none" id="foaf:Agent-prov:Agent" style="stroke: #A80036; stroke-width: 1.0; stroke-dasharray: 7.0,7.0;"/><text fill="#888888" font-family="sans-serif" font-size="10" lengthAdjust="spacingAndGlyphs" textLength="186" x="514.5" y="801.2354">By Edmond Chuc (e.chuc@uq.edu.au)</text><!--MD5=[9ee71b5fe530de9b083f1f57eeb6aa7a]
@startuml
title TERN Organisations Ontology
"prov:Activity" <|- - "org:ChangeEvent"
"prov:Agent" <|- - "schema:Person"
"prov:Agent" <|- - "schema:Organization"
"schema:Thing" <|- - "prov:Agent"
Class "org:ChangeEvent" [[http://www.w3.org/ns/org#ChangeEvent]] {
}
Class "schema:Thing" [[http://schema.org/Thing]] {
[[http://schema.org/sameAs schema:sameAs]] : [[http://www.w3.org/2001/XMLSchema#anyURI xsd:anyURI]]
[[http://schema.org/description schema:description]] : [[http://www.w3.org/2000/01/rdf-schema#Literal rdfs:Literal]]
[[http://schema.org/name schema:name]] : [[http://www.w3.org/2000/01/rdf-schema#Literal rdfs:Literal]]
[[http://schema.org/alternateName schema:alternateName]] : [[http://www.w3.org/2000/01/rdf-schema#Literal rdfs:Literal]]
[[http://schema.org/url schema:url]] : [[http://www.w3.org/2001/XMLSchema#anyURI xsd:anyURI]]
}
Class "schema:Person" [[http://schema.org/Person]] {
[[http://schema.org/jobTitle schema:jobTitle]] : [[http://www.w3.org/2000/01/rdf-schema#Literal rdfs:Literal]]
[[http://schema.org/honorificPrefix schema:honorificPrefix]] : [[http://www.w3.org/2000/01/rdf-schema#Literal rdfs:Literal]]
}
Class "schema:Organization" [[http://schema.org/Organization]] {
[[http://schema.org/foundingDate schema:foundingDate]] : [[http://www.w3.org/2001/XMLSchema#date xsd:date]]
[[http://schema.org/taxID schema:taxID]] : [[http://www.w3.org/2000/01/rdf-schema#Literal rdfs:Literal]]
[[https://w3id.org/tern/ontologies/org/agorID tern-org:agorID]] : [[http://www.w3.org/2000/01/rdf-schema#Literal rdfs:Literal]]
[[http://schema.org/dissolutionDate schema:dissolutionDate]] : [[http://www.w3.org/2001/XMLSchema#date xsd:date]]
}
Class "prov:Agent" [[http://www.w3.org/ns/prov#Agent]] {
[[http://schema.org/telephone schema:telephone]] : [[http://www.w3.org/2000/01/rdf-schema#Literal rdfs:Literal]]
[[http://schema.org/address schema:address]] : [[http://www.w3.org/2001/XMLSchema#anyURI xsd:anyURI]]
[[http://schema.org/email schema:email]] : [[http://www.w3.org/2000/01/rdf-schema#Literal rdfs:Literal]]
}
"prov:Agent" - -> "schema:Organization" : "[[http://schema.org/memberOf schema:memberOf]]"
"schema:Organization" - -> "prov:Agent" : "[[http://schema.org/member schema:member]]"
"org:ChangeEvent" - -> "org:Organization" : "[[http://www.w3.org/ns/org#originalOrganization org:originalOrganization]]"
"org:ChangeEvent" - -> "org:Organization" : "[[http://www.w3.org/ns/org#resultingOrganization org:resultingOrganization]]"
"org:Organization" - -> "org:ChangeEvent" : "[[http://www.w3.org/ns/org#resultedFrom org:resultedFrom]]"
"schema:Organization" - -> "schema:Organization" : "[[http://schema.org/subOrganization schema:subOrganization]]"
"org:Organization" - -> "org:ChangeEvent" : "[[http://www.w3.org/ns/org#changedBy org:changedBy]]"
"schema:Person" - -> "schema:Organization" : "[[http://schema.org/affiliation schema:affiliation]]"
"schema:Organization" - -> "schema:Organization" : "[[http://schema.org/parentOrganization schema:parentOrganization]]"
"owl:Thing" .. "schema:Thing"
"foaf:Person" .. "schema:Person"
"org:Organization" .. "schema:Organization"
"foaf:Agent" .. "prov:Agent"
center footer By Edmond Chuc (e.chuc@uq.edu.au) 
@enduml

PlantUML version 1.2019.11(Sun Sep 22 10:02:15 GMT 2019)
(GPL source distribution)
Java Runtime: OpenJDK Runtime Environment
JVM: OpenJDK 64-Bit Server VM
Java Version: 1.8.0_222-b10
Operating System: Linux
Default Encoding: UTF-8
Language: en
Country: US
--></g></svg>